<?xml version="1.0" encoding="utf-8" standalone="no"?>
<!DOCTYPE svg PUBLIC "-//W3C//DTD SVG 1.1//EN"
  "http://www.w3.org/Graphics/SVG/1.1/DTD/svg11.dtd">
<svg xmlns:xlink="http://www.w3.org/1999/xlink" width="1419.84pt" height="843.84pt" viewBox="0 0 1419.84 843.84" xmlns="http://www.w3.org/2000/svg" version="1.1">
 <metadata>
  <rdf:RDF xmlns:dc="http://purl.org/dc/elements/1.1/" xmlns:cc="http://creativecommons.org/ns#" xmlns:rdf="http://www.w3.org/1999/02/22-rdf-syntax-ns#">
   <cc:Work>
    <dc:type rdf:resource="http://purl.org/dc/dcmitype/StillImage"/>
    <dc:date>2025-09-19T01:25:02.742465</dc:date>
    <dc:format>image/svg+xml</dc:format>
    <dc:creator>
     <cc:Agent>
      <dc:title>Matplotlib v3.10.6, https://matplotlib.org/</dc:title>
     </cc:Agent>
    </dc:creator>
   </cc:Work>
  </rdf:RDF>
 </metadata>
 <defs>
  <style type="text/css">*{stroke-linejoin: round; stroke-linecap: butt}</style>
 </defs>
 <g id="figure_1">
  <g id="patch_1">
   <path d="M 0 843.84 
L 1419.84 843.84 
L 1419.84 0 
L 0 0 
z
" style="fill: #ffffff"/>
  </g>
  <g id="axes_1">
   <g id="patch_2">
    <path d="M 225.0432 385.632 
L 351.5328 385.632 
Q 355.0464 385.632 355.0464 380.448 
L 355.0464 256.032 
Q 355.0464 250.848 351.5328 250.848 
L 225.0432 250.848 
Q 221.5296 250.848 221.5296 256.032 
L 221.5296 380.448 
Q 221.5296 385.632 225.0432 385.632 
z
" clip-path="url(#p54c9bda42e)" style="fill: #0288d1; opacity: 0.9; stroke: #212121; stroke-width: 3; stroke-linejoin: miter"/>
   </g>
   <g id="patch_3">
    <path d="M 499.104 401.184 
L 569.376 318.24 
L 499.104 235.296 
L 428.832 318.24 
z
" clip-path="url(#p54c9bda42e)" style="fill: #f57c00; opacity: 0.9; stroke: #212121; stroke-width: 3; stroke-linejoin: miter"/>
   </g>
   <g id="patch_4">
    <path d="M 646.6752 385.632 
L 773.1648 385.632 
Q 776.6784 385.632 776.6784 380.448 
L 776.6784 256.032 
Q 776.6784 250.848 773.1648 250.848 
L 646.6752 250.848 
Q 643.1616 250.848 643.1616 256.032 
L 643.1616 380.448 
Q 643.1616 385.632 646.6752 385.632 
z
" clip-path="url(#p54c9bda42e)" style="fill: #0288d1; opacity: 0.9; stroke: #212121; stroke-width: 3; stroke-linejoin: miter"/>
   </g>
   <g id="patch_5">
    <path d="M 857.4912 385.632 
L 983.9808 385.632 
Q 987.4944 385.632 987.4944 380.448 
L 987.4944 256.032 
Q 987.4944 250.848 983.9808 250.848 
L 857.4912 250.848 
Q 853.9776 250.848 853.9776 256.032 
L 853.9776 380.448 
Q 853.9776 385.632 857.4912 385.632 
z
" clip-path="url(#p54c9bda42e)" style="fill: #2e7d32; opacity: 0.9; stroke: #212121; stroke-width: 3; stroke-linejoin: miter"/>
   </g>
   <g id="patch_6">
    <path d="M 1068.3072 385.632 
L 1194.7968 385.632 
Q 1198.3104 385.632 1198.3104 380.448 
L 1198.3104 256.032 
Q 1198.3104 250.848 1194.7968 250.848 
L 1068.3072 250.848 
Q 1064.7936 250.848 1064.7936 256.032 
L 1064.7936 380.448 
Q 1064.7936 385.632 1068.3072 385.632 
z
" clip-path="url(#p54c9bda42e)" style="fill: #1e3a5f; opacity: 0.9; stroke: #212121; stroke-width: 3; stroke-linejoin: miter"/>
   </g>
   <g id="patch_7">
    <path d="M 435.8592 178.272 
L 562.3488 178.272 
Q 565.8624 178.272 565.8624 173.088 
L 565.8624 48.672 
Q 565.8624 43.488 562.3488 43.488 
L 435.8592 43.488 
Q 432.3456 43.488 432.3456 48.672 
L 432.3456 173.088 
Q 432.3456 178.272 435.8592 178.272 
z
" clip-path="url(#p54c9bda42e)" style="fill: #d32f2f; opacity: 0.9; stroke: #212121; stroke-width: 3; stroke-linejoin: miter"/>
   </g>
   <g id="patch_8">
    <path d="M 1061.28 577.44 
L 1201.824 577.44 
L 1215.8784 473.76 
L 1047.2256 473.76 
z
" clip-path="url(#p54c9bda42e)" style="fill: #7b1fa2; opacity: 0.9; stroke: #212121; stroke-width: 3; stroke-linejoin: miter"/>
   </g>
   <g id="patch_9">
    <path d="M 218.016 401.184 
L 709.92 401.184 
L 709.92 235.296 
L 218.016 235.296 
L 218.016 401.184 
z
" clip-path="url(#p54c9bda42e)" style="fill: none; opacity: 0.7; stroke-dasharray: 11.1,4.8; stroke-dashoffset: 0; stroke: #f57c00; stroke-width: 3; stroke-linejoin: miter"/>
   </g>
   <g id="patch_10">
    <path d="M 674.784 401.184 
L 1166.688 401.184 
L 1166.688 235.296 
L 674.784 235.296 
L 674.784 401.184 
z
" clip-path="url(#p54c9bda42e)" style="fill: none; opacity: 0.7; stroke-dasharray: 11.1,4.8; stroke-dashoffset: 0; stroke: #0288d1; stroke-width: 3; stroke-linejoin: miter"/>
   </g>
   <g id="patch_11">
    <path d="M 1236.96 380.448 
L 1412.64 380.448 
Q 1419.6672 380.448 1419.6672 370.08 
L 1419.6672 162.72 
Q 1419.6672 152.352 1412.64 152.352 
L 1236.96 152.352 
Q 1229.9328 152.352 1229.9328 162.72 
L 1229.9328 370.08 
Q 1229.9328 380.448 1236.96 380.448 
z
" clip-path="url(#p54c9bda42e)" style="fill: #ffffff; stroke: #1e3a5f; stroke-width: 3; stroke-linejoin: miter"/>
   </g>
   <g id="text_1">
    <!-- 1. RICEZIONE -->
    <g style="fill: #ffffff" transform="translate(235.8355 313.93725) scale(0.16 -0.16)">
     <defs>
      <path id="Arial-BoldMT-31" d="M 2519 0 
L 1641 0 
L 1641 3309 
Q 1159 2859 506 2644 
L 506 3441 
Q 850 3553 1253 3867 
Q 1656 4181 1806 4600 
L 2519 4600 
L 2519 0 
z
" transform="scale(0.015625)"/>
      <path id="Arial-BoldMT-2e" d="M 459 0 
L 459 878 
L 1338 878 
L 1338 0 
L 459 0 
z
" transform="scale(0.015625)"/>
      <path id="Arial-BoldMT-20" transform="scale(0.015625)"/>
      <path id="Arial-BoldMT-52" d="M 469 0 
L 469 4581 
L 2416 4581 
Q 3150 4581 3483 4457 
Q 3816 4334 4016 4018 
Q 4216 3703 4216 3297 
Q 4216 2781 3912 2445 
Q 3609 2109 3006 2022 
Q 3306 1847 3501 1637 
Q 3697 1428 4028 894 
L 4588 0 
L 3481 0 
L 2813 997 
Q 2456 1531 2325 1670 
Q 2194 1809 2047 1861 
Q 1900 1913 1581 1913 
L 1394 1913 
L 1394 0 
L 469 0 
z
M 1394 2644 
L 2078 2644 
Q 2744 2644 2909 2700 
Q 3075 2756 3169 2893 
Q 3263 3031 3263 3238 
Q 3263 3469 3139 3611 
Q 3016 3753 2791 3791 
Q 2678 3806 2116 3806 
L 1394 3806 
L 1394 2644 
z
" transform="scale(0.015625)"/>
      <path id="Arial-BoldMT-49" d="M 438 0 
L 438 4581 
L 1363 4581 
L 1363 0 
L 438 0 
z
" transform="scale(0.015625)"/>
      <path id="Arial-BoldMT-43" d="M 3397 1684 
L 4294 1400 
Q 4088 650 3608 286 
Q 3128 -78 2391 -78 
Q 1478 -78 890 545 
Q 303 1169 303 2250 
Q 303 3394 893 4026 
Q 1484 4659 2447 4659 
Q 3288 4659 3813 4163 
Q 4125 3869 4281 3319 
L 3366 3100 
Q 3284 3456 3026 3662 
Q 2769 3869 2400 3869 
Q 1891 3869 1573 3503 
Q 1256 3138 1256 2319 
Q 1256 1450 1568 1081 
Q 1881 713 2381 713 
Q 2750 713 3015 947 
Q 3281 1181 3397 1684 
z
" transform="scale(0.015625)"/>
      <path id="Arial-BoldMT-45" d="M 466 0 
L 466 4581 
L 3863 4581 
L 3863 3806 
L 1391 3806 
L 1391 2791 
L 3691 2791 
L 3691 2019 
L 1391 2019 
L 1391 772 
L 3950 772 
L 3950 0 
L 466 0 
z
" transform="scale(0.015625)"/>
      <path id="Arial-BoldMT-5a" d="M 69 0 
L 69 834 
L 2475 3806 
L 341 3806 
L 341 4581 
L 3694 4581 
L 3694 3863 
L 1184 772 
L 3791 772 
L 3791 0 
L 69 0 
z
" transform="scale(0.015625)"/>
      <path id="Arial-BoldMT-4f" d="M 278 2263 
Q 278 2963 488 3438 
Q 644 3788 914 4066 
Q 1184 4344 1506 4478 
Q 1934 4659 2494 4659 
Q 3506 4659 4114 4031 
Q 4722 3403 4722 2284 
Q 4722 1175 4119 548 
Q 3516 -78 2506 -78 
Q 1484 -78 881 545 
Q 278 1169 278 2263 
z
M 1231 2294 
Q 1231 1516 1590 1114 
Q 1950 713 2503 713 
Q 3056 713 3411 1111 
Q 3766 1509 3766 2306 
Q 3766 3094 3420 3481 
Q 3075 3869 2503 3869 
Q 1931 3869 1581 3476 
Q 1231 3084 1231 2294 
z
" transform="scale(0.015625)"/>
      <path id="Arial-BoldMT-4e" d="M 475 0 
L 475 4581 
L 1375 4581 
L 3250 1522 
L 3250 4581 
L 4109 4581 
L 4109 0 
L 3181 0 
L 1334 2988 
L 1334 0 
L 475 0 
z
" transform="scale(0.015625)"/>
     </defs>
     <use xlink:href="#Arial-BoldMT-31"/>
     <use xlink:href="#Arial-BoldMT-2e" transform="translate(55.615234 0)"/>
     <use xlink:href="#Arial-BoldMT-20" transform="translate(83.398438 0)"/>
     <use xlink:href="#Arial-BoldMT-52" transform="translate(111.181641 0)"/>
     <use xlink:href="#Arial-BoldMT-49" transform="translate(183.398438 0)"/>
     <use xlink:href="#Arial-BoldMT-43" transform="translate(211.181641 0)"/>
     <use xlink:href="#Arial-BoldMT-45" transform="translate(283.398438 0)"/>
     <use xlink:href="#Arial-BoldMT-5a" transform="translate(350.097656 0)"/>
     <use xlink:href="#Arial-BoldMT-49" transform="translate(411.181641 0)"/>
     <use xlink:href="#Arial-BoldMT-4f" transform="translate(438.964844 0)"/>
     <use xlink:href="#Arial-BoldMT-4e" transform="translate(516.748047 0)"/>
     <use xlink:href="#Arial-BoldMT-45" transform="translate(588.964844 0)"/>
    </g>
    <!-- RICHIESTA -->
    <g style="fill: #ffffff" transform="translate(245.76425 330.83775) scale(0.16 -0.16)">
     <defs>
      <path id="Arial-BoldMT-48" d="M 469 0 
L 469 4581 
L 1394 4581 
L 1394 2778 
L 3206 2778 
L 3206 4581 
L 4131 4581 
L 4131 0 
L 3206 0 
L 3206 2003 
L 1394 2003 
L 1394 0 
L 469 0 
z
" transform="scale(0.015625)"/>
      <path id="Arial-BoldMT-53" d="M 231 1491 
L 1131 1578 
Q 1213 1125 1461 912 
Q 1709 700 2131 700 
Q 2578 700 2804 889 
Q 3031 1078 3031 1331 
Q 3031 1494 2936 1608 
Q 2841 1722 2603 1806 
Q 2441 1863 1863 2006 
Q 1119 2191 819 2459 
Q 397 2838 397 3381 
Q 397 3731 595 4036 
Q 794 4341 1167 4500 
Q 1541 4659 2069 4659 
Q 2931 4659 3367 4281 
Q 3803 3903 3825 3272 
L 2900 3231 
Q 2841 3584 2645 3739 
Q 2450 3894 2059 3894 
Q 1656 3894 1428 3728 
Q 1281 3622 1281 3444 
Q 1281 3281 1419 3166 
Q 1594 3019 2269 2859 
Q 2944 2700 3267 2529 
Q 3591 2359 3773 2064 
Q 3956 1769 3956 1334 
Q 3956 941 3737 597 
Q 3519 253 3119 86 
Q 2719 -81 2122 -81 
Q 1253 -81 787 320 
Q 322 722 231 1491 
z
" transform="scale(0.015625)"/>
      <path id="Arial-BoldMT-54" d="M 1497 0 
L 1497 3806 
L 138 3806 
L 138 4581 
L 3778 4581 
L 3778 3806 
L 2422 3806 
L 2422 0 
L 1497 0 
z
" transform="scale(0.015625)"/>
      <path id="Arial-BoldMT-41" d="M 4597 0 
L 3591 0 
L 3191 1041 
L 1359 1041 
L 981 0 
L 0 0 
L 1784 4581 
L 2763 4581 
L 4597 0 
z
M 2894 1813 
L 2263 3513 
L 1644 1813 
L 2894 1813 
z
" transform="scale(0.015625)"/>
     </defs>
     <use xlink:href="#Arial-BoldMT-52"/>
     <use xlink:href="#Arial-BoldMT-49" transform="translate(72.216797 0)"/>
     <use xlink:href="#Arial-BoldMT-43" transform="translate(100 0)"/>
     <use xlink:href="#Arial-BoldMT-48" transform="translate(172.216797 0)"/>
     <use xlink:href="#Arial-BoldMT-49" transform="translate(244.433594 0)"/>
     <use xlink:href="#Arial-BoldMT-45" transform="translate(272.216797 0)"/>
     <use xlink:href="#Arial-BoldMT-53" transform="translate(338.916016 0)"/>
     <use xlink:href="#Arial-BoldMT-54" transform="translate(405.615234 0)"/>
     <use xlink:href="#Arial-BoldMT-41" transform="translate(459.324219 0)"/>
    </g>
   </g>
   <g id="text_2">
    <!-- VERIFICA -->
    <g style="fill: #ffffff" transform="translate(461.76775 313.93725) scale(0.16 -0.16)">
     <defs>
      <path id="Arial-BoldMT-56" d="M 1634 0 
L -3 4581 
L 1000 4581 
L 2159 1191 
L 3281 4581 
L 4263 4581 
L 2622 0 
L 1634 0 
z
" transform="scale(0.015625)"/>
      <path id="Arial-BoldMT-46" d="M 472 0 
L 472 4581 
L 3613 4581 
L 3613 3806 
L 1397 3806 
L 1397 2722 
L 3309 2722 
L 3309 1947 
L 1397 1947 
L 1397 0 
L 472 0 
z
" transform="scale(0.015625)"/>
     </defs>
     <use xlink:href="#Arial-BoldMT-56"/>
     <use xlink:href="#Arial-BoldMT-45" transform="translate(66.699219 0)"/>
     <use xlink:href="#Arial-BoldMT-52" transform="translate(133.398438 0)"/>
     <use xlink:href="#Arial-BoldMT-49" transform="translate(205.615234 0)"/>
     <use xlink:href="#Arial-BoldMT-46" transform="translate(233.398438 0)"/>
     <use xlink:href="#Arial-BoldMT-49" transform="translate(294.482422 0)"/>
     <use xlink:href="#Arial-BoldMT-43" transform="translate(322.265625 0)"/>
     <use xlink:href="#Arial-BoldMT-41" transform="translate(394.482422 0)"/>
    </g>
    <!-- IDENTITÀ -->
    <g style="fill: #ffffff" transform="translate(462.21775 330.83775) scale(0.16 -0.16)">
     <defs>
      <path id="Arial-BoldMT-44" d="M 463 4581 
L 2153 4581 
Q 2725 4581 3025 4494 
Q 3428 4375 3715 4072 
Q 4003 3769 4153 3330 
Q 4303 2891 4303 2247 
Q 4303 1681 4163 1272 
Q 3991 772 3672 463 
Q 3431 228 3022 97 
Q 2716 0 2203 0 
L 463 0 
L 463 4581 
z
M 1388 3806 
L 1388 772 
L 2078 772 
Q 2466 772 2638 816 
Q 2863 872 3011 1006 
Q 3159 1141 3253 1448 
Q 3347 1756 3347 2288 
Q 3347 2819 3253 3103 
Q 3159 3388 2990 3547 
Q 2822 3706 2563 3763 
Q 2369 3806 1803 3806 
L 1388 3806 
z
" transform="scale(0.015625)"/>
      <path id="Arial-BoldMT-c0" d="M 4597 0 
L 3591 0 
L 3191 1041 
L 1359 1041 
L 981 0 
L 0 0 
L 1784 4581 
L 2763 4581 
L 4597 0 
z
M 2894 1813 
L 2263 3513 
L 1644 1813 
L 2894 1813 
z
M 2787 4813 
L 2234 4813 
L 1371 5747 
L 2356 5747 
L 2787 4813 
z
" transform="scale(0.015625)"/>
     </defs>
     <use xlink:href="#Arial-BoldMT-49"/>
     <use xlink:href="#Arial-BoldMT-44" transform="translate(27.783203 0)"/>
     <use xlink:href="#Arial-BoldMT-45" transform="translate(100 0)"/>
     <use xlink:href="#Arial-BoldMT-4e" transform="translate(166.699219 0)"/>
     <use xlink:href="#Arial-BoldMT-54" transform="translate(238.916016 0)"/>
     <use xlink:href="#Arial-BoldMT-49" transform="translate(300 0)"/>
     <use xlink:href="#Arial-BoldMT-54" transform="translate(327.783203 0)"/>
     <use xlink:href="#Arial-BoldMT-c0" transform="translate(388.867188 0)"/>
    </g>
   </g>
   <g id="text_3">
    <!-- 3. IDENTIFICA -->
    <g style="fill: #ffffff" transform="translate(656.14 313.93725) scale(0.16 -0.16)">
     <defs>
      <path id="Arial-BoldMT-33" d="M 241 1216 
L 1091 1319 
Q 1131 994 1309 822 
Q 1488 650 1741 650 
Q 2013 650 2198 856 
Q 2384 1063 2384 1413 
Q 2384 1744 2206 1937 
Q 2028 2131 1772 2131 
Q 1603 2131 1369 2066 
L 1466 2781 
Q 1822 2772 2009 2936 
Q 2197 3100 2197 3372 
Q 2197 3603 2059 3740 
Q 1922 3878 1694 3878 
Q 1469 3878 1309 3722 
Q 1150 3566 1116 3266 
L 306 3403 
Q 391 3819 561 4067 
Q 731 4316 1036 4458 
Q 1341 4600 1719 4600 
Q 2366 4600 2756 4188 
Q 3078 3850 3078 3425 
Q 3078 2822 2419 2463 
Q 2813 2378 3048 2084 
Q 3284 1791 3284 1375 
Q 3284 772 2843 347 
Q 2403 -78 1747 -78 
Q 1125 -78 715 280 
Q 306 638 241 1216 
z
" transform="scale(0.015625)"/>
     </defs>
     <use xlink:href="#Arial-BoldMT-33"/>
     <use xlink:href="#Arial-BoldMT-2e" transform="translate(55.615234 0)"/>
     <use xlink:href="#Arial-BoldMT-20" transform="translate(83.398438 0)"/>
     <use xlink:href="#Arial-BoldMT-49" transform="translate(111.181641 0)"/>
     <use xlink:href="#Arial-BoldMT-44" transform="translate(138.964844 0)"/>
     <use xlink:href="#Arial-BoldMT-45" transform="translate(211.181641 0)"/>
     <use xlink:href="#Arial-BoldMT-4e" transform="translate(277.880859 0)"/>
     <use xlink:href="#Arial-BoldMT-54" transform="translate(350.097656 0)"/>
     <use xlink:href="#Arial-BoldMT-49" transform="translate(411.181641 0)"/>
     <use xlink:href="#Arial-BoldMT-46" transform="translate(438.964844 0)"/>
     <use xlink:href="#Arial-BoldMT-49" transform="translate(500.048828 0)"/>
     <use xlink:href="#Arial-BoldMT-43" transform="translate(527.832031 0)"/>
     <use xlink:href="#Arial-BoldMT-41" transform="translate(600.048828 0)"/>
    </g>
    <!-- DATI -->
    <g style="fill: #ffffff" transform="translate(691.84625 330.83775) scale(0.16 -0.16)">
     <use xlink:href="#Arial-BoldMT-44"/>
     <use xlink:href="#Arial-BoldMT-41" transform="translate(72.216797 0)"/>
     <use xlink:href="#Arial-BoldMT-54" transform="translate(137.058594 0)"/>
     <use xlink:href="#Arial-BoldMT-49" transform="translate(198.142578 0)"/>
    </g>
   </g>
   <g id="text_4">
    <!-- 4. ESECUZIONE -->
    <g style="fill: #ffffff" transform="translate(859.8335 322.3875) scale(0.16 -0.16)">
     <defs>
      <path id="Arial-BoldMT-34" d="M 1994 0 
L 1994 922 
L 119 922 
L 119 1691 
L 2106 4600 
L 2844 4600 
L 2844 1694 
L 3413 1694 
L 3413 922 
L 2844 922 
L 2844 0 
L 1994 0 
z
M 1994 1694 
L 1994 3259 
L 941 1694 
L 1994 1694 
z
" transform="scale(0.015625)"/>
      <path id="Arial-BoldMT-55" d="M 459 4581 
L 1384 4581 
L 1384 2100 
Q 1384 1509 1419 1334 
Q 1478 1053 1701 883 
Q 1925 713 2313 713 
Q 2706 713 2906 873 
Q 3106 1034 3147 1268 
Q 3188 1503 3188 2047 
L 3188 4581 
L 4113 4581 
L 4113 2175 
Q 4113 1350 4038 1009 
Q 3963 669 3761 434 
Q 3559 200 3221 61 
Q 2884 -78 2341 -78 
Q 1684 -78 1345 73 
Q 1006 225 809 467 
Q 613 709 550 975 
Q 459 1369 459 2138 
L 459 4581 
z
" transform="scale(0.015625)"/>
     </defs>
     <use xlink:href="#Arial-BoldMT-34"/>
     <use xlink:href="#Arial-BoldMT-2e" transform="translate(55.615234 0)"/>
     <use xlink:href="#Arial-BoldMT-20" transform="translate(83.398438 0)"/>
     <use xlink:href="#Arial-BoldMT-45" transform="translate(111.181641 0)"/>
     <use xlink:href="#Arial-BoldMT-53" transform="translate(177.880859 0)"/>
     <use xlink:href="#Arial-BoldMT-45" transform="translate(244.580078 0)"/>
     <use xlink:href="#Arial-BoldMT-43" transform="translate(311.279297 0)"/>
     <use xlink:href="#Arial-BoldMT-55" transform="translate(383.496094 0)"/>
     <use xlink:href="#Arial-BoldMT-5a" transform="translate(455.712891 0)"/>
     <use xlink:href="#Arial-BoldMT-49" transform="translate(516.796875 0)"/>
     <use xlink:href="#Arial-BoldMT-4f" transform="translate(544.580078 0)"/>
     <use xlink:href="#Arial-BoldMT-4e" transform="translate(622.363281 0)"/>
     <use xlink:href="#Arial-BoldMT-45" transform="translate(694.580078 0)"/>
    </g>
   </g>
   <g id="text_5">
    <!-- 5. NOTIFICA -->
    <g style="fill: #ffffff" transform="translate(1084.88575 322.3875) scale(0.16 -0.16)">
     <defs>
      <path id="Arial-BoldMT-35" d="M 284 1178 
L 1159 1269 
Q 1197 972 1381 798 
Q 1566 625 1806 625 
Q 2081 625 2272 848 
Q 2463 1072 2463 1522 
Q 2463 1944 2273 2155 
Q 2084 2366 1781 2366 
Q 1403 2366 1103 2031 
L 391 2134 
L 841 4519 
L 3163 4519 
L 3163 3697 
L 1506 3697 
L 1369 2919 
Q 1663 3066 1969 3066 
Q 2553 3066 2959 2641 
Q 3366 2216 3366 1538 
Q 3366 972 3038 528 
Q 2591 -78 1797 -78 
Q 1163 -78 763 262 
Q 363 603 284 1178 
z
" transform="scale(0.015625)"/>
     </defs>
     <use xlink:href="#Arial-BoldMT-35"/>
     <use xlink:href="#Arial-BoldMT-2e" transform="translate(55.615234 0)"/>
     <use xlink:href="#Arial-BoldMT-20" transform="translate(83.398438 0)"/>
     <use xlink:href="#Arial-BoldMT-4e" transform="translate(111.181641 0)"/>
     <use xlink:href="#Arial-BoldMT-4f" transform="translate(183.398438 0)"/>
     <use xlink:href="#Arial-BoldMT-54" transform="translate(261.181641 0)"/>
     <use xlink:href="#Arial-BoldMT-49" transform="translate(322.265625 0)"/>
     <use xlink:href="#Arial-BoldMT-46" transform="translate(350.048828 0)"/>
     <use xlink:href="#Arial-BoldMT-49" transform="translate(411.132812 0)"/>
     <use xlink:href="#Arial-BoldMT-43" transform="translate(438.916016 0)"/>
     <use xlink:href="#Arial-BoldMT-41" transform="translate(511.132812 0)"/>
    </g>
   </g>
   <g id="text_6">
    <!-- RESPINTA -->
    <g style="fill: #ffffff" transform="translate(459.244 115.0275) scale(0.16 -0.16)">
     <defs>
      <path id="Arial-BoldMT-50" d="M 466 0 
L 466 4581 
L 1950 4581 
Q 2794 4581 3050 4513 
Q 3444 4409 3709 4064 
Q 3975 3719 3975 3172 
Q 3975 2750 3822 2462 
Q 3669 2175 3433 2011 
Q 3197 1847 2953 1794 
Q 2622 1728 1994 1728 
L 1391 1728 
L 1391 0 
L 466 0 
z
M 1391 3806 
L 1391 2506 
L 1897 2506 
Q 2444 2506 2628 2578 
Q 2813 2650 2917 2803 
Q 3022 2956 3022 3159 
Q 3022 3409 2875 3571 
Q 2728 3734 2503 3775 
Q 2338 3806 1838 3806 
L 1391 3806 
z
" transform="scale(0.015625)"/>
     </defs>
     <use xlink:href="#Arial-BoldMT-52"/>
     <use xlink:href="#Arial-BoldMT-45" transform="translate(72.216797 0)"/>
     <use xlink:href="#Arial-BoldMT-53" transform="translate(138.916016 0)"/>
     <use xlink:href="#Arial-BoldMT-50" transform="translate(205.615234 0)"/>
     <use xlink:href="#Arial-BoldMT-49" transform="translate(272.314453 0)"/>
     <use xlink:href="#Arial-BoldMT-4e" transform="translate(300.097656 0)"/>
     <use xlink:href="#Arial-BoldMT-54" transform="translate(372.314453 0)"/>
     <use xlink:href="#Arial-BoldMT-41" transform="translate(426.023438 0)"/>
    </g>
   </g>
   <g id="text_7">
    <!-- AUDIT TRAIL -->
    <g style="fill: #ffffff" transform="translate(1081.33825 529.7475) scale(0.16 -0.16)">
     <defs>
      <path id="Arial-BoldMT-4c" d="M 491 0 
L 491 4544 
L 1416 4544 
L 1416 772 
L 3716 772 
L 3716 0 
L 491 0 
z
" transform="scale(0.015625)"/>
     </defs>
     <use xlink:href="#Arial-BoldMT-41"/>
     <use xlink:href="#Arial-BoldMT-55" transform="translate(72.216797 0)"/>
     <use xlink:href="#Arial-BoldMT-44" transform="translate(144.433594 0)"/>
     <use xlink:href="#Arial-BoldMT-49" transform="translate(216.650391 0)"/>
     <use xlink:href="#Arial-BoldMT-54" transform="translate(244.433594 0)"/>
     <use xlink:href="#Arial-BoldMT-20" transform="translate(305.517578 0)"/>
     <use xlink:href="#Arial-BoldMT-54" transform="translate(333.300781 0)"/>
     <use xlink:href="#Arial-BoldMT-52" transform="translate(394.384766 0)"/>
     <use xlink:href="#Arial-BoldMT-41" transform="translate(466.601562 0)"/>
     <use xlink:href="#Arial-BoldMT-49" transform="translate(538.818359 0)"/>
     <use xlink:href="#Arial-BoldMT-4c" transform="translate(566.601562 0)"/>
    </g>
   </g>
   <g id="patch_12">
    <path d="M 360.562992 318.24 
Q 393.699545 318.24 423.481996 318.24 
" style="fill: none; stroke: #212121; stroke-width: 3; stroke-linecap: round"/>
    <path d="M 417.081996 315.04 
L 423.481996 318.24 
L 417.081996 321.44 
" style="fill: none; stroke: #212121; stroke-width: 3; stroke-linecap: round"/>
   </g>
   <g id="patch_13">
    <path d="M 571.378992 318.24 
Q 604.515545 318.24 634.297996 318.24 
" style="fill: none; stroke: #212121; stroke-width: 3; stroke-linecap: round"/>
    <path d="M 627.897996 315.04 
L 634.297996 318.24 
L 627.897996 321.44 
" style="fill: none; stroke: #212121; stroke-width: 3; stroke-linecap: round"/>
   </g>
   <g id="text_8">
    <!-- SÌ -->
    <g style="fill: #212121" transform="translate(596.008406 287.136) scale(0.18 -0.18)">
     <defs>
      <path id="Arial-BoldMT-cc" d="M 438 0 
L 438 4581 
L 1363 4581 
L 1363 0 
L 438 0 
z
M 1387 4813 
L 834 4813 
L -29 5747 
L 956 5747 
L 1387 4813 
z
" transform="scale(0.015625)"/>
     </defs>
     <use xlink:href="#Arial-BoldMT-53"/>
     <use xlink:href="#Arial-BoldMT-cc" transform="translate(66.699219 0)"/>
    </g>
   </g>
   <g id="patch_14">
    <path d="M 499.104 233.293781 
Q 499.104 214.558644 499.104 199.177609 
" style="fill: none; stroke: #212121; stroke-width: 3; stroke-linecap: round"/>
    <path d="M 495.904 205.577609 
L 499.104 199.177609 
L 502.304 205.577609 
" style="fill: none; stroke: #212121; stroke-width: 3; stroke-linecap: round"/>
   </g>
   <g id="text_9">
    <!-- NO -->
    <g style="fill: #212121" transform="translate(485.604 183.456) scale(0.18 -0.18)">
     <use xlink:href="#Arial-BoldMT-4e"/>
     <use xlink:href="#Arial-BoldMT-4f" transform="translate(72.216797 0)"/>
    </g>
   </g>
   <g id="patch_15">
    <path d="M 782.194992 318.24 
Q 815.331545 318.24 845.113996 318.24 
" style="fill: none; stroke: #212121; stroke-width: 3; stroke-linecap: round"/>
    <path d="M 838.713996 315.04 
L 845.113996 318.24 
L 838.713996 321.44 
" style="fill: none; stroke: #212121; stroke-width: 3; stroke-linecap: round"/>
   </g>
   <g id="patch_16">
    <path d="M 993.010992 318.24 
Q 1026.147545 318.24 1055.929996 318.24 
" style="fill: none; stroke: #212121; stroke-width: 3; stroke-linecap: round"/>
    <path d="M 1049.529996 315.04 
L 1055.929996 318.24 
L 1049.529996 321.44 
" style="fill: none; stroke: #212121; stroke-width: 3; stroke-linecap: round"/>
   </g>
   <g id="patch_17">
    <path d="M 1131.552 382.450219 
Q 1131.552 421.9207 1131.552 458.037079 
" style="fill: none; stroke: #212121; stroke-width: 3; stroke-linecap: round"/>
    <path d="M 1134.752 451.637079 
L 1131.552 458.037079 
L 1128.352 451.637079 
" style="fill: none; stroke: #212121; stroke-width: 3; stroke-linecap: round"/>
   </g>
   <g id="text_10">
    <!-- MAX 72 ORE -->
    <g style="fill: #f57c00" transform="translate(403.397688 421.92) scale(0.2 -0.2)">
     <defs>
      <path id="Arial-BoldMT-4d" d="M 453 0 
L 453 4581 
L 1838 4581 
L 2669 1456 
L 3491 4581 
L 4878 4581 
L 4878 0 
L 4019 0 
L 4019 3606 
L 3109 0 
L 2219 0 
L 1313 3606 
L 1313 0 
L 453 0 
z
" transform="scale(0.015625)"/>
      <path id="Arial-BoldMT-58" d="M 0 0 
L 1566 2391 
L 147 4581 
L 1228 4581 
L 2147 3109 
L 3047 4581 
L 4119 4581 
L 2694 2356 
L 4259 0 
L 3144 0 
L 2128 1584 
L 1109 0 
L 0 0 
z
" transform="scale(0.015625)"/>
      <path id="Arial-BoldMT-37" d="M 272 3703 
L 272 4519 
L 3275 4519 
L 3275 3881 
Q 2903 3516 2518 2831 
Q 2134 2147 1932 1376 
Q 1731 606 1734 0 
L 888 0 
Q 909 950 1279 1937 
Q 1650 2925 2269 3703 
L 272 3703 
z
" transform="scale(0.015625)"/>
      <path id="Arial-BoldMT-32" d="M 3238 816 
L 3238 0 
L 159 0 
Q 209 463 459 877 
Q 709 1291 1447 1975 
Q 2041 2528 2175 2725 
Q 2356 2997 2356 3263 
Q 2356 3556 2198 3714 
Q 2041 3872 1763 3872 
Q 1488 3872 1325 3706 
Q 1163 3541 1138 3156 
L 263 3244 
Q 341 3969 753 4284 
Q 1166 4600 1784 4600 
Q 2463 4600 2850 4234 
Q 3238 3869 3238 3325 
Q 3238 3016 3127 2736 
Q 3016 2456 2775 2150 
Q 2616 1947 2200 1565 
Q 1784 1184 1673 1059 
Q 1563 934 1494 816 
L 3238 816 
z
" transform="scale(0.015625)"/>
     </defs>
     <use xlink:href="#Arial-BoldMT-4d"/>
     <use xlink:href="#Arial-BoldMT-41" transform="translate(83.300781 0)"/>
     <use xlink:href="#Arial-BoldMT-58" transform="translate(155.517578 0)"/>
     <use xlink:href="#Arial-BoldMT-20" transform="translate(222.216797 0)"/>
     <use xlink:href="#Arial-BoldMT-37" transform="translate(250 0)"/>
     <use xlink:href="#Arial-BoldMT-32" transform="translate(305.615234 0)"/>
     <use xlink:href="#Arial-BoldMT-20" transform="translate(361.230469 0)"/>
     <use xlink:href="#Arial-BoldMT-4f" transform="translate(389.013672 0)"/>
     <use xlink:href="#Arial-BoldMT-52" transform="translate(466.796875 0)"/>
     <use xlink:href="#Arial-BoldMT-45" transform="translate(539.013672 0)"/>
    </g>
   </g>
   <g id="text_11">
    <!-- MAX 30 GIORNI -->
    <g style="fill: #0288d1" transform="translate(846.27975 421.92) scale(0.2 -0.2)">
     <defs>
      <path id="Arial-BoldMT-30" d="M 1756 4600 
Q 2422 4600 2797 4125 
Q 3244 3563 3244 2259 
Q 3244 959 2794 391 
Q 2422 -78 1756 -78 
Q 1088 -78 678 436 
Q 269 950 269 2269 
Q 269 3563 719 4131 
Q 1091 4600 1756 4600 
z
M 1756 3872 
Q 1597 3872 1472 3770 
Q 1347 3669 1278 3406 
Q 1188 3066 1188 2259 
Q 1188 1453 1269 1151 
Q 1350 850 1473 750 
Q 1597 650 1756 650 
Q 1916 650 2041 751 
Q 2166 853 2234 1116 
Q 2325 1453 2325 2259 
Q 2325 3066 2244 3367 
Q 2163 3669 2039 3770 
Q 1916 3872 1756 3872 
z
" transform="scale(0.015625)"/>
      <path id="Arial-BoldMT-47" d="M 2597 1684 
L 2597 2456 
L 4591 2456 
L 4591 631 
Q 4300 350 3748 136 
Q 3197 -78 2631 -78 
Q 1913 -78 1378 223 
Q 844 525 575 1086 
Q 306 1647 306 2306 
Q 306 3022 606 3578 
Q 906 4134 1484 4431 
Q 1925 4659 2581 4659 
Q 3434 4659 3914 4301 
Q 4394 3944 4531 3313 
L 3613 3141 
Q 3516 3478 3248 3673 
Q 2981 3869 2581 3869 
Q 1975 3869 1617 3484 
Q 1259 3100 1259 2344 
Q 1259 1528 1621 1120 
Q 1984 713 2572 713 
Q 2863 713 3155 827 
Q 3447 941 3656 1103 
L 3656 1684 
L 2597 1684 
z
" transform="scale(0.015625)"/>
     </defs>
     <use xlink:href="#Arial-BoldMT-4d"/>
     <use xlink:href="#Arial-BoldMT-41" transform="translate(83.300781 0)"/>
     <use xlink:href="#Arial-BoldMT-58" transform="translate(155.517578 0)"/>
     <use xlink:href="#Arial-BoldMT-20" transform="translate(222.216797 0)"/>
     <use xlink:href="#Arial-BoldMT-33" transform="translate(250 0)"/>
     <use xlink:href="#Arial-BoldMT-30" transform="translate(305.615234 0)"/>
     <use xlink:href="#Arial-BoldMT-20" transform="translate(361.230469 0)"/>
     <use xlink:href="#Arial-BoldMT-47" transform="translate(389.013672 0)"/>
     <use xlink:href="#Arial-BoldMT-49" transform="translate(466.796875 0)"/>
     <use xlink:href="#Arial-BoldMT-4f" transform="translate(494.580078 0)"/>
     <use xlink:href="#Arial-BoldMT-52" transform="translate(572.363281 0)"/>
     <use xlink:href="#Arial-BoldMT-4e" transform="translate(644.580078 0)"/>
     <use xlink:href="#Arial-BoldMT-49" transform="translate(716.796875 0)"/>
    </g>
   </g>
   <g id="text_12">
    <!-- Processo Automatizzato Diritti GDPR -->
    <g style="fill: #212121" transform="translate(463.089063 59.04) scale(0.28 -0.28)">
     <defs>
      <path id="Arial-BoldMT-72" d="M 1300 0 
L 422 0 
L 422 3319 
L 1238 3319 
L 1238 2847 
Q 1447 3181 1614 3287 
Q 1781 3394 1994 3394 
Q 2294 3394 2572 3228 
L 2300 2463 
Q 2078 2606 1888 2606 
Q 1703 2606 1575 2504 
Q 1447 2403 1373 2137 
Q 1300 1872 1300 1025 
L 1300 0 
z
" transform="scale(0.015625)"/>
      <path id="Arial-BoldMT-6f" d="M 256 1706 
Q 256 2144 472 2553 
Q 688 2963 1083 3178 
Q 1478 3394 1966 3394 
Q 2719 3394 3200 2905 
Q 3681 2416 3681 1669 
Q 3681 916 3195 420 
Q 2709 -75 1972 -75 
Q 1516 -75 1102 131 
Q 688 338 472 736 
Q 256 1134 256 1706 
z
M 1156 1659 
Q 1156 1166 1390 903 
Q 1625 641 1969 641 
Q 2313 641 2545 903 
Q 2778 1166 2778 1666 
Q 2778 2153 2545 2415 
Q 2313 2678 1969 2678 
Q 1625 2678 1390 2415 
Q 1156 2153 1156 1659 
z
" transform="scale(0.015625)"/>
      <path id="Arial-BoldMT-63" d="M 3353 2338 
L 2488 2181 
Q 2444 2441 2289 2572 
Q 2134 2703 1888 2703 
Q 1559 2703 1364 2476 
Q 1169 2250 1169 1719 
Q 1169 1128 1367 884 
Q 1566 641 1900 641 
Q 2150 641 2309 783 
Q 2469 925 2534 1272 
L 3397 1125 
Q 3263 531 2881 228 
Q 2500 -75 1859 -75 
Q 1131 -75 698 384 
Q 266 844 266 1656 
Q 266 2478 700 2936 
Q 1134 3394 1875 3394 
Q 2481 3394 2839 3133 
Q 3197 2872 3353 2338 
z
" transform="scale(0.015625)"/>
      <path id="Arial-BoldMT-65" d="M 2381 1056 
L 3256 909 
Q 3088 428 2723 176 
Q 2359 -75 1813 -75 
Q 947 -75 531 491 
Q 203 944 203 1634 
Q 203 2459 634 2926 
Q 1066 3394 1725 3394 
Q 2466 3394 2894 2905 
Q 3322 2416 3303 1406 
L 1103 1406 
Q 1113 1016 1316 798 
Q 1519 581 1822 581 
Q 2028 581 2168 693 
Q 2309 806 2381 1056 
z
M 2431 1944 
Q 2422 2325 2234 2523 
Q 2047 2722 1778 2722 
Q 1491 2722 1303 2513 
Q 1116 2303 1119 1944 
L 2431 1944 
z
" transform="scale(0.015625)"/>
      <path id="Arial-BoldMT-73" d="M 150 947 
L 1031 1081 
Q 1088 825 1259 692 
Q 1431 559 1741 559 
Q 2081 559 2253 684 
Q 2369 772 2369 919 
Q 2369 1019 2306 1084 
Q 2241 1147 2013 1200 
Q 950 1434 666 1628 
Q 272 1897 272 2375 
Q 272 2806 612 3100 
Q 953 3394 1669 3394 
Q 2350 3394 2681 3172 
Q 3013 2950 3138 2516 
L 2309 2363 
Q 2256 2556 2107 2659 
Q 1959 2763 1684 2763 
Q 1338 2763 1188 2666 
Q 1088 2597 1088 2488 
Q 1088 2394 1175 2328 
Q 1294 2241 1995 2081 
Q 2697 1922 2975 1691 
Q 3250 1456 3250 1038 
Q 3250 581 2869 253 
Q 2488 -75 1741 -75 
Q 1063 -75 667 200 
Q 272 475 150 947 
z
" transform="scale(0.015625)"/>
      <path id="Arial-BoldMT-75" d="M 2644 0 
L 2644 497 
Q 2463 231 2167 78 
Q 1872 -75 1544 -75 
Q 1209 -75 943 72 
Q 678 219 559 484 
Q 441 750 441 1219 
L 441 3319 
L 1319 3319 
L 1319 1794 
Q 1319 1094 1367 936 
Q 1416 778 1544 686 
Q 1672 594 1869 594 
Q 2094 594 2272 717 
Q 2450 841 2515 1023 
Q 2581 1206 2581 1919 
L 2581 3319 
L 3459 3319 
L 3459 0 
L 2644 0 
z
" transform="scale(0.015625)"/>
      <path id="Arial-BoldMT-74" d="M 1981 3319 
L 1981 2619 
L 1381 2619 
L 1381 1281 
Q 1381 875 1398 808 
Q 1416 741 1477 697 
Q 1538 653 1625 653 
Q 1747 653 1978 738 
L 2053 56 
Q 1747 -75 1359 -75 
Q 1122 -75 931 4 
Q 741 84 652 211 
Q 563 338 528 553 
Q 500 706 500 1172 
L 500 2619 
L 97 2619 
L 97 3319 
L 500 3319 
L 500 3978 
L 1381 4491 
L 1381 3319 
L 1981 3319 
z
" transform="scale(0.015625)"/>
      <path id="Arial-BoldMT-6d" d="M 394 3319 
L 1203 3319 
L 1203 2866 
Q 1638 3394 2238 3394 
Q 2556 3394 2790 3262 
Q 3025 3131 3175 2866 
Q 3394 3131 3647 3262 
Q 3900 3394 4188 3394 
Q 4553 3394 4806 3245 
Q 5059 3097 5184 2809 
Q 5275 2597 5275 2122 
L 5275 0 
L 4397 0 
L 4397 1897 
Q 4397 2391 4306 2534 
Q 4184 2722 3931 2722 
Q 3747 2722 3584 2609 
Q 3422 2497 3350 2280 
Q 3278 2063 3278 1594 
L 3278 0 
L 2400 0 
L 2400 1819 
Q 2400 2303 2353 2443 
Q 2306 2584 2207 2653 
Q 2109 2722 1941 2722 
Q 1738 2722 1575 2612 
Q 1413 2503 1342 2297 
Q 1272 2091 1272 1613 
L 1272 0 
L 394 0 
L 394 3319 
z
" transform="scale(0.015625)"/>
      <path id="Arial-BoldMT-61" d="M 1116 2306 
L 319 2450 
Q 453 2931 781 3162 
Q 1109 3394 1756 3394 
Q 2344 3394 2631 3255 
Q 2919 3116 3036 2902 
Q 3153 2688 3153 2116 
L 3144 1091 
Q 3144 653 3186 445 
Q 3228 238 3344 0 
L 2475 0 
Q 2441 88 2391 259 
Q 2369 338 2359 363 
Q 2134 144 1878 34 
Q 1622 -75 1331 -75 
Q 819 -75 523 203 
Q 228 481 228 906 
Q 228 1188 362 1408 
Q 497 1628 739 1745 
Q 981 1863 1438 1950 
Q 2053 2066 2291 2166 
L 2291 2253 
Q 2291 2506 2166 2614 
Q 2041 2722 1694 2722 
Q 1459 2722 1328 2630 
Q 1197 2538 1116 2306 
z
M 2291 1594 
Q 2122 1538 1756 1459 
Q 1391 1381 1278 1306 
Q 1106 1184 1106 997 
Q 1106 813 1243 678 
Q 1381 544 1594 544 
Q 1831 544 2047 700 
Q 2206 819 2256 991 
Q 2291 1103 2291 1419 
L 2291 1594 
z
" transform="scale(0.015625)"/>
      <path id="Arial-BoldMT-69" d="M 459 3769 
L 459 4581 
L 1338 4581 
L 1338 3769 
L 459 3769 
z
M 459 0 
L 459 3319 
L 1338 3319 
L 1338 0 
L 459 0 
z
" transform="scale(0.015625)"/>
      <path id="Arial-BoldMT-7a" d="M 106 0 
L 106 684 
L 1350 2113 
Q 1656 2463 1803 2609 
Q 1650 2600 1400 2597 
L 228 2591 
L 228 3319 
L 2972 3319 
L 2972 2697 
L 1703 1234 
L 1256 750 
Q 1622 772 1709 772 
L 3069 772 
L 3069 0 
L 106 0 
z
" transform="scale(0.015625)"/>
     </defs>
     <use xlink:href="#Arial-BoldMT-50"/>
     <use xlink:href="#Arial-BoldMT-72" transform="translate(66.699219 0)"/>
     <use xlink:href="#Arial-BoldMT-6f" transform="translate(105.615234 0)"/>
     <use xlink:href="#Arial-BoldMT-63" transform="translate(166.699219 0)"/>
     <use xlink:href="#Arial-BoldMT-65" transform="translate(222.314453 0)"/>
     <use xlink:href="#Arial-BoldMT-73" transform="translate(277.929688 0)"/>
     <use xlink:href="#Arial-BoldMT-73" transform="translate(333.544922 0)"/>
     <use xlink:href="#Arial-BoldMT-6f" transform="translate(389.160156 0)"/>
     <use xlink:href="#Arial-BoldMT-20" transform="translate(450.244141 0)"/>
     <use xlink:href="#Arial-BoldMT-41" transform="translate(474.277344 0)"/>
     <use xlink:href="#Arial-BoldMT-75" transform="translate(546.494141 0)"/>
     <use xlink:href="#Arial-BoldMT-74" transform="translate(607.578125 0)"/>
     <use xlink:href="#Arial-BoldMT-6f" transform="translate(640.878906 0)"/>
     <use xlink:href="#Arial-BoldMT-6d" transform="translate(701.962891 0)"/>
     <use xlink:href="#Arial-BoldMT-61" transform="translate(790.878906 0)"/>
     <use xlink:href="#Arial-BoldMT-74" transform="translate(846.494141 0)"/>
     <use xlink:href="#Arial-BoldMT-69" transform="translate(879.794922 0)"/>
     <use xlink:href="#Arial-BoldMT-7a" transform="translate(907.578125 0)"/>
     <use xlink:href="#Arial-BoldMT-7a" transform="translate(957.578125 0)"/>
     <use xlink:href="#Arial-BoldMT-61" transform="translate(1007.578125 0)"/>
     <use xlink:href="#Arial-BoldMT-74" transform="translate(1063.193359 0)"/>
     <use xlink:href="#Arial-BoldMT-6f" transform="translate(1096.494141 0)"/>
     <use xlink:href="#Arial-BoldMT-20" transform="translate(1157.578125 0)"/>
     <use xlink:href="#Arial-BoldMT-44" transform="translate(1185.361328 0)"/>
     <use xlink:href="#Arial-BoldMT-69" transform="translate(1257.578125 0)"/>
     <use xlink:href="#Arial-BoldMT-72" transform="translate(1285.361328 0)"/>
     <use xlink:href="#Arial-BoldMT-69" transform="translate(1324.277344 0)"/>
     <use xlink:href="#Arial-BoldMT-74" transform="translate(1352.060547 0)"/>
     <use xlink:href="#Arial-BoldMT-74" transform="translate(1385.361328 0)"/>
     <use xlink:href="#Arial-BoldMT-69" transform="translate(1418.662109 0)"/>
     <use xlink:href="#Arial-BoldMT-20" transform="translate(1446.445312 0)"/>
     <use xlink:href="#Arial-BoldMT-47" transform="translate(1474.228516 0)"/>
     <use xlink:href="#Arial-BoldMT-44" transform="translate(1552.011719 0)"/>
     <use xlink:href="#Arial-BoldMT-50" transform="translate(1624.228516 0)"/>
     <use xlink:href="#Arial-BoldMT-52" transform="translate(1690.927734 0)"/>
    </g>
   </g>
   <g id="text_13">
    <!-- DIRITTI GDPR -->
    <g style="fill: #1e3a5f" transform="translate(1264.802344 193.824) scale(0.18 -0.18)">
     <use xlink:href="#Arial-BoldMT-44"/>
     <use xlink:href="#Arial-BoldMT-49" transform="translate(72.216797 0)"/>
     <use xlink:href="#Arial-BoldMT-52" transform="translate(100 0)"/>
     <use xlink:href="#Arial-BoldMT-49" transform="translate(172.216797 0)"/>
     <use xlink:href="#Arial-BoldMT-54" transform="translate(200 0)"/>
     <use xlink:href="#Arial-BoldMT-54" transform="translate(261.083984 0)"/>
     <use xlink:href="#Arial-BoldMT-49" transform="translate(322.167969 0)"/>
     <use xlink:href="#Arial-BoldMT-20" transform="translate(349.951172 0)"/>
     <use xlink:href="#Arial-BoldMT-47" transform="translate(377.734375 0)"/>
     <use xlink:href="#Arial-BoldMT-44" transform="translate(455.517578 0)"/>
     <use xlink:href="#Arial-BoldMT-50" transform="translate(527.734375 0)"/>
     <use xlink:href="#Arial-BoldMT-52" transform="translate(594.433594 0)"/>
    </g>
   </g>
   <g id="text_14">
    <!-- Art. 15 - Accesso -->
    <g style="fill: #212121" transform="translate(1271.890938 245.664) scale(0.14 -0.14)">
     <defs>
      <path id="ArialMT-41" d="M -9 0 
L 1750 4581 
L 2403 4581 
L 4278 0 
L 3588 0 
L 3053 1388 
L 1138 1388 
L 634 0 
L -9 0 
z
M 1313 1881 
L 2866 1881 
L 2388 3150 
Q 2169 3728 2063 4100 
Q 1975 3659 1816 3225 
L 1313 1881 
z
" transform="scale(0.015625)"/>
      <path id="ArialMT-72" d="M 416 0 
L 416 3319 
L 922 3319 
L 922 2816 
Q 1116 3169 1280 3281 
Q 1444 3394 1641 3394 
Q 1925 3394 2219 3213 
L 2025 2691 
Q 1819 2813 1613 2813 
Q 1428 2813 1281 2702 
Q 1134 2591 1072 2394 
Q 978 2094 978 1738 
L 978 0 
L 416 0 
z
" transform="scale(0.015625)"/>
      <path id="ArialMT-74" d="M 1650 503 
L 1731 6 
Q 1494 -44 1306 -44 
Q 1000 -44 831 53 
Q 663 150 594 308 
Q 525 466 525 972 
L 525 2881 
L 113 2881 
L 113 3319 
L 525 3319 
L 525 4141 
L 1084 4478 
L 1084 3319 
L 1650 3319 
L 1650 2881 
L 1084 2881 
L 1084 941 
Q 1084 700 1114 631 
Q 1144 563 1211 522 
Q 1278 481 1403 481 
Q 1497 481 1650 503 
z
" transform="scale(0.015625)"/>
      <path id="ArialMT-2e" d="M 581 0 
L 581 641 
L 1222 641 
L 1222 0 
L 581 0 
z
" transform="scale(0.015625)"/>
      <path id="ArialMT-20" transform="scale(0.015625)"/>
      <path id="ArialMT-31" d="M 2384 0 
L 1822 0 
L 1822 3584 
Q 1619 3391 1289 3197 
Q 959 3003 697 2906 
L 697 3450 
Q 1169 3672 1522 3987 
Q 1875 4303 2022 4600 
L 2384 4600 
L 2384 0 
z
" transform="scale(0.015625)"/>
      <path id="ArialMT-35" d="M 266 1200 
L 856 1250 
Q 922 819 1161 601 
Q 1400 384 1738 384 
Q 2144 384 2425 690 
Q 2706 997 2706 1503 
Q 2706 1984 2436 2262 
Q 2166 2541 1728 2541 
Q 1456 2541 1237 2417 
Q 1019 2294 894 2097 
L 366 2166 
L 809 4519 
L 3088 4519 
L 3088 3981 
L 1259 3981 
L 1013 2750 
Q 1425 3038 1878 3038 
Q 2478 3038 2890 2622 
Q 3303 2206 3303 1553 
Q 3303 931 2941 478 
Q 2500 -78 1738 -78 
Q 1113 -78 717 272 
Q 322 622 266 1200 
z
" transform="scale(0.015625)"/>
      <path id="ArialMT-2d" d="M 203 1375 
L 203 1941 
L 1931 1941 
L 1931 1375 
L 203 1375 
z
" transform="scale(0.015625)"/>
      <path id="ArialMT-63" d="M 2588 1216 
L 3141 1144 
Q 3050 572 2676 248 
Q 2303 -75 1759 -75 
Q 1078 -75 664 370 
Q 250 816 250 1647 
Q 250 2184 428 2587 
Q 606 2991 970 3192 
Q 1334 3394 1763 3394 
Q 2303 3394 2647 3120 
Q 2991 2847 3088 2344 
L 2541 2259 
Q 2463 2594 2264 2762 
Q 2066 2931 1784 2931 
Q 1359 2931 1093 2626 
Q 828 2322 828 1663 
Q 828 994 1084 691 
Q 1341 388 1753 388 
Q 2084 388 2306 591 
Q 2528 794 2588 1216 
z
" transform="scale(0.015625)"/>
      <path id="ArialMT-65" d="M 2694 1069 
L 3275 997 
Q 3138 488 2766 206 
Q 2394 -75 1816 -75 
Q 1088 -75 661 373 
Q 234 822 234 1631 
Q 234 2469 665 2931 
Q 1097 3394 1784 3394 
Q 2450 3394 2872 2941 
Q 3294 2488 3294 1666 
Q 3294 1616 3291 1516 
L 816 1516 
Q 847 969 1125 678 
Q 1403 388 1819 388 
Q 2128 388 2347 550 
Q 2566 713 2694 1069 
z
M 847 1978 
L 2700 1978 
Q 2663 2397 2488 2606 
Q 2219 2931 1791 2931 
Q 1403 2931 1139 2672 
Q 875 2413 847 1978 
z
" transform="scale(0.015625)"/>
      <path id="ArialMT-73" d="M 197 991 
L 753 1078 
Q 800 744 1014 566 
Q 1228 388 1613 388 
Q 2000 388 2187 545 
Q 2375 703 2375 916 
Q 2375 1106 2209 1216 
Q 2094 1291 1634 1406 
Q 1016 1563 777 1677 
Q 538 1791 414 1992 
Q 291 2194 291 2438 
Q 291 2659 392 2848 
Q 494 3038 669 3163 
Q 800 3259 1026 3326 
Q 1253 3394 1513 3394 
Q 1903 3394 2198 3281 
Q 2494 3169 2634 2976 
Q 2775 2784 2828 2463 
L 2278 2388 
Q 2241 2644 2061 2787 
Q 1881 2931 1553 2931 
Q 1166 2931 1000 2803 
Q 834 2675 834 2503 
Q 834 2394 903 2306 
Q 972 2216 1119 2156 
Q 1203 2125 1616 2013 
Q 2213 1853 2448 1751 
Q 2684 1650 2818 1456 
Q 2953 1263 2953 975 
Q 2953 694 2789 445 
Q 2625 197 2315 61 
Q 2006 -75 1616 -75 
Q 969 -75 630 194 
Q 291 463 197 991 
z
" transform="scale(0.015625)"/>
      <path id="ArialMT-6f" d="M 213 1659 
Q 213 2581 725 3025 
Q 1153 3394 1769 3394 
Q 2453 3394 2887 2945 
Q 3322 2497 3322 1706 
Q 3322 1066 3130 698 
Q 2938 331 2570 128 
Q 2203 -75 1769 -75 
Q 1072 -75 642 372 
Q 213 819 213 1659 
z
M 791 1659 
Q 791 1022 1069 705 
Q 1347 388 1769 388 
Q 2188 388 2466 706 
Q 2744 1025 2744 1678 
Q 2744 2294 2464 2611 
Q 2184 2928 1769 2928 
Q 1347 2928 1069 2612 
Q 791 2297 791 1659 
z
" transform="scale(0.015625)"/>
     </defs>
     <use xlink:href="#ArialMT-41"/>
     <use xlink:href="#ArialMT-72" transform="translate(66.699219 0)"/>
     <use xlink:href="#ArialMT-74" transform="translate(100 0)"/>
     <use xlink:href="#ArialMT-2e" transform="translate(127.783203 0)"/>
     <use xlink:href="#ArialMT-20" transform="translate(155.566406 0)"/>
     <use xlink:href="#ArialMT-31" transform="translate(183.349609 0)"/>
     <use xlink:href="#ArialMT-35" transform="translate(238.964844 0)"/>
     <use xlink:href="#ArialMT-20" transform="translate(294.580078 0)"/>
     <use xlink:href="#ArialMT-2d" transform="translate(322.363281 0)"/>
     <use xlink:href="#ArialMT-20" transform="translate(355.664062 0)"/>
     <use xlink:href="#ArialMT-41" transform="translate(377.947266 0)"/>
     <use xlink:href="#ArialMT-63" transform="translate(444.646484 0)"/>
     <use xlink:href="#ArialMT-63" transform="translate(494.646484 0)"/>
     <use xlink:href="#ArialMT-65" transform="translate(544.646484 0)"/>
     <use xlink:href="#ArialMT-73" transform="translate(600.261719 0)"/>
     <use xlink:href="#ArialMT-73" transform="translate(650.261719 0)"/>
     <use xlink:href="#ArialMT-6f" transform="translate(700.261719 0)"/>
    </g>
   </g>
   <g id="text_15">
    <!-- Art. 16 - Rettifica -->
    <g style="fill: #212121" transform="translate(1272.675156 276.768) scale(0.14 -0.14)">
     <defs>
      <path id="ArialMT-36" d="M 3184 3459 
L 2625 3416 
Q 2550 3747 2413 3897 
Q 2184 4138 1850 4138 
Q 1581 4138 1378 3988 
Q 1113 3794 959 3422 
Q 806 3050 800 2363 
Q 1003 2672 1297 2822 
Q 1591 2972 1913 2972 
Q 2475 2972 2870 2558 
Q 3266 2144 3266 1488 
Q 3266 1056 3080 686 
Q 2894 316 2569 119 
Q 2244 -78 1831 -78 
Q 1128 -78 684 439 
Q 241 956 241 2144 
Q 241 3472 731 4075 
Q 1159 4600 1884 4600 
Q 2425 4600 2770 4297 
Q 3116 3994 3184 3459 
z
M 888 1484 
Q 888 1194 1011 928 
Q 1134 663 1356 523 
Q 1578 384 1822 384 
Q 2178 384 2434 671 
Q 2691 959 2691 1453 
Q 2691 1928 2437 2201 
Q 2184 2475 1800 2475 
Q 1419 2475 1153 2201 
Q 888 1928 888 1484 
z
" transform="scale(0.015625)"/>
      <path id="ArialMT-52" d="M 503 0 
L 503 4581 
L 2534 4581 
Q 3147 4581 3465 4457 
Q 3784 4334 3975 4021 
Q 4166 3709 4166 3331 
Q 4166 2844 3850 2509 
Q 3534 2175 2875 2084 
Q 3116 1969 3241 1856 
Q 3506 1613 3744 1247 
L 4541 0 
L 3778 0 
L 3172 953 
Q 2906 1366 2734 1584 
Q 2563 1803 2427 1890 
Q 2291 1978 2150 2013 
Q 2047 2034 1813 2034 
L 1109 2034 
L 1109 0 
L 503 0 
z
M 1109 2559 
L 2413 2559 
Q 2828 2559 3062 2645 
Q 3297 2731 3419 2920 
Q 3541 3109 3541 3331 
Q 3541 3656 3305 3865 
Q 3069 4075 2559 4075 
L 1109 4075 
L 1109 2559 
z
" transform="scale(0.015625)"/>
      <path id="ArialMT-69" d="M 425 3934 
L 425 4581 
L 988 4581 
L 988 3934 
L 425 3934 
z
M 425 0 
L 425 3319 
L 988 3319 
L 988 0 
L 425 0 
z
" transform="scale(0.015625)"/>
      <path id="ArialMT-66" d="M 556 0 
L 556 2881 
L 59 2881 
L 59 3319 
L 556 3319 
L 556 3672 
Q 556 4006 616 4169 
Q 697 4388 901 4523 
Q 1106 4659 1475 4659 
Q 1713 4659 2000 4603 
L 1916 4113 
Q 1741 4144 1584 4144 
Q 1328 4144 1222 4034 
Q 1116 3925 1116 3625 
L 1116 3319 
L 1763 3319 
L 1763 2881 
L 1116 2881 
L 1116 0 
L 556 0 
z
" transform="scale(0.015625)"/>
      <path id="ArialMT-61" d="M 2588 409 
Q 2275 144 1986 34 
Q 1697 -75 1366 -75 
Q 819 -75 525 192 
Q 231 459 231 875 
Q 231 1119 342 1320 
Q 453 1522 633 1644 
Q 813 1766 1038 1828 
Q 1203 1872 1538 1913 
Q 2219 1994 2541 2106 
Q 2544 2222 2544 2253 
Q 2544 2597 2384 2738 
Q 2169 2928 1744 2928 
Q 1347 2928 1158 2789 
Q 969 2650 878 2297 
L 328 2372 
Q 403 2725 575 2942 
Q 747 3159 1072 3276 
Q 1397 3394 1825 3394 
Q 2250 3394 2515 3294 
Q 2781 3194 2906 3042 
Q 3031 2891 3081 2659 
Q 3109 2516 3109 2141 
L 3109 1391 
Q 3109 606 3145 398 
Q 3181 191 3288 0 
L 2700 0 
Q 2613 175 2588 409 
z
M 2541 1666 
Q 2234 1541 1622 1453 
Q 1275 1403 1131 1340 
Q 988 1278 909 1158 
Q 831 1038 831 891 
Q 831 666 1001 516 
Q 1172 366 1500 366 
Q 1825 366 2078 508 
Q 2331 650 2450 897 
Q 2541 1088 2541 1459 
L 2541 1666 
z
" transform="scale(0.015625)"/>
     </defs>
     <use xlink:href="#ArialMT-41"/>
     <use xlink:href="#ArialMT-72" transform="translate(66.699219 0)"/>
     <use xlink:href="#ArialMT-74" transform="translate(100 0)"/>
     <use xlink:href="#ArialMT-2e" transform="translate(127.783203 0)"/>
     <use xlink:href="#ArialMT-20" transform="translate(155.566406 0)"/>
     <use xlink:href="#ArialMT-31" transform="translate(183.349609 0)"/>
     <use xlink:href="#ArialMT-36" transform="translate(238.964844 0)"/>
     <use xlink:href="#ArialMT-20" transform="translate(294.580078 0)"/>
     <use xlink:href="#ArialMT-2d" transform="translate(322.363281 0)"/>
     <use xlink:href="#ArialMT-20" transform="translate(355.664062 0)"/>
     <use xlink:href="#ArialMT-52" transform="translate(383.447266 0)"/>
     <use xlink:href="#ArialMT-65" transform="translate(455.664062 0)"/>
     <use xlink:href="#ArialMT-74" transform="translate(511.279297 0)"/>
     <use xlink:href="#ArialMT-74" transform="translate(539.0625 0)"/>
     <use xlink:href="#ArialMT-69" transform="translate(566.845703 0)"/>
     <use xlink:href="#ArialMT-66" transform="translate(589.0625 0)"/>
     <use xlink:href="#ArialMT-69" transform="translate(616.845703 0)"/>
     <use xlink:href="#ArialMT-63" transform="translate(639.0625 0)"/>
     <use xlink:href="#ArialMT-61" transform="translate(689.0625 0)"/>
    </g>
   </g>
   <g id="text_16">
    <!-- Art. 17 - Cancella -->
    <g style="fill: #212121" transform="translate(1270.723906 307.872) scale(0.14 -0.14)">
     <defs>
      <path id="ArialMT-37" d="M 303 3981 
L 303 4522 
L 3269 4522 
L 3269 4084 
Q 2831 3619 2401 2847 
Q 1972 2075 1738 1259 
Q 1569 684 1522 0 
L 944 0 
Q 953 541 1156 1306 
Q 1359 2072 1739 2783 
Q 2119 3494 2547 3981 
L 303 3981 
z
" transform="scale(0.015625)"/>
      <path id="ArialMT-43" d="M 3763 1606 
L 4369 1453 
Q 4178 706 3683 314 
Q 3188 -78 2472 -78 
Q 1731 -78 1267 223 
Q 803 525 561 1097 
Q 319 1669 319 2325 
Q 319 3041 592 3573 
Q 866 4106 1370 4382 
Q 1875 4659 2481 4659 
Q 3169 4659 3637 4309 
Q 4106 3959 4291 3325 
L 3694 3184 
Q 3534 3684 3231 3912 
Q 2928 4141 2469 4141 
Q 1941 4141 1586 3887 
Q 1231 3634 1087 3207 
Q 944 2781 944 2328 
Q 944 1744 1114 1308 
Q 1284 872 1643 656 
Q 2003 441 2422 441 
Q 2931 441 3284 734 
Q 3638 1028 3763 1606 
z
" transform="scale(0.015625)"/>
      <path id="ArialMT-6e" d="M 422 0 
L 422 3319 
L 928 3319 
L 928 2847 
Q 1294 3394 1984 3394 
Q 2284 3394 2536 3286 
Q 2788 3178 2913 3003 
Q 3038 2828 3088 2588 
Q 3119 2431 3119 2041 
L 3119 0 
L 2556 0 
L 2556 2019 
Q 2556 2363 2490 2533 
Q 2425 2703 2258 2804 
Q 2091 2906 1866 2906 
Q 1506 2906 1245 2678 
Q 984 2450 984 1813 
L 984 0 
L 422 0 
z
" transform="scale(0.015625)"/>
      <path id="ArialMT-6c" d="M 409 0 
L 409 4581 
L 972 4581 
L 972 0 
L 409 0 
z
" transform="scale(0.015625)"/>
     </defs>
     <use xlink:href="#ArialMT-41"/>
     <use xlink:href="#ArialMT-72" transform="translate(66.699219 0)"/>
     <use xlink:href="#ArialMT-74" transform="translate(100 0)"/>
     <use xlink:href="#ArialMT-2e" transform="translate(127.783203 0)"/>
     <use xlink:href="#ArialMT-20" transform="translate(155.566406 0)"/>
     <use xlink:href="#ArialMT-31" transform="translate(183.349609 0)"/>
     <use xlink:href="#ArialMT-37" transform="translate(238.964844 0)"/>
     <use xlink:href="#ArialMT-20" transform="translate(294.580078 0)"/>
     <use xlink:href="#ArialMT-2d" transform="translate(322.363281 0)"/>
     <use xlink:href="#ArialMT-20" transform="translate(355.664062 0)"/>
     <use xlink:href="#ArialMT-43" transform="translate(383.447266 0)"/>
     <use xlink:href="#ArialMT-61" transform="translate(455.664062 0)"/>
     <use xlink:href="#ArialMT-6e" transform="translate(511.279297 0)"/>
     <use xlink:href="#ArialMT-63" transform="translate(566.894531 0)"/>
     <use xlink:href="#ArialMT-65" transform="translate(616.894531 0)"/>
     <use xlink:href="#ArialMT-6c" transform="translate(672.509766 0)"/>
     <use xlink:href="#ArialMT-6c" transform="translate(694.726562 0)"/>
     <use xlink:href="#ArialMT-61" transform="translate(716.943359 0)"/>
    </g>
   </g>
   <g id="text_17">
    <!-- Art. 20 - Portabilità -->
    <g style="fill: #212121" transform="translate(1266.834531 338.976) scale(0.14 -0.14)">
     <defs>
      <path id="ArialMT-32" d="M 3222 541 
L 3222 0 
L 194 0 
Q 188 203 259 391 
Q 375 700 629 1000 
Q 884 1300 1366 1694 
Q 2113 2306 2375 2664 
Q 2638 3022 2638 3341 
Q 2638 3675 2398 3904 
Q 2159 4134 1775 4134 
Q 1369 4134 1125 3890 
Q 881 3647 878 3216 
L 300 3275 
Q 359 3922 746 4261 
Q 1134 4600 1788 4600 
Q 2447 4600 2831 4234 
Q 3216 3869 3216 3328 
Q 3216 3053 3103 2787 
Q 2991 2522 2730 2228 
Q 2469 1934 1863 1422 
Q 1356 997 1212 845 
Q 1069 694 975 541 
L 3222 541 
z
" transform="scale(0.015625)"/>
      <path id="ArialMT-30" d="M 266 2259 
Q 266 3072 433 3567 
Q 600 4063 929 4331 
Q 1259 4600 1759 4600 
Q 2128 4600 2406 4451 
Q 2684 4303 2865 4023 
Q 3047 3744 3150 3342 
Q 3253 2941 3253 2259 
Q 3253 1453 3087 958 
Q 2922 463 2592 192 
Q 2263 -78 1759 -78 
Q 1097 -78 719 397 
Q 266 969 266 2259 
z
M 844 2259 
Q 844 1131 1108 757 
Q 1372 384 1759 384 
Q 2147 384 2411 759 
Q 2675 1134 2675 2259 
Q 2675 3391 2411 3762 
Q 2147 4134 1753 4134 
Q 1366 4134 1134 3806 
Q 844 3388 844 2259 
z
" transform="scale(0.015625)"/>
      <path id="ArialMT-50" d="M 494 0 
L 494 4581 
L 2222 4581 
Q 2678 4581 2919 4538 
Q 3256 4481 3484 4323 
Q 3713 4166 3852 3881 
Q 3991 3597 3991 3256 
Q 3991 2672 3619 2267 
Q 3247 1863 2275 1863 
L 1100 1863 
L 1100 0 
L 494 0 
z
M 1100 2403 
L 2284 2403 
Q 2872 2403 3119 2622 
Q 3366 2841 3366 3238 
Q 3366 3525 3220 3729 
Q 3075 3934 2838 4000 
Q 2684 4041 2272 4041 
L 1100 4041 
L 1100 2403 
z
" transform="scale(0.015625)"/>
      <path id="ArialMT-62" d="M 941 0 
L 419 0 
L 419 4581 
L 981 4581 
L 981 2947 
Q 1338 3394 1891 3394 
Q 2197 3394 2470 3270 
Q 2744 3147 2920 2923 
Q 3097 2700 3197 2384 
Q 3297 2069 3297 1709 
Q 3297 856 2875 390 
Q 2453 -75 1863 -75 
Q 1275 -75 941 416 
L 941 0 
z
M 934 1684 
Q 934 1088 1097 822 
Q 1363 388 1816 388 
Q 2184 388 2453 708 
Q 2722 1028 2722 1663 
Q 2722 2313 2464 2622 
Q 2206 2931 1841 2931 
Q 1472 2931 1203 2611 
Q 934 2291 934 1684 
z
" transform="scale(0.015625)"/>
      <path id="ArialMT-e0" d="M 2588 409 
Q 2275 144 1986 34 
Q 1697 -75 1366 -75 
Q 819 -75 525 192 
Q 231 459 231 875 
Q 231 1119 342 1320 
Q 453 1522 633 1644 
Q 813 1766 1038 1828 
Q 1203 1872 1538 1913 
Q 2219 1994 2541 2106 
Q 2544 2222 2544 2253 
Q 2544 2597 2384 2738 
Q 2169 2928 1744 2928 
Q 1347 2928 1158 2789 
Q 969 2650 878 2297 
L 328 2372 
Q 403 2725 575 2942 
Q 747 3159 1072 3276 
Q 1397 3394 1825 3394 
Q 2250 3394 2515 3294 
Q 2781 3194 2906 3042 
Q 3031 2891 3081 2659 
Q 3109 2516 3109 2141 
L 3109 1391 
Q 3109 606 3145 398 
Q 3181 191 3288 0 
L 2700 0 
Q 2613 175 2588 409 
z
M 2541 1666 
Q 2234 1541 1622 1453 
Q 1275 1403 1131 1340 
Q 988 1278 909 1158 
Q 831 1038 831 891 
Q 831 666 1001 516 
Q 1172 366 1500 366 
Q 1825 366 2078 508 
Q 2331 650 2450 897 
Q 2541 1088 2541 1459 
L 2541 1666 
z
M 2237 3731 
L 1784 3731 
L 1062 4606 
L 1815 4606 
L 2237 3731 
z
" transform="scale(0.015625)"/>
     </defs>
     <use xlink:href="#ArialMT-41"/>
     <use xlink:href="#ArialMT-72" transform="translate(66.699219 0)"/>
     <use xlink:href="#ArialMT-74" transform="translate(100 0)"/>
     <use xlink:href="#ArialMT-2e" transform="translate(127.783203 0)"/>
     <use xlink:href="#ArialMT-20" transform="translate(155.566406 0)"/>
     <use xlink:href="#ArialMT-32" transform="translate(183.349609 0)"/>
     <use xlink:href="#ArialMT-30" transform="translate(238.964844 0)"/>
     <use xlink:href="#ArialMT-20" transform="translate(294.580078 0)"/>
     <use xlink:href="#ArialMT-2d" transform="translate(322.363281 0)"/>
     <use xlink:href="#ArialMT-20" transform="translate(355.664062 0)"/>
     <use xlink:href="#ArialMT-50" transform="translate(383.447266 0)"/>
     <use xlink:href="#ArialMT-6f" transform="translate(450.146484 0)"/>
     <use xlink:href="#ArialMT-72" transform="translate(505.761719 0)"/>
     <use xlink:href="#ArialMT-74" transform="translate(539.0625 0)"/>
     <use xlink:href="#ArialMT-61" transform="translate(566.845703 0)"/>
     <use xlink:href="#ArialMT-62" transform="translate(622.460938 0)"/>
     <use xlink:href="#ArialMT-69" transform="translate(678.076172 0)"/>
     <use xlink:href="#ArialMT-6c" transform="translate(700.292969 0)"/>
     <use xlink:href="#ArialMT-69" transform="translate(722.509766 0)"/>
     <use xlink:href="#ArialMT-74" transform="translate(744.726562 0)"/>
     <use xlink:href="#ArialMT-e0" transform="translate(772.509766 0)"/>
    </g>
   </g>
  </g>
 </g>
 <defs>
  <clipPath id="p54c9bda42e">
   <rect x="7.2" y="7.2" width="1405.44" height="829.44"/>
  </clipPath>
 </defs>
</svg>
