<?xml version="1.0" encoding="utf-8" standalone="no"?>
<!DOCTYPE svg PUBLIC "-//W3C//DTD SVG 1.1//EN"
  "http://www.w3.org/Graphics/SVG/1.1/DTD/svg11.dtd">
<svg xmlns:xlink="http://www.w3.org/1999/xlink" width="1406.98691pt" height="987.84pt" viewBox="0 0 1406.98691 987.84" xmlns="http://www.w3.org/2000/svg" version="1.1">
 <metadata>
  <rdf:RDF xmlns:dc="http://purl.org/dc/elements/1.1/" xmlns:cc="http://creativecommons.org/ns#" xmlns:rdf="http://www.w3.org/1999/02/22-rdf-syntax-ns#">
   <cc:Work>
    <dc:type rdf:resource="http://purl.org/dc/dcmitype/StillImage"/>
    <dc:date>2025-09-19T01:25:02.246730</dc:date>
    <dc:format>image/svg+xml</dc:format>
    <dc:creator>
     <cc:Agent>
      <dc:title>Matplotlib v3.10.6, https://matplotlib.org/</dc:title>
     </cc:Agent>
    </dc:creator>
   </cc:Work>
  </rdf:RDF>
 </metadata>
 <defs>
  <style type="text/css">*{stroke-linejoin: round; stroke-linecap: butt}</style>
 </defs>
 <g id="figure_1">
  <g id="patch_1">
   <path d="M -0 987.84 
L 1406.98691 987.84 
L 1406.98691 0 
L -0 0 
z
" style="fill: #ffffff"/>
  </g>
  <g id="axes_1">
   <g id="patch_2">
    <path d="M 198.260915 319.512 
L 494.527599 319.512 
Q 501.111303 319.512 501.111303 311.4 
L 501.111303 189.72 
Q 501.111303 181.608 494.527599 181.608 
L 198.260915 181.608 
Q 191.677211 181.608 191.677211 189.72 
L 191.677211 311.4 
Q 191.677211 319.512 198.260915 319.512 
z
" clip-path="url(#p9c9993c118)" style="fill: #f57c00; opacity: 0.9; stroke: #212121; stroke-width: 3; stroke-linejoin: miter"/>
   </g>
   <g id="patch_3">
    <path d="M 527.446119 319.512 
L 823.712803 319.512 
Q 830.296507 319.512 830.296507 311.4 
L 830.296507 189.72 
Q 830.296507 181.608 823.712803 181.608 
L 527.446119 181.608 
Q 520.862415 181.608 520.862415 189.72 
L 520.862415 311.4 
Q 520.862415 319.512 527.446119 319.512 
z
" clip-path="url(#p9c9993c118)" style="fill: #f57c00; opacity: 0.9; stroke: #212121; stroke-width: 3; stroke-linejoin: miter"/>
   </g>
   <g id="patch_4">
    <path d="M 856.631323 319.512 
L 1152.898007 319.512 
Q 1159.481711 319.512 1159.481711 311.4 
L 1159.481711 189.72 
Q 1159.481711 181.608 1152.898007 181.608 
L 856.631323 181.608 
Q 850.047619 181.608 850.047619 189.72 
L 850.047619 311.4 
Q 850.047619 319.512 856.631323 319.512 
z
" clip-path="url(#p9c9993c118)" style="fill: #f57c00; opacity: 0.9; stroke: #212121; stroke-width: 3; stroke-linejoin: miter"/>
   </g>
   <g id="patch_5">
    <path d="M 297.016476 562.872 
L 593.28316 562.872 
Q 599.866864 562.872 599.866864 554.76 
L 599.866864 433.08 
Q 599.866864 424.968 593.28316 424.968 
L 297.016476 424.968 
Q 290.432772 424.968 290.432772 433.08 
L 290.432772 554.76 
Q 290.432772 562.872 297.016476 562.872 
z
" clip-path="url(#p9c9993c118)" style="fill: #0288d1; opacity: 0.9; stroke: #212121; stroke-width: 3; stroke-linejoin: miter"/>
   </g>
   <g id="patch_6">
    <path d="M 527.446119 562.872 
L 823.712803 562.872 
Q 830.296507 562.872 830.296507 554.76 
L 830.296507 433.08 
Q 830.296507 424.968 823.712803 424.968 
L 527.446119 424.968 
Q 520.862415 424.968 520.862415 433.08 
L 520.862415 554.76 
Q 520.862415 562.872 527.446119 562.872 
z
" clip-path="url(#p9c9993c118)" style="fill: #0288d1; opacity: 0.9; stroke: #212121; stroke-width: 3; stroke-linejoin: miter"/>
   </g>
   <g id="patch_7">
    <path d="M 757.875762 562.872 
L 1054.142446 562.872 
Q 1060.72615 562.872 1060.72615 554.76 
L 1060.72615 433.08 
Q 1060.72615 424.968 1054.142446 424.968 
L 757.875762 424.968 
Q 751.292058 424.968 751.292058 433.08 
L 751.292058 554.76 
Q 751.292058 562.872 757.875762 562.872 
z
" clip-path="url(#p9c9993c118)" style="fill: #0288d1; opacity: 0.9; stroke: #212121; stroke-width: 3; stroke-linejoin: miter"/>
   </g>
   <g id="patch_8">
    <path d="M 152.174987 806.232 
L 408.939446 806.232 
Q 415.52315 806.232 415.52315 798.12 
L 415.52315 676.44 
Q 415.52315 668.328 408.939446 668.328 
L 152.174987 668.328 
Q 145.591283 668.328 145.591283 676.44 
L 145.591283 798.12 
Q 145.591283 806.232 152.174987 806.232 
z
" clip-path="url(#p9c9993c118)" style="fill: #2e7d32; opacity: 0.9; stroke: #212121; stroke-width: 3; stroke-linejoin: miter"/>
   </g>
   <g id="patch_9">
    <path d="M 382.604629 806.232 
L 639.369089 806.232 
Q 645.952793 806.232 645.952793 798.12 
L 645.952793 676.44 
Q 645.952793 668.328 639.369089 668.328 
L 382.604629 668.328 
Q 376.020925 668.328 376.020925 676.44 
L 376.020925 798.12 
Q 376.020925 806.232 382.604629 806.232 
z
" clip-path="url(#p9c9993c118)" style="fill: #2e7d32; opacity: 0.9; stroke: #212121; stroke-width: 3; stroke-linejoin: miter"/>
   </g>
   <g id="patch_10">
    <path d="M 613.034272 806.232 
L 869.798732 806.232 
Q 876.382436 806.232 876.382436 798.12 
L 876.382436 676.44 
Q 876.382436 668.328 869.798732 668.328 
L 613.034272 668.328 
Q 606.450568 668.328 606.450568 676.44 
L 606.450568 798.12 
Q 606.450568 806.232 613.034272 806.232 
z
" clip-path="url(#p9c9993c118)" style="fill: #2e7d32; opacity: 0.9; stroke: #212121; stroke-width: 3; stroke-linejoin: miter"/>
   </g>
   <g id="patch_11">
    <path d="M 843.463915 806.232 
L 1100.228374 806.232 
Q 1106.812078 806.232 1106.812078 798.12 
L 1106.812078 676.44 
Q 1106.812078 668.328 1100.228374 668.328 
L 843.463915 668.328 
Q 836.880211 668.328 836.880211 676.44 
L 836.880211 798.12 
Q 836.880211 806.232 843.463915 806.232 
z
" clip-path="url(#p9c9993c118)" style="fill: #2e7d32; opacity: 0.9; stroke: #212121; stroke-width: 3; stroke-linejoin: miter"/>
   </g>
   <g id="patch_12">
    <path d="M 1073.893558 806.232 
L 1330.658017 806.232 
Q 1337.241721 806.232 1337.241721 798.12 
L 1337.241721 676.44 
Q 1337.241721 668.328 1330.658017 668.328 
L 1073.893558 668.328 
Q 1067.309854 668.328 1067.309854 676.44 
L 1067.309854 798.12 
Q 1067.309854 806.232 1073.893558 806.232 
z
" clip-path="url(#p9c9993c118)" style="fill: #2e7d32; opacity: 0.9; stroke: #212121; stroke-width: 3; stroke-linejoin: miter"/>
   </g>
   <g id="text_1">
    <!-- Dashboard -->
    <g style="fill: #ffffff" transform="translate(299.388945 245.719406) scale(0.18 -0.18)">
     <defs>
      <path id="Arial-BoldMT-44" d="M 463 4581 
L 2153 4581 
Q 2725 4581 3025 4494 
Q 3428 4375 3715 4072 
Q 4003 3769 4153 3330 
Q 4303 2891 4303 2247 
Q 4303 1681 4163 1272 
Q 3991 772 3672 463 
Q 3431 228 3022 97 
Q 2716 0 2203 0 
L 463 0 
L 463 4581 
z
M 1388 3806 
L 1388 772 
L 2078 772 
Q 2466 772 2638 816 
Q 2863 872 3011 1006 
Q 3159 1141 3253 1448 
Q 3347 1756 3347 2288 
Q 3347 2819 3253 3103 
Q 3159 3388 2990 3547 
Q 2822 3706 2563 3763 
Q 2369 3806 1803 3806 
L 1388 3806 
z
" transform="scale(0.015625)"/>
      <path id="Arial-BoldMT-61" d="M 1116 2306 
L 319 2450 
Q 453 2931 781 3162 
Q 1109 3394 1756 3394 
Q 2344 3394 2631 3255 
Q 2919 3116 3036 2902 
Q 3153 2688 3153 2116 
L 3144 1091 
Q 3144 653 3186 445 
Q 3228 238 3344 0 
L 2475 0 
Q 2441 88 2391 259 
Q 2369 338 2359 363 
Q 2134 144 1878 34 
Q 1622 -75 1331 -75 
Q 819 -75 523 203 
Q 228 481 228 906 
Q 228 1188 362 1408 
Q 497 1628 739 1745 
Q 981 1863 1438 1950 
Q 2053 2066 2291 2166 
L 2291 2253 
Q 2291 2506 2166 2614 
Q 2041 2722 1694 2722 
Q 1459 2722 1328 2630 
Q 1197 2538 1116 2306 
z
M 2291 1594 
Q 2122 1538 1756 1459 
Q 1391 1381 1278 1306 
Q 1106 1184 1106 997 
Q 1106 813 1243 678 
Q 1381 544 1594 544 
Q 1831 544 2047 700 
Q 2206 819 2256 991 
Q 2291 1103 2291 1419 
L 2291 1594 
z
" transform="scale(0.015625)"/>
      <path id="Arial-BoldMT-73" d="M 150 947 
L 1031 1081 
Q 1088 825 1259 692 
Q 1431 559 1741 559 
Q 2081 559 2253 684 
Q 2369 772 2369 919 
Q 2369 1019 2306 1084 
Q 2241 1147 2013 1200 
Q 950 1434 666 1628 
Q 272 1897 272 2375 
Q 272 2806 612 3100 
Q 953 3394 1669 3394 
Q 2350 3394 2681 3172 
Q 3013 2950 3138 2516 
L 2309 2363 
Q 2256 2556 2107 2659 
Q 1959 2763 1684 2763 
Q 1338 2763 1188 2666 
Q 1088 2597 1088 2488 
Q 1088 2394 1175 2328 
Q 1294 2241 1995 2081 
Q 2697 1922 2975 1691 
Q 3250 1456 3250 1038 
Q 3250 581 2869 253 
Q 2488 -75 1741 -75 
Q 1063 -75 667 200 
Q 272 475 150 947 
z
" transform="scale(0.015625)"/>
      <path id="Arial-BoldMT-68" d="M 1334 4581 
L 1334 2897 
Q 1759 3394 2350 3394 
Q 2653 3394 2897 3281 
Q 3141 3169 3264 2994 
Q 3388 2819 3433 2606 
Q 3478 2394 3478 1947 
L 3478 0 
L 2600 0 
L 2600 1753 
Q 2600 2275 2550 2415 
Q 2500 2556 2373 2639 
Q 2247 2722 2056 2722 
Q 1838 2722 1666 2615 
Q 1494 2509 1414 2295 
Q 1334 2081 1334 1663 
L 1334 0 
L 456 0 
L 456 4581 
L 1334 4581 
z
" transform="scale(0.015625)"/>
      <path id="Arial-BoldMT-62" d="M 422 0 
L 422 4581 
L 1300 4581 
L 1300 2931 
Q 1706 3394 2263 3394 
Q 2869 3394 3266 2955 
Q 3663 2516 3663 1694 
Q 3663 844 3258 384 
Q 2853 -75 2275 -75 
Q 1991 -75 1714 67 
Q 1438 209 1238 488 
L 1238 0 
L 422 0 
z
M 1294 1731 
Q 1294 1216 1456 969 
Q 1684 619 2063 619 
Q 2353 619 2558 867 
Q 2763 1116 2763 1650 
Q 2763 2219 2556 2470 
Q 2350 2722 2028 2722 
Q 1713 2722 1503 2476 
Q 1294 2231 1294 1731 
z
" transform="scale(0.015625)"/>
      <path id="Arial-BoldMT-6f" d="M 256 1706 
Q 256 2144 472 2553 
Q 688 2963 1083 3178 
Q 1478 3394 1966 3394 
Q 2719 3394 3200 2905 
Q 3681 2416 3681 1669 
Q 3681 916 3195 420 
Q 2709 -75 1972 -75 
Q 1516 -75 1102 131 
Q 688 338 472 736 
Q 256 1134 256 1706 
z
M 1156 1659 
Q 1156 1166 1390 903 
Q 1625 641 1969 641 
Q 2313 641 2545 903 
Q 2778 1166 2778 1666 
Q 2778 2153 2545 2415 
Q 2313 2678 1969 2678 
Q 1625 2678 1390 2415 
Q 1156 2153 1156 1659 
z
" transform="scale(0.015625)"/>
      <path id="Arial-BoldMT-72" d="M 1300 0 
L 422 0 
L 422 3319 
L 1238 3319 
L 1238 2847 
Q 1447 3181 1614 3287 
Q 1781 3394 1994 3394 
Q 2294 3394 2572 3228 
L 2300 2463 
Q 2078 2606 1888 2606 
Q 1703 2606 1575 2504 
Q 1447 2403 1373 2137 
Q 1300 1872 1300 1025 
L 1300 0 
z
" transform="scale(0.015625)"/>
      <path id="Arial-BoldMT-64" d="M 3503 0 
L 2688 0 
L 2688 488 
Q 2484 203 2207 64 
Q 1931 -75 1650 -75 
Q 1078 -75 670 386 
Q 263 847 263 1672 
Q 263 2516 659 2955 
Q 1056 3394 1663 3394 
Q 2219 3394 2625 2931 
L 2625 4581 
L 3503 4581 
L 3503 0 
z
M 1159 1731 
Q 1159 1200 1306 963 
Q 1519 619 1900 619 
Q 2203 619 2415 876 
Q 2628 1134 2628 1647 
Q 2628 2219 2422 2470 
Q 2216 2722 1894 2722 
Q 1581 2722 1370 2473 
Q 1159 2225 1159 1731 
z
" transform="scale(0.015625)"/>
     </defs>
     <use xlink:href="#Arial-BoldMT-44"/>
     <use xlink:href="#Arial-BoldMT-61" transform="translate(72.216797 0)"/>
     <use xlink:href="#Arial-BoldMT-73" transform="translate(127.832031 0)"/>
     <use xlink:href="#Arial-BoldMT-68" transform="translate(183.447266 0)"/>
     <use xlink:href="#Arial-BoldMT-62" transform="translate(244.53125 0)"/>
     <use xlink:href="#Arial-BoldMT-6f" transform="translate(305.615234 0)"/>
     <use xlink:href="#Arial-BoldMT-61" transform="translate(366.699219 0)"/>
     <use xlink:href="#Arial-BoldMT-72" transform="translate(422.314453 0)"/>
     <use xlink:href="#Arial-BoldMT-64" transform="translate(461.230469 0)"/>
    </g>
    <!-- Esecutiva -->
    <g style="fill: #ffffff" transform="translate(304.372695 264.732469) scale(0.18 -0.18)">
     <defs>
      <path id="Arial-BoldMT-45" d="M 466 0 
L 466 4581 
L 3863 4581 
L 3863 3806 
L 1391 3806 
L 1391 2791 
L 3691 2791 
L 3691 2019 
L 1391 2019 
L 1391 772 
L 3950 772 
L 3950 0 
L 466 0 
z
" transform="scale(0.015625)"/>
      <path id="Arial-BoldMT-65" d="M 2381 1056 
L 3256 909 
Q 3088 428 2723 176 
Q 2359 -75 1813 -75 
Q 947 -75 531 491 
Q 203 944 203 1634 
Q 203 2459 634 2926 
Q 1066 3394 1725 3394 
Q 2466 3394 2894 2905 
Q 3322 2416 3303 1406 
L 1103 1406 
Q 1113 1016 1316 798 
Q 1519 581 1822 581 
Q 2028 581 2168 693 
Q 2309 806 2381 1056 
z
M 2431 1944 
Q 2422 2325 2234 2523 
Q 2047 2722 1778 2722 
Q 1491 2722 1303 2513 
Q 1116 2303 1119 1944 
L 2431 1944 
z
" transform="scale(0.015625)"/>
      <path id="Arial-BoldMT-63" d="M 3353 2338 
L 2488 2181 
Q 2444 2441 2289 2572 
Q 2134 2703 1888 2703 
Q 1559 2703 1364 2476 
Q 1169 2250 1169 1719 
Q 1169 1128 1367 884 
Q 1566 641 1900 641 
Q 2150 641 2309 783 
Q 2469 925 2534 1272 
L 3397 1125 
Q 3263 531 2881 228 
Q 2500 -75 1859 -75 
Q 1131 -75 698 384 
Q 266 844 266 1656 
Q 266 2478 700 2936 
Q 1134 3394 1875 3394 
Q 2481 3394 2839 3133 
Q 3197 2872 3353 2338 
z
" transform="scale(0.015625)"/>
      <path id="Arial-BoldMT-75" d="M 2644 0 
L 2644 497 
Q 2463 231 2167 78 
Q 1872 -75 1544 -75 
Q 1209 -75 943 72 
Q 678 219 559 484 
Q 441 750 441 1219 
L 441 3319 
L 1319 3319 
L 1319 1794 
Q 1319 1094 1367 936 
Q 1416 778 1544 686 
Q 1672 594 1869 594 
Q 2094 594 2272 717 
Q 2450 841 2515 1023 
Q 2581 1206 2581 1919 
L 2581 3319 
L 3459 3319 
L 3459 0 
L 2644 0 
z
" transform="scale(0.015625)"/>
      <path id="Arial-BoldMT-74" d="M 1981 3319 
L 1981 2619 
L 1381 2619 
L 1381 1281 
Q 1381 875 1398 808 
Q 1416 741 1477 697 
Q 1538 653 1625 653 
Q 1747 653 1978 738 
L 2053 56 
Q 1747 -75 1359 -75 
Q 1122 -75 931 4 
Q 741 84 652 211 
Q 563 338 528 553 
Q 500 706 500 1172 
L 500 2619 
L 97 2619 
L 97 3319 
L 500 3319 
L 500 3978 
L 1381 4491 
L 1381 3319 
L 1981 3319 
z
" transform="scale(0.015625)"/>
      <path id="Arial-BoldMT-69" d="M 459 3769 
L 459 4581 
L 1338 4581 
L 1338 3769 
L 459 3769 
z
M 459 0 
L 459 3319 
L 1338 3319 
L 1338 0 
L 459 0 
z
" transform="scale(0.015625)"/>
      <path id="Arial-BoldMT-76" d="M 1372 0 
L 34 3319 
L 956 3319 
L 1581 1625 
L 1763 1059 
Q 1834 1275 1853 1344 
Q 1897 1484 1947 1625 
L 2578 3319 
L 3481 3319 
L 2163 0 
L 1372 0 
z
" transform="scale(0.015625)"/>
     </defs>
     <use xlink:href="#Arial-BoldMT-45"/>
     <use xlink:href="#Arial-BoldMT-73" transform="translate(66.699219 0)"/>
     <use xlink:href="#Arial-BoldMT-65" transform="translate(122.314453 0)"/>
     <use xlink:href="#Arial-BoldMT-63" transform="translate(177.929688 0)"/>
     <use xlink:href="#Arial-BoldMT-75" transform="translate(233.544922 0)"/>
     <use xlink:href="#Arial-BoldMT-74" transform="translate(294.628906 0)"/>
     <use xlink:href="#Arial-BoldMT-69" transform="translate(327.929688 0)"/>
     <use xlink:href="#Arial-BoldMT-76" transform="translate(355.712891 0)"/>
     <use xlink:href="#Arial-BoldMT-61" transform="translate(411.328125 0)"/>
    </g>
   </g>
   <g id="text_2">
    <!-- Console -->
    <g style="fill: #ffffff" transform="translate(640.07868 245.587781) scale(0.18 -0.18)">
     <defs>
      <path id="Arial-BoldMT-43" d="M 3397 1684 
L 4294 1400 
Q 4088 650 3608 286 
Q 3128 -78 2391 -78 
Q 1478 -78 890 545 
Q 303 1169 303 2250 
Q 303 3394 893 4026 
Q 1484 4659 2447 4659 
Q 3288 4659 3813 4163 
Q 4125 3869 4281 3319 
L 3366 3100 
Q 3284 3456 3026 3662 
Q 2769 3869 2400 3869 
Q 1891 3869 1573 3503 
Q 1256 3138 1256 2319 
Q 1256 1450 1568 1081 
Q 1881 713 2381 713 
Q 2750 713 3015 947 
Q 3281 1181 3397 1684 
z
" transform="scale(0.015625)"/>
      <path id="Arial-BoldMT-6e" d="M 3478 0 
L 2600 0 
L 2600 1694 
Q 2600 2231 2544 2389 
Q 2488 2547 2361 2634 
Q 2234 2722 2056 2722 
Q 1828 2722 1647 2597 
Q 1466 2472 1398 2265 
Q 1331 2059 1331 1503 
L 1331 0 
L 453 0 
L 453 3319 
L 1269 3319 
L 1269 2831 
Q 1703 3394 2363 3394 
Q 2653 3394 2893 3289 
Q 3134 3184 3257 3021 
Q 3381 2859 3429 2653 
Q 3478 2447 3478 2063 
L 3478 0 
z
" transform="scale(0.015625)"/>
      <path id="Arial-BoldMT-6c" d="M 459 0 
L 459 4581 
L 1338 4581 
L 1338 0 
L 459 0 
z
" transform="scale(0.015625)"/>
     </defs>
     <use xlink:href="#Arial-BoldMT-43"/>
     <use xlink:href="#Arial-BoldMT-6f" transform="translate(72.216797 0)"/>
     <use xlink:href="#Arial-BoldMT-6e" transform="translate(133.300781 0)"/>
     <use xlink:href="#Arial-BoldMT-73" transform="translate(194.384766 0)"/>
     <use xlink:href="#Arial-BoldMT-6f" transform="translate(250 0)"/>
     <use xlink:href="#Arial-BoldMT-6c" transform="translate(311.083984 0)"/>
     <use xlink:href="#Arial-BoldMT-65" transform="translate(338.867188 0)"/>
    </g>
    <!-- Operativa -->
    <g style="fill: #ffffff" transform="translate(634.062742 264.864094) scale(0.18 -0.18)">
     <defs>
      <path id="Arial-BoldMT-4f" d="M 278 2263 
Q 278 2963 488 3438 
Q 644 3788 914 4066 
Q 1184 4344 1506 4478 
Q 1934 4659 2494 4659 
Q 3506 4659 4114 4031 
Q 4722 3403 4722 2284 
Q 4722 1175 4119 548 
Q 3516 -78 2506 -78 
Q 1484 -78 881 545 
Q 278 1169 278 2263 
z
M 1231 2294 
Q 1231 1516 1590 1114 
Q 1950 713 2503 713 
Q 3056 713 3411 1111 
Q 3766 1509 3766 2306 
Q 3766 3094 3420 3481 
Q 3075 3869 2503 3869 
Q 1931 3869 1581 3476 
Q 1231 3084 1231 2294 
z
" transform="scale(0.015625)"/>
      <path id="Arial-BoldMT-70" d="M 434 3319 
L 1253 3319 
L 1253 2831 
Q 1413 3081 1684 3237 
Q 1956 3394 2288 3394 
Q 2866 3394 3269 2941 
Q 3672 2488 3672 1678 
Q 3672 847 3265 386 
Q 2859 -75 2281 -75 
Q 2006 -75 1782 34 
Q 1559 144 1313 409 
L 1313 -1263 
L 434 -1263 
L 434 3319 
z
M 1303 1716 
Q 1303 1156 1525 889 
Q 1747 622 2066 622 
Q 2372 622 2575 867 
Q 2778 1113 2778 1672 
Q 2778 2194 2568 2447 
Q 2359 2700 2050 2700 
Q 1728 2700 1515 2451 
Q 1303 2203 1303 1716 
z
" transform="scale(0.015625)"/>
     </defs>
     <use xlink:href="#Arial-BoldMT-4f"/>
     <use xlink:href="#Arial-BoldMT-70" transform="translate(77.783203 0)"/>
     <use xlink:href="#Arial-BoldMT-65" transform="translate(138.867188 0)"/>
     <use xlink:href="#Arial-BoldMT-72" transform="translate(194.482422 0)"/>
     <use xlink:href="#Arial-BoldMT-61" transform="translate(233.398438 0)"/>
     <use xlink:href="#Arial-BoldMT-74" transform="translate(289.013672 0)"/>
     <use xlink:href="#Arial-BoldMT-69" transform="translate(322.314453 0)"/>
     <use xlink:href="#Arial-BoldMT-76" transform="translate(350.097656 0)"/>
     <use xlink:href="#Arial-BoldMT-61" transform="translate(405.712891 0)"/>
    </g>
   </g>
   <g id="text_3">
    <!-- Sistema -->
    <g style="fill: #ffffff" transform="translate(970.246853 245.601281) scale(0.18 -0.18)">
     <defs>
      <path id="Arial-BoldMT-53" d="M 231 1491 
L 1131 1578 
Q 1213 1125 1461 912 
Q 1709 700 2131 700 
Q 2578 700 2804 889 
Q 3031 1078 3031 1331 
Q 3031 1494 2936 1608 
Q 2841 1722 2603 1806 
Q 2441 1863 1863 2006 
Q 1119 2191 819 2459 
Q 397 2838 397 3381 
Q 397 3731 595 4036 
Q 794 4341 1167 4500 
Q 1541 4659 2069 4659 
Q 2931 4659 3367 4281 
Q 3803 3903 3825 3272 
L 2900 3231 
Q 2841 3584 2645 3739 
Q 2450 3894 2059 3894 
Q 1656 3894 1428 3728 
Q 1281 3622 1281 3444 
Q 1281 3281 1419 3166 
Q 1594 3019 2269 2859 
Q 2944 2700 3267 2529 
Q 3591 2359 3773 2064 
Q 3956 1769 3956 1334 
Q 3956 941 3737 597 
Q 3519 253 3119 86 
Q 2719 -81 2122 -81 
Q 1253 -81 787 320 
Q 322 722 231 1491 
z
" transform="scale(0.015625)"/>
      <path id="Arial-BoldMT-6d" d="M 394 3319 
L 1203 3319 
L 1203 2866 
Q 1638 3394 2238 3394 
Q 2556 3394 2790 3262 
Q 3025 3131 3175 2866 
Q 3394 3131 3647 3262 
Q 3900 3394 4188 3394 
Q 4553 3394 4806 3245 
Q 5059 3097 5184 2809 
Q 5275 2597 5275 2122 
L 5275 0 
L 4397 0 
L 4397 1897 
Q 4397 2391 4306 2534 
Q 4184 2722 3931 2722 
Q 3747 2722 3584 2609 
Q 3422 2497 3350 2280 
Q 3278 2063 3278 1594 
L 3278 0 
L 2400 0 
L 2400 1819 
Q 2400 2303 2353 2443 
Q 2306 2584 2207 2653 
Q 2109 2722 1941 2722 
Q 1738 2722 1575 2612 
Q 1413 2503 1342 2297 
Q 1272 2091 1272 1613 
L 1272 0 
L 394 0 
L 394 3319 
z
" transform="scale(0.015625)"/>
     </defs>
     <use xlink:href="#Arial-BoldMT-53"/>
     <use xlink:href="#Arial-BoldMT-69" transform="translate(66.699219 0)"/>
     <use xlink:href="#Arial-BoldMT-73" transform="translate(94.482422 0)"/>
     <use xlink:href="#Arial-BoldMT-74" transform="translate(150.097656 0)"/>
     <use xlink:href="#Arial-BoldMT-65" transform="translate(183.398438 0)"/>
     <use xlink:href="#Arial-BoldMT-6d" transform="translate(239.013672 0)"/>
     <use xlink:href="#Arial-BoldMT-61" transform="translate(327.929688 0)"/>
    </g>
    <!-- Reporting -->
    <g style="fill: #ffffff" transform="translate(962.272009 264.614344) scale(0.18 -0.18)">
     <defs>
      <path id="Arial-BoldMT-52" d="M 469 0 
L 469 4581 
L 2416 4581 
Q 3150 4581 3483 4457 
Q 3816 4334 4016 4018 
Q 4216 3703 4216 3297 
Q 4216 2781 3912 2445 
Q 3609 2109 3006 2022 
Q 3306 1847 3501 1637 
Q 3697 1428 4028 894 
L 4588 0 
L 3481 0 
L 2813 997 
Q 2456 1531 2325 1670 
Q 2194 1809 2047 1861 
Q 1900 1913 1581 1913 
L 1394 1913 
L 1394 0 
L 469 0 
z
M 1394 2644 
L 2078 2644 
Q 2744 2644 2909 2700 
Q 3075 2756 3169 2893 
Q 3263 3031 3263 3238 
Q 3263 3469 3139 3611 
Q 3016 3753 2791 3791 
Q 2678 3806 2116 3806 
L 1394 3806 
L 1394 2644 
z
" transform="scale(0.015625)"/>
      <path id="Arial-BoldMT-67" d="M 378 -219 
L 1381 -341 
Q 1406 -516 1497 -581 
Q 1622 -675 1891 -675 
Q 2234 -675 2406 -572 
Q 2522 -503 2581 -350 
Q 2622 -241 2622 53 
L 2622 538 
Q 2228 0 1628 0 
Q 959 0 569 566 
Q 263 1013 263 1678 
Q 263 2513 664 2953 
Q 1066 3394 1663 3394 
Q 2278 3394 2678 2853 
L 2678 3319 
L 3500 3319 
L 3500 341 
Q 3500 -247 3403 -537 
Q 3306 -828 3131 -993 
Q 2956 -1159 2664 -1253 
Q 2372 -1347 1925 -1347 
Q 1081 -1347 728 -1058 
Q 375 -769 375 -325 
Q 375 -281 378 -219 
z
M 1163 1728 
Q 1163 1200 1367 954 
Q 1572 709 1872 709 
Q 2194 709 2416 961 
Q 2638 1213 2638 1706 
Q 2638 2222 2425 2472 
Q 2213 2722 1888 2722 
Q 1572 2722 1367 2476 
Q 1163 2231 1163 1728 
z
" transform="scale(0.015625)"/>
     </defs>
     <use xlink:href="#Arial-BoldMT-52"/>
     <use xlink:href="#Arial-BoldMT-65" transform="translate(72.216797 0)"/>
     <use xlink:href="#Arial-BoldMT-70" transform="translate(127.832031 0)"/>
     <use xlink:href="#Arial-BoldMT-6f" transform="translate(188.916016 0)"/>
     <use xlink:href="#Arial-BoldMT-72" transform="translate(250 0)"/>
     <use xlink:href="#Arial-BoldMT-74" transform="translate(288.916016 0)"/>
     <use xlink:href="#Arial-BoldMT-69" transform="translate(322.216797 0)"/>
     <use xlink:href="#Arial-BoldMT-6e" transform="translate(350 0)"/>
     <use xlink:href="#Arial-BoldMT-67" transform="translate(411.083984 0)"/>
    </g>
   </g>
   <g id="text_4">
    <!-- Motore -->
    <g style="fill: #ffffff" transform="translate(415.154506 489.079406) scale(0.18 -0.18)">
     <defs>
      <path id="Arial-BoldMT-4d" d="M 453 0 
L 453 4581 
L 1838 4581 
L 2669 1456 
L 3491 4581 
L 4878 4581 
L 4878 0 
L 4019 0 
L 4019 3606 
L 3109 0 
L 2219 0 
L 1313 3606 
L 1313 0 
L 453 0 
z
" transform="scale(0.015625)"/>
     </defs>
     <use xlink:href="#Arial-BoldMT-4d"/>
     <use xlink:href="#Arial-BoldMT-6f" transform="translate(83.300781 0)"/>
     <use xlink:href="#Arial-BoldMT-74" transform="translate(144.384766 0)"/>
     <use xlink:href="#Arial-BoldMT-6f" transform="translate(177.685547 0)"/>
     <use xlink:href="#Arial-BoldMT-72" transform="translate(238.769531 0)"/>
     <use xlink:href="#Arial-BoldMT-65" transform="translate(277.685547 0)"/>
    </g>
    <!-- Correlazione -->
    <g style="fill: #ffffff" transform="translate(390.637943 508.092469) scale(0.18 -0.18)">
     <defs>
      <path id="Arial-BoldMT-7a" d="M 106 0 
L 106 684 
L 1350 2113 
Q 1656 2463 1803 2609 
Q 1650 2600 1400 2597 
L 228 2591 
L 228 3319 
L 2972 3319 
L 2972 2697 
L 1703 1234 
L 1256 750 
Q 1622 772 1709 772 
L 3069 772 
L 3069 0 
L 106 0 
z
" transform="scale(0.015625)"/>
     </defs>
     <use xlink:href="#Arial-BoldMT-43"/>
     <use xlink:href="#Arial-BoldMT-6f" transform="translate(72.216797 0)"/>
     <use xlink:href="#Arial-BoldMT-72" transform="translate(133.300781 0)"/>
     <use xlink:href="#Arial-BoldMT-72" transform="translate(172.216797 0)"/>
     <use xlink:href="#Arial-BoldMT-65" transform="translate(211.132812 0)"/>
     <use xlink:href="#Arial-BoldMT-6c" transform="translate(266.748047 0)"/>
     <use xlink:href="#Arial-BoldMT-61" transform="translate(294.53125 0)"/>
     <use xlink:href="#Arial-BoldMT-7a" transform="translate(350.146484 0)"/>
     <use xlink:href="#Arial-BoldMT-69" transform="translate(400.146484 0)"/>
     <use xlink:href="#Arial-BoldMT-6f" transform="translate(427.929688 0)"/>
     <use xlink:href="#Arial-BoldMT-6e" transform="translate(489.013672 0)"/>
     <use xlink:href="#Arial-BoldMT-65" transform="translate(550.097656 0)"/>
    </g>
   </g>
   <g id="text_5">
    <!-- Analisi -->
    <g style="fill: #ffffff" transform="translate(646.072117 489.079406) scale(0.18 -0.18)">
     <defs>
      <path id="Arial-BoldMT-41" d="M 4597 0 
L 3591 0 
L 3191 1041 
L 1359 1041 
L 981 0 
L 0 0 
L 1784 4581 
L 2763 4581 
L 4597 0 
z
M 2894 1813 
L 2263 3513 
L 1644 1813 
L 2894 1813 
z
" transform="scale(0.015625)"/>
     </defs>
     <use xlink:href="#Arial-BoldMT-41"/>
     <use xlink:href="#Arial-BoldMT-6e" transform="translate(72.216797 0)"/>
     <use xlink:href="#Arial-BoldMT-61" transform="translate(133.300781 0)"/>
     <use xlink:href="#Arial-BoldMT-6c" transform="translate(188.916016 0)"/>
     <use xlink:href="#Arial-BoldMT-69" transform="translate(216.699219 0)"/>
     <use xlink:href="#Arial-BoldMT-73" transform="translate(244.482422 0)"/>
     <use xlink:href="#Arial-BoldMT-69" transform="translate(300.097656 0)"/>
    </g>
    <!-- Rischio -->
    <g style="fill: #ffffff" transform="translate(643.075399 508.092469) scale(0.18 -0.18)">
     <use xlink:href="#Arial-BoldMT-52"/>
     <use xlink:href="#Arial-BoldMT-69" transform="translate(72.216797 0)"/>
     <use xlink:href="#Arial-BoldMT-73" transform="translate(100 0)"/>
     <use xlink:href="#Arial-BoldMT-63" transform="translate(155.615234 0)"/>
     <use xlink:href="#Arial-BoldMT-68" transform="translate(211.230469 0)"/>
     <use xlink:href="#Arial-BoldMT-69" transform="translate(272.314453 0)"/>
     <use xlink:href="#Arial-BoldMT-6f" transform="translate(300.097656 0)"/>
    </g>
   </g>
   <g id="text_6">
    <!-- Valutazione -->
    <g style="fill: #ffffff" transform="translate(856.497854 489.079406) scale(0.18 -0.18)">
     <defs>
      <path id="Arial-BoldMT-56" d="M 1634 0 
L -3 4581 
L 1000 4581 
L 2159 1191 
L 3281 4581 
L 4263 4581 
L 2622 0 
L 1634 0 
z
" transform="scale(0.015625)"/>
     </defs>
     <use xlink:href="#Arial-BoldMT-56"/>
     <use xlink:href="#Arial-BoldMT-61" transform="translate(61.199219 0)"/>
     <use xlink:href="#Arial-BoldMT-6c" transform="translate(116.814453 0)"/>
     <use xlink:href="#Arial-BoldMT-75" transform="translate(144.597656 0)"/>
     <use xlink:href="#Arial-BoldMT-74" transform="translate(205.681641 0)"/>
     <use xlink:href="#Arial-BoldMT-61" transform="translate(238.982422 0)"/>
     <use xlink:href="#Arial-BoldMT-7a" transform="translate(294.597656 0)"/>
     <use xlink:href="#Arial-BoldMT-69" transform="translate(344.597656 0)"/>
     <use xlink:href="#Arial-BoldMT-6f" transform="translate(372.380859 0)"/>
     <use xlink:href="#Arial-BoldMT-6e" transform="translate(433.464844 0)"/>
     <use xlink:href="#Arial-BoldMT-65" transform="translate(494.548828 0)"/>
    </g>
    <!-- Conformità -->
    <g style="fill: #ffffff" transform="translate(858.013791 508.092469) scale(0.18 -0.18)">
     <defs>
      <path id="Arial-BoldMT-66" d="M 75 3319 
L 563 3319 
L 563 3569 
Q 563 3988 652 4194 
Q 741 4400 980 4529 
Q 1219 4659 1584 4659 
Q 1959 4659 2319 4547 
L 2200 3934 
Q 1991 3984 1797 3984 
Q 1606 3984 1523 3895 
Q 1441 3806 1441 3553 
L 1441 3319 
L 2097 3319 
L 2097 2628 
L 1441 2628 
L 1441 0 
L 563 0 
L 563 2628 
L 75 2628 
L 75 3319 
z
" transform="scale(0.015625)"/>
      <path id="Arial-BoldMT-e0" d="M 1116 2306 
L 319 2450 
Q 453 2931 781 3162 
Q 1109 3394 1756 3394 
Q 2344 3394 2631 3255 
Q 2919 3116 3036 2902 
Q 3153 2688 3153 2116 
L 3144 1091 
Q 3144 653 3186 445 
Q 3228 238 3344 0 
L 2475 0 
Q 2441 88 2391 259 
Q 2369 338 2359 363 
Q 2134 144 1878 34 
Q 1622 -75 1331 -75 
Q 819 -75 523 203 
Q 228 481 228 906 
Q 228 1188 362 1408 
Q 497 1628 739 1745 
Q 981 1863 1438 1950 
Q 2053 2066 2291 2166 
L 2291 2253 
Q 2291 2506 2166 2614 
Q 2041 2722 1694 2722 
Q 1459 2722 1328 2630 
Q 1197 2538 1116 2306 
z
M 2291 1594 
Q 2122 1538 1756 1459 
Q 1391 1381 1278 1306 
Q 1106 1184 1106 997 
Q 1106 813 1243 678 
Q 1381 544 1594 544 
Q 1831 544 2047 700 
Q 2206 819 2256 991 
Q 2291 1103 2291 1419 
L 2291 1594 
z
M 2227 3725 
L 1674 3725 
L 811 4659 
L 1796 4659 
L 2227 3725 
z
" transform="scale(0.015625)"/>
     </defs>
     <use xlink:href="#Arial-BoldMT-43"/>
     <use xlink:href="#Arial-BoldMT-6f" transform="translate(72.216797 0)"/>
     <use xlink:href="#Arial-BoldMT-6e" transform="translate(133.300781 0)"/>
     <use xlink:href="#Arial-BoldMT-66" transform="translate(194.384766 0)"/>
     <use xlink:href="#Arial-BoldMT-6f" transform="translate(227.685547 0)"/>
     <use xlink:href="#Arial-BoldMT-72" transform="translate(288.769531 0)"/>
     <use xlink:href="#Arial-BoldMT-6d" transform="translate(327.685547 0)"/>
     <use xlink:href="#Arial-BoldMT-69" transform="translate(416.601562 0)"/>
     <use xlink:href="#Arial-BoldMT-74" transform="translate(444.384766 0)"/>
     <use xlink:href="#Arial-BoldMT-e0" transform="translate(477.685547 0)"/>
    </g>
   </g>
   <g id="text_7">
    <!-- Config -->
    <g style="fill: #ffffff" transform="translate(255.234716 732.86475) scale(0.16 -0.16)">
     <use xlink:href="#Arial-BoldMT-43"/>
     <use xlink:href="#Arial-BoldMT-6f" transform="translate(72.216797 0)"/>
     <use xlink:href="#Arial-BoldMT-6e" transform="translate(133.300781 0)"/>
     <use xlink:href="#Arial-BoldMT-66" transform="translate(194.384766 0)"/>
     <use xlink:href="#Arial-BoldMT-69" transform="translate(227.685547 0)"/>
     <use xlink:href="#Arial-BoldMT-67" transform="translate(255.46875 0)"/>
    </g>
    <!-- Mgmt -->
    <g style="fill: #ffffff" transform="translate(259.229716 749.97525) scale(0.16 -0.16)">
     <use xlink:href="#Arial-BoldMT-4d"/>
     <use xlink:href="#Arial-BoldMT-67" transform="translate(83.300781 0)"/>
     <use xlink:href="#Arial-BoldMT-6d" transform="translate(144.384766 0)"/>
     <use xlink:href="#Arial-BoldMT-74" transform="translate(233.300781 0)"/>
    </g>
   </g>
   <g id="text_8">
    <!-- SIEM -->
    <g style="fill: #ffffff" transform="translate(491.428109 732.87225) scale(0.16 -0.16)">
     <defs>
      <path id="Arial-BoldMT-49" d="M 438 0 
L 438 4581 
L 1363 4581 
L 1363 0 
L 438 0 
z
" transform="scale(0.015625)"/>
     </defs>
     <use xlink:href="#Arial-BoldMT-53"/>
     <use xlink:href="#Arial-BoldMT-49" transform="translate(66.699219 0)"/>
     <use xlink:href="#Arial-BoldMT-45" transform="translate(94.482422 0)"/>
     <use xlink:href="#Arial-BoldMT-4d" transform="translate(161.181641 0)"/>
    </g>
    <!-- Logs -->
    <g style="fill: #ffffff" transform="translate(491.879359 749.77275) scale(0.16 -0.16)">
     <defs>
      <path id="Arial-BoldMT-4c" d="M 491 0 
L 491 4544 
L 1416 4544 
L 1416 772 
L 3716 772 
L 3716 0 
L 491 0 
z
" transform="scale(0.015625)"/>
     </defs>
     <use xlink:href="#Arial-BoldMT-4c"/>
     <use xlink:href="#Arial-BoldMT-6f" transform="translate(61.083984 0)"/>
     <use xlink:href="#Arial-BoldMT-67" transform="translate(122.167969 0)"/>
     <use xlink:href="#Arial-BoldMT-73" transform="translate(183.251953 0)"/>
    </g>
   </g>
   <g id="text_9">
    <!-- Metriche -->
    <g style="fill: #ffffff" transform="translate(708.520252 732.97725) scale(0.16 -0.16)">
     <use xlink:href="#Arial-BoldMT-4d"/>
     <use xlink:href="#Arial-BoldMT-65" transform="translate(83.300781 0)"/>
     <use xlink:href="#Arial-BoldMT-74" transform="translate(138.916016 0)"/>
     <use xlink:href="#Arial-BoldMT-72" transform="translate(172.216797 0)"/>
     <use xlink:href="#Arial-BoldMT-69" transform="translate(211.132812 0)"/>
     <use xlink:href="#Arial-BoldMT-63" transform="translate(238.916016 0)"/>
     <use xlink:href="#Arial-BoldMT-68" transform="translate(294.53125 0)"/>
     <use xlink:href="#Arial-BoldMT-65" transform="translate(355.615234 0)"/>
    </g>
    <!-- KPI -->
    <g style="fill: #ffffff" transform="translate(728.080252 749.87775) scale(0.16 -0.16)">
     <defs>
      <path id="Arial-BoldMT-4b" d="M 478 0 
L 478 4581 
L 1403 4581 
L 1403 2547 
L 3272 4581 
L 4516 4581 
L 2791 2797 
L 4609 0 
L 3413 0 
L 2153 2150 
L 1403 1384 
L 1403 0 
L 478 0 
z
" transform="scale(0.015625)"/>
      <path id="Arial-BoldMT-50" d="M 466 0 
L 466 4581 
L 1950 4581 
Q 2794 4581 3050 4513 
Q 3444 4409 3709 4064 
Q 3975 3719 3975 3172 
Q 3975 2750 3822 2462 
Q 3669 2175 3433 2011 
Q 3197 1847 2953 1794 
Q 2622 1728 1994 1728 
L 1391 1728 
L 1391 0 
L 466 0 
z
M 1391 3806 
L 1391 2506 
L 1897 2506 
Q 2444 2506 2628 2578 
Q 2813 2650 2917 2803 
Q 3022 2956 3022 3159 
Q 3022 3409 2875 3571 
Q 2728 3734 2503 3775 
Q 2338 3806 1838 3806 
L 1391 3806 
z
" transform="scale(0.015625)"/>
     </defs>
     <use xlink:href="#Arial-BoldMT-4b"/>
     <use xlink:href="#Arial-BoldMT-50" transform="translate(72.216797 0)"/>
     <use xlink:href="#Arial-BoldMT-49" transform="translate(138.916016 0)"/>
    </g>
   </g>
   <g id="text_10">
    <!-- Threat -->
    <g style="fill: #ffffff" transform="translate(947.398645 732.97725) scale(0.16 -0.16)">
     <defs>
      <path id="Arial-BoldMT-54" d="M 1497 0 
L 1497 3806 
L 138 3806 
L 138 4581 
L 3778 4581 
L 3778 3806 
L 2422 3806 
L 2422 0 
L 1497 0 
z
" transform="scale(0.015625)"/>
     </defs>
     <use xlink:href="#Arial-BoldMT-54"/>
     <use xlink:href="#Arial-BoldMT-68" transform="translate(61.083984 0)"/>
     <use xlink:href="#Arial-BoldMT-72" transform="translate(122.167969 0)"/>
     <use xlink:href="#Arial-BoldMT-65" transform="translate(161.083984 0)"/>
     <use xlink:href="#Arial-BoldMT-61" transform="translate(216.699219 0)"/>
     <use xlink:href="#Arial-BoldMT-74" transform="translate(272.314453 0)"/>
    </g>
    <!-- Intel -->
    <g style="fill: #ffffff" transform="translate(955.402395 749.87775) scale(0.16 -0.16)">
     <use xlink:href="#Arial-BoldMT-49"/>
     <use xlink:href="#Arial-BoldMT-6e" transform="translate(27.783203 0)"/>
     <use xlink:href="#Arial-BoldMT-74" transform="translate(88.867188 0)"/>
     <use xlink:href="#Arial-BoldMT-65" transform="translate(122.167969 0)"/>
     <use xlink:href="#Arial-BoldMT-6c" transform="translate(177.783203 0)"/>
    </g>
   </g>
   <g id="text_11">
    <!-- Audit -->
    <g style="fill: #ffffff" transform="translate(1181.839538 732.97725) scale(0.16 -0.16)">
     <use xlink:href="#Arial-BoldMT-41"/>
     <use xlink:href="#Arial-BoldMT-75" transform="translate(72.216797 0)"/>
     <use xlink:href="#Arial-BoldMT-64" transform="translate(133.300781 0)"/>
     <use xlink:href="#Arial-BoldMT-69" transform="translate(194.384766 0)"/>
     <use xlink:href="#Arial-BoldMT-74" transform="translate(222.167969 0)"/>
    </g>
    <!-- Trail -->
    <g style="fill: #ffffff" transform="translate(1185.822038 749.87775) scale(0.16 -0.16)">
     <use xlink:href="#Arial-BoldMT-54"/>
     <use xlink:href="#Arial-BoldMT-72" transform="translate(55.583984 0)"/>
     <use xlink:href="#Arial-BoldMT-61" transform="translate(94.5 0)"/>
     <use xlink:href="#Arial-BoldMT-69" transform="translate(150.115234 0)"/>
     <use xlink:href="#Arial-BoldMT-6c" transform="translate(177.898438 0)"/>
    </g>
   </g>
   <g id="text_12">
    <!-- LIVELLO 3: -->
    <g style="fill: #f57c00" transform="translate(34.545937 245.719406) scale(0.18 -0.18)">
     <defs>
      <path id="Arial-BoldMT-20" transform="scale(0.015625)"/>
      <path id="Arial-BoldMT-33" d="M 241 1216 
L 1091 1319 
Q 1131 994 1309 822 
Q 1488 650 1741 650 
Q 2013 650 2198 856 
Q 2384 1063 2384 1413 
Q 2384 1744 2206 1937 
Q 2028 2131 1772 2131 
Q 1603 2131 1369 2066 
L 1466 2781 
Q 1822 2772 2009 2936 
Q 2197 3100 2197 3372 
Q 2197 3603 2059 3740 
Q 1922 3878 1694 3878 
Q 1469 3878 1309 3722 
Q 1150 3566 1116 3266 
L 306 3403 
Q 391 3819 561 4067 
Q 731 4316 1036 4458 
Q 1341 4600 1719 4600 
Q 2366 4600 2756 4188 
Q 3078 3850 3078 3425 
Q 3078 2822 2419 2463 
Q 2813 2378 3048 2084 
Q 3284 1791 3284 1375 
Q 3284 772 2843 347 
Q 2403 -78 1747 -78 
Q 1125 -78 715 280 
Q 306 638 241 1216 
z
" transform="scale(0.015625)"/>
      <path id="Arial-BoldMT-3a" d="M 628 2441 
L 628 3319 
L 1506 3319 
L 1506 2441 
L 628 2441 
z
M 628 0 
L 628 878 
L 1506 878 
L 1506 0 
L 628 0 
z
" transform="scale(0.015625)"/>
     </defs>
     <use xlink:href="#Arial-BoldMT-4c"/>
     <use xlink:href="#Arial-BoldMT-49" transform="translate(61.083984 0)"/>
     <use xlink:href="#Arial-BoldMT-56" transform="translate(88.867188 0)"/>
     <use xlink:href="#Arial-BoldMT-45" transform="translate(155.566406 0)"/>
     <use xlink:href="#Arial-BoldMT-4c" transform="translate(222.265625 0)"/>
     <use xlink:href="#Arial-BoldMT-4c" transform="translate(283.349609 0)"/>
     <use xlink:href="#Arial-BoldMT-4f" transform="translate(344.433594 0)"/>
     <use xlink:href="#Arial-BoldMT-20" transform="translate(422.216797 0)"/>
     <use xlink:href="#Arial-BoldMT-33" transform="translate(450 0)"/>
     <use xlink:href="#Arial-BoldMT-3a" transform="translate(505.615234 0)"/>
    </g>
    <!-- PRESENTAZIONE -->
    <g style="fill: #f57c00" transform="translate(7.2 264.732469) scale(0.18 -0.18)">
     <defs>
      <path id="Arial-BoldMT-4e" d="M 475 0 
L 475 4581 
L 1375 4581 
L 3250 1522 
L 3250 4581 
L 4109 4581 
L 4109 0 
L 3181 0 
L 1334 2988 
L 1334 0 
L 475 0 
z
" transform="scale(0.015625)"/>
      <path id="Arial-BoldMT-5a" d="M 69 0 
L 69 834 
L 2475 3806 
L 341 3806 
L 341 4581 
L 3694 4581 
L 3694 3863 
L 1184 772 
L 3791 772 
L 3791 0 
L 69 0 
z
" transform="scale(0.015625)"/>
     </defs>
     <use xlink:href="#Arial-BoldMT-50"/>
     <use xlink:href="#Arial-BoldMT-52" transform="translate(66.699219 0)"/>
     <use xlink:href="#Arial-BoldMT-45" transform="translate(138.916016 0)"/>
     <use xlink:href="#Arial-BoldMT-53" transform="translate(205.615234 0)"/>
     <use xlink:href="#Arial-BoldMT-45" transform="translate(272.314453 0)"/>
     <use xlink:href="#Arial-BoldMT-4e" transform="translate(339.013672 0)"/>
     <use xlink:href="#Arial-BoldMT-54" transform="translate(411.230469 0)"/>
     <use xlink:href="#Arial-BoldMT-41" transform="translate(464.939453 0)"/>
     <use xlink:href="#Arial-BoldMT-5a" transform="translate(537.15625 0)"/>
     <use xlink:href="#Arial-BoldMT-49" transform="translate(598.240234 0)"/>
     <use xlink:href="#Arial-BoldMT-4f" transform="translate(626.023438 0)"/>
     <use xlink:href="#Arial-BoldMT-4e" transform="translate(703.806641 0)"/>
     <use xlink:href="#Arial-BoldMT-45" transform="translate(776.023438 0)"/>
    </g>
   </g>
   <g id="text_13">
    <!-- LIVELLO 2: -->
    <g style="fill: #0288d1" transform="translate(34.545937 489.079406) scale(0.18 -0.18)">
     <defs>
      <path id="Arial-BoldMT-32" d="M 3238 816 
L 3238 0 
L 159 0 
Q 209 463 459 877 
Q 709 1291 1447 1975 
Q 2041 2528 2175 2725 
Q 2356 2997 2356 3263 
Q 2356 3556 2198 3714 
Q 2041 3872 1763 3872 
Q 1488 3872 1325 3706 
Q 1163 3541 1138 3156 
L 263 3244 
Q 341 3969 753 4284 
Q 1166 4600 1784 4600 
Q 2463 4600 2850 4234 
Q 3238 3869 3238 3325 
Q 3238 3016 3127 2736 
Q 3016 2456 2775 2150 
Q 2616 1947 2200 1565 
Q 1784 1184 1673 1059 
Q 1563 934 1494 816 
L 3238 816 
z
" transform="scale(0.015625)"/>
     </defs>
     <use xlink:href="#Arial-BoldMT-4c"/>
     <use xlink:href="#Arial-BoldMT-49" transform="translate(61.083984 0)"/>
     <use xlink:href="#Arial-BoldMT-56" transform="translate(88.867188 0)"/>
     <use xlink:href="#Arial-BoldMT-45" transform="translate(155.566406 0)"/>
     <use xlink:href="#Arial-BoldMT-4c" transform="translate(222.265625 0)"/>
     <use xlink:href="#Arial-BoldMT-4c" transform="translate(283.349609 0)"/>
     <use xlink:href="#Arial-BoldMT-4f" transform="translate(344.433594 0)"/>
     <use xlink:href="#Arial-BoldMT-20" transform="translate(422.216797 0)"/>
     <use xlink:href="#Arial-BoldMT-32" transform="translate(450 0)"/>
     <use xlink:href="#Arial-BoldMT-3a" transform="translate(505.615234 0)"/>
    </g>
    <!-- ELABORAZIONE -->
    <g style="fill: #0288d1" transform="translate(11.046094 508.092469) scale(0.18 -0.18)">
     <defs>
      <path id="Arial-BoldMT-42" d="M 469 4581 
L 2300 4581 
Q 2844 4581 3111 4536 
Q 3378 4491 3589 4347 
Q 3800 4203 3940 3964 
Q 4081 3725 4081 3428 
Q 4081 3106 3907 2837 
Q 3734 2569 3438 2434 
Q 3856 2313 4081 2019 
Q 4306 1725 4306 1328 
Q 4306 1016 4161 720 
Q 4016 425 3764 248 
Q 3513 72 3144 31 
Q 2913 6 2028 0 
L 469 0 
L 469 4581 
z
M 1394 3819 
L 1394 2759 
L 2000 2759 
Q 2541 2759 2672 2775 
Q 2909 2803 3045 2939 
Q 3181 3075 3181 3297 
Q 3181 3509 3064 3642 
Q 2947 3775 2716 3803 
Q 2578 3819 1925 3819 
L 1394 3819 
z
M 1394 1997 
L 1394 772 
L 2250 772 
Q 2750 772 2884 800 
Q 3091 838 3220 983 
Q 3350 1128 3350 1372 
Q 3350 1578 3250 1722 
Q 3150 1866 2961 1931 
Q 2772 1997 2141 1997 
L 1394 1997 
z
" transform="scale(0.015625)"/>
     </defs>
     <use xlink:href="#Arial-BoldMT-45"/>
     <use xlink:href="#Arial-BoldMT-4c" transform="translate(66.699219 0)"/>
     <use xlink:href="#Arial-BoldMT-41" transform="translate(127.783203 0)"/>
     <use xlink:href="#Arial-BoldMT-42" transform="translate(200 0)"/>
     <use xlink:href="#Arial-BoldMT-4f" transform="translate(272.216797 0)"/>
     <use xlink:href="#Arial-BoldMT-52" transform="translate(350 0)"/>
     <use xlink:href="#Arial-BoldMT-41" transform="translate(422.216797 0)"/>
     <use xlink:href="#Arial-BoldMT-5a" transform="translate(494.433594 0)"/>
     <use xlink:href="#Arial-BoldMT-49" transform="translate(555.517578 0)"/>
     <use xlink:href="#Arial-BoldMT-4f" transform="translate(583.300781 0)"/>
     <use xlink:href="#Arial-BoldMT-4e" transform="translate(661.083984 0)"/>
     <use xlink:href="#Arial-BoldMT-45" transform="translate(733.300781 0)"/>
    </g>
   </g>
   <g id="text_14">
    <!-- LIVELLO 1: -->
    <g style="fill: #2e7d32" transform="translate(34.545937 732.439406) scale(0.18 -0.18)">
     <defs>
      <path id="Arial-BoldMT-31" d="M 2519 0 
L 1641 0 
L 1641 3309 
Q 1159 2859 506 2644 
L 506 3441 
Q 850 3553 1253 3867 
Q 1656 4181 1806 4600 
L 2519 4600 
L 2519 0 
z
" transform="scale(0.015625)"/>
     </defs>
     <use xlink:href="#Arial-BoldMT-4c"/>
     <use xlink:href="#Arial-BoldMT-49" transform="translate(61.083984 0)"/>
     <use xlink:href="#Arial-BoldMT-56" transform="translate(88.867188 0)"/>
     <use xlink:href="#Arial-BoldMT-45" transform="translate(155.566406 0)"/>
     <use xlink:href="#Arial-BoldMT-4c" transform="translate(222.265625 0)"/>
     <use xlink:href="#Arial-BoldMT-4c" transform="translate(283.349609 0)"/>
     <use xlink:href="#Arial-BoldMT-4f" transform="translate(344.433594 0)"/>
     <use xlink:href="#Arial-BoldMT-20" transform="translate(422.216797 0)"/>
     <use xlink:href="#Arial-BoldMT-31" transform="translate(450 0)"/>
     <use xlink:href="#Arial-BoldMT-3a" transform="translate(505.615234 0)"/>
    </g>
    <!-- RACCOLTA -->
    <g style="fill: #2e7d32" transform="translate(33.880781 751.452469) scale(0.18 -0.18)">
     <use xlink:href="#Arial-BoldMT-52"/>
     <use xlink:href="#Arial-BoldMT-41" transform="translate(72.216797 0)"/>
     <use xlink:href="#Arial-BoldMT-43" transform="translate(144.433594 0)"/>
     <use xlink:href="#Arial-BoldMT-43" transform="translate(216.650391 0)"/>
     <use xlink:href="#Arial-BoldMT-4f" transform="translate(288.867188 0)"/>
     <use xlink:href="#Arial-BoldMT-4c" transform="translate(366.650391 0)"/>
     <use xlink:href="#Arial-BoldMT-54" transform="translate(420.359375 0)"/>
     <use xlink:href="#Arial-BoldMT-41" transform="translate(474.068359 0)"/>
    </g>
   </g>
   <g id="patch_13">
    <path d="M 445.149818 670.384222 
Q 445.149818 615.599417 445.149818 564.168715 
" style="fill: none; opacity: 0.6; stroke: #212121; stroke-width: 3; stroke-linecap: round"/>
    <path d="M 441.949818 570.568715 
L 445.149818 564.168715 
L 448.349818 570.568715 
" style="fill: none; opacity: 0.6; stroke: #212121; stroke-width: 3; stroke-linecap: round"/>
   </g>
   <g id="patch_14">
    <path d="M 675.579461 670.384222 
Q 675.579461 615.599417 675.579461 564.168715 
" style="fill: none; opacity: 0.6; stroke: #212121; stroke-width: 3; stroke-linecap: round"/>
    <path d="M 672.379461 570.568715 
L 675.579461 564.168715 
L 678.779461 570.568715 
" style="fill: none; opacity: 0.6; stroke: #212121; stroke-width: 3; stroke-linecap: round"/>
   </g>
   <g id="patch_15">
    <path d="M 906.009104 670.384222 
Q 906.009104 615.599417 906.009104 564.168715 
" style="fill: none; opacity: 0.6; stroke: #212121; stroke-width: 3; stroke-linecap: round"/>
    <path d="M 902.809104 570.568715 
L 906.009104 564.168715 
L 909.209104 570.568715 
" style="fill: none; opacity: 0.6; stroke: #212121; stroke-width: 3; stroke-linecap: round"/>
   </g>
   <g id="patch_16">
    <path d="M 443.838824 427.516368 
Q 395.772257 372.240252 349.906591 319.495152 
" style="fill: none; opacity: 0.6; stroke: #212121; stroke-width: 3; stroke-linecap: round"/>
    <path d="M 351.691424 326.424392 
L 349.906591 319.495152 
L 356.520883 322.22483 
" style="fill: none; opacity: 0.6; stroke: #212121; stroke-width: 3; stroke-linecap: round"/>
   </g>
   <g id="patch_17">
    <path d="M 675.579461 427.024222 
Q 675.579461 372.239417 675.579461 320.808715 
" style="fill: none; opacity: 0.6; stroke: #212121; stroke-width: 3; stroke-linecap: round"/>
    <path d="M 672.379461 327.208715 
L 675.579461 320.808715 
L 678.779461 327.208715 
" style="fill: none; opacity: 0.6; stroke: #212121; stroke-width: 3; stroke-linecap: round"/>
   </g>
   <g id="patch_18">
    <path d="M 907.320098 427.516368 
Q 955.386665 372.240252 1001.252331 319.495152 
" style="fill: none; opacity: 0.6; stroke: #212121; stroke-width: 3; stroke-linecap: round"/>
    <path d="M 994.638039 322.22483 
L 1001.252331 319.495152 
L 999.467498 326.424392 
" style="fill: none; opacity: 0.6; stroke: #212121; stroke-width: 3; stroke-linecap: round"/>
   </g>
   <g id="text_15">
    <!-- Architettura del Sistema di Conformità -->
    <g style="fill: #212121" transform="translate(419.661649 88.32) scale(0.28 -0.28)">
     <use xlink:href="#Arial-BoldMT-41"/>
     <use xlink:href="#Arial-BoldMT-72" transform="translate(72.216797 0)"/>
     <use xlink:href="#Arial-BoldMT-63" transform="translate(111.132812 0)"/>
     <use xlink:href="#Arial-BoldMT-68" transform="translate(166.748047 0)"/>
     <use xlink:href="#Arial-BoldMT-69" transform="translate(227.832031 0)"/>
     <use xlink:href="#Arial-BoldMT-74" transform="translate(255.615234 0)"/>
     <use xlink:href="#Arial-BoldMT-65" transform="translate(288.916016 0)"/>
     <use xlink:href="#Arial-BoldMT-74" transform="translate(344.53125 0)"/>
     <use xlink:href="#Arial-BoldMT-74" transform="translate(377.832031 0)"/>
     <use xlink:href="#Arial-BoldMT-75" transform="translate(411.132812 0)"/>
     <use xlink:href="#Arial-BoldMT-72" transform="translate(472.216797 0)"/>
     <use xlink:href="#Arial-BoldMT-61" transform="translate(511.132812 0)"/>
     <use xlink:href="#Arial-BoldMT-20" transform="translate(566.748047 0)"/>
     <use xlink:href="#Arial-BoldMT-64" transform="translate(594.53125 0)"/>
     <use xlink:href="#Arial-BoldMT-65" transform="translate(655.615234 0)"/>
     <use xlink:href="#Arial-BoldMT-6c" transform="translate(711.230469 0)"/>
     <use xlink:href="#Arial-BoldMT-20" transform="translate(739.013672 0)"/>
     <use xlink:href="#Arial-BoldMT-53" transform="translate(766.796875 0)"/>
     <use xlink:href="#Arial-BoldMT-69" transform="translate(833.496094 0)"/>
     <use xlink:href="#Arial-BoldMT-73" transform="translate(861.279297 0)"/>
     <use xlink:href="#Arial-BoldMT-74" transform="translate(916.894531 0)"/>
     <use xlink:href="#Arial-BoldMT-65" transform="translate(950.195312 0)"/>
     <use xlink:href="#Arial-BoldMT-6d" transform="translate(1005.810547 0)"/>
     <use xlink:href="#Arial-BoldMT-61" transform="translate(1094.726562 0)"/>
     <use xlink:href="#Arial-BoldMT-20" transform="translate(1150.341797 0)"/>
     <use xlink:href="#Arial-BoldMT-64" transform="translate(1178.125 0)"/>
     <use xlink:href="#Arial-BoldMT-69" transform="translate(1239.208984 0)"/>
     <use xlink:href="#Arial-BoldMT-20" transform="translate(1266.992188 0)"/>
     <use xlink:href="#Arial-BoldMT-43" transform="translate(1294.775391 0)"/>
     <use xlink:href="#Arial-BoldMT-6f" transform="translate(1366.992188 0)"/>
     <use xlink:href="#Arial-BoldMT-6e" transform="translate(1428.076172 0)"/>
     <use xlink:href="#Arial-BoldMT-66" transform="translate(1489.160156 0)"/>
     <use xlink:href="#Arial-BoldMT-6f" transform="translate(1522.460938 0)"/>
     <use xlink:href="#Arial-BoldMT-72" transform="translate(1583.544922 0)"/>
     <use xlink:href="#Arial-BoldMT-6d" transform="translate(1622.460938 0)"/>
     <use xlink:href="#Arial-BoldMT-69" transform="translate(1711.376953 0)"/>
     <use xlink:href="#Arial-BoldMT-74" transform="translate(1739.160156 0)"/>
     <use xlink:href="#Arial-BoldMT-e0" transform="translate(1772.460938 0)"/>
    </g>
   </g>
  </g>
 </g>
 <defs>
  <clipPath id="p9c9993c118">
   <rect x="17.209053" y="7.2" width="1382.577857" height="973.44"/>
  </clipPath>
 </defs>
</svg>
