<svg class="main-svg" xmlns="http://www.w3.org/2000/svg" xmlns:xlink="http://www.w3.org/1999/xlink" width="1200" height="700" style="" viewBox="0 0 1200 700"><rect x="0" y="0" width="1200" height="700" style="fill: rgb(255, 255, 255); fill-opacity: 1;"/><defs id="defs-398140"><g class="clips"><clipPath id="clip398140xyplot" class="plotclip"><rect width="1080" height="560"/></clipPath><clipPath class="axesclip" id="clip398140x"><rect x="60" y="0" width="1080" height="700"/></clipPath><clipPath class="axesclip" id="clip398140y"><rect x="0" y="80" width="1200" height="560"/></clipPath><clipPath class="axesclip" id="clip398140xy"><rect x="60" y="80" width="1080" height="560"/></clipPath></g><g class="gradients"/><g class="patterns"/></defs><g class="bglayer"/><g class="layer-below"><g class="imagelayer"/><g class="shapelayer"/></g><g class="cartesianlayer"><g class="subplot xy"><g class="layer-subplot"><g class="shapelayer"/><g class="imagelayer"/></g><g class="minor-gridlayer"><g class="x"/><g class="y"/></g><g class="gridlayer"><g class="x"/><g class="y"/></g><g class="zerolinelayer"/><g class="layer-between"><g class="shapelayer"/><g class="imagelayer"/></g><path class="xlines-below"/><path class="ylines-below"/><g class="overlines-below"/><g class="xaxislayer-below"/><g class="yaxislayer-below"/><g class="overaxes-below"/><g class="overplot"><g class="xy" transform="translate(60,80)" clip-path="url(#clip398140xyplot)"><g class="scatterlayer mlayer"><g class="trace scatter tracea9b49a" style="stroke-miterlimit: 2; opacity: 1;"><g class="fills"/><g class="errorbars"/><g class="lines"/><g class="points"><path class="point" transform="translate(90,320)" d="M30,0A30,30 0 1,1 0,-30A30,30 0 0,1 30,0Z" style="opacity: 1; stroke-width: 2px; fill: rgb(142, 68, 173); fill-opacity: 1; stroke: rgb(255, 255, 255); stroke-opacity: 1;"/></g><g class="text"><g class="textpoint" transform="translate(0,2.5)"><text x="90" y="320" text-anchor="middle" style="font-family: Arial; font-size: 10px; fill: rgb(255, 255, 255); fill-opacity: 1; white-space: pre;">Ricezione</text></g></g></g><g class="trace scatter trace0aa955" style="stroke-miterlimit: 2; opacity: 1;"><g class="fills"/><g class="errorbars"/><g class="lines"/><g class="points"><path class="point" transform="translate(270,320)" d="M30,0A30,30 0 1,1 0,-30A30,30 0 0,1 30,0Z" style="opacity: 1; stroke-width: 2px; fill: rgb(243, 156, 18); fill-opacity: 1; stroke: rgb(255, 255, 255); stroke-opacity: 1;"/></g><g class="text"><g class="textpoint" transform="translate(0,2.5)"><text x="270" y="320" text-anchor="middle" style="font-family: Arial; font-size: 10px; fill: rgb(255, 255, 255); fill-opacity: 1; white-space: pre;">Verifica</text></g></g></g><g class="trace scatter trace160a3e" style="stroke-miterlimit: 2; opacity: 1;"><g class="fills"/><g class="errorbars"/><g class="lines"/><g class="points"><path class="point" transform="translate(270,80)" d="M30,0A30,30 0 1,1 0,-30A30,30 0 0,1 30,0Z" style="opacity: 1; stroke-width: 2px; fill: rgb(192, 57, 43); fill-opacity: 1; stroke: rgb(255, 255, 255); stroke-opacity: 1;"/></g><g class="text"><g class="textpoint" transform="translate(0,2.5)"><text x="270" y="80" text-anchor="middle" style="font-family: Arial; font-size: 10px; fill: rgb(255, 255, 255); fill-opacity: 1; white-space: pre;">Respinta</text></g></g></g><g class="trace scatter tracece51a0" style="stroke-miterlimit: 2; opacity: 1;"><g class="fills"/><g class="errorbars"/><g class="lines"/><g class="points"><path class="point" transform="translate(450,320)" d="M30,0A30,30 0 1,1 0,-30A30,30 0 0,1 30,0Z" style="opacity: 1; stroke-width: 2px; fill: rgb(142, 68, 173); fill-opacity: 1; stroke: rgb(255, 255, 255); stroke-opacity: 1;"/></g><g class="text"><g class="textpoint" transform="translate(0,2.5)"><text x="450" y="320" text-anchor="middle" style="font-family: Arial; font-size: 10px; fill: rgb(255, 255, 255); fill-opacity: 1; white-space: pre;">Identificazione</text></g></g></g><g class="trace scatter traceea0d18" style="stroke-miterlimit: 2; opacity: 1;"><g class="fills"/><g class="errorbars"/><g class="lines"/><g class="points"><path class="point" transform="translate(630,320)" d="M30,0A30,30 0 1,1 0,-30A30,30 0 0,1 30,0Z" style="opacity: 1; stroke-width: 2px; fill: rgb(39, 174, 96); fill-opacity: 1; stroke: rgb(255, 255, 255); stroke-opacity: 1;"/></g><g class="text"><g class="textpoint" transform="translate(0,2.5)"><text x="630" y="320" text-anchor="middle" style="font-family: Arial; font-size: 10px; fill: rgb(255, 255, 255); fill-opacity: 1; white-space: pre;">Esecuzione</text></g></g></g><g class="trace scatter trace236405" style="stroke-miterlimit: 2; opacity: 1;"><g class="fills"/><g class="errorbars"/><g class="lines"/><g class="points"><path class="point" transform="translate(810,320)" d="M30,0A30,30 0 1,1 0,-30A30,30 0 0,1 30,0Z" style="opacity: 1; stroke-width: 2px; fill: rgb(44, 62, 80); fill-opacity: 1; stroke: rgb(255, 255, 255); stroke-opacity: 1;"/></g><g class="text"><g class="textpoint" transform="translate(0,2.5)"><text x="810" y="320" text-anchor="middle" style="font-family: Arial; font-size: 10px; fill: rgb(255, 255, 255); fill-opacity: 1; white-space: pre;">Notifica</text></g></g></g><g class="trace scatter tracec5ed8a" style="stroke-miterlimit: 2; opacity: 1;"><g class="fills"/><g class="errorbars"/><g class="lines"/><g class="points"><path class="point" transform="translate(990,320)" d="M30,0A30,30 0 1,1 0,-30A30,30 0 0,1 30,0Z" style="opacity: 1; stroke-width: 2px; fill: rgb(231, 76, 60); fill-opacity: 1; stroke: rgb(255, 255, 255); stroke-opacity: 1;"/></g><g class="text"><g class="textpoint" transform="translate(0,2.5)"><text x="990" y="320" text-anchor="middle" style="font-family: Arial; font-size: 10px; fill: rgb(255, 255, 255); fill-opacity: 1; white-space: pre;">Audit</text></g></g></g></g></g></g><g class="zerolinelayer-above"/><path class="xlines-above crisp" d="M0,0" style="fill: none;"/><path class="ylines-above crisp" d="M0,0" style="fill: none;"/><g class="overlines-above"/><g class="xaxislayer-above"/><g class="yaxislayer-above"/><g class="overaxes-above"/></g></g><g class="polarlayer"/><g class="smithlayer"/><g class="ternarylayer"/><g class="geolayer"/><g class="funnelarealayer"/><g class="pielayer"/><g class="iciclelayer"/><g class="treemaplayer"/><g class="sunburstlayer"/><g class="glimages"/><defs id="topdefs-398140"><g class="clips"/></defs><g class="layer-above"><g class="imagelayer"/><g class="shapelayer"><g class="shape-group" data-index="0" clip-path="url(#clip398140xy)"><path data-index="0" fill-rule="evenodd" d="M105,480H375V320H105Z" style="opacity: 0.1; stroke: rgb(243, 156, 18); stroke-opacity: 1; fill: rgb(243, 156, 18); fill-opacity: 1; stroke-dasharray: 9px, 9px; stroke-width: 1px;"/></g><g class="shape-group" data-index="1" clip-path="url(#clip398140xy)"><path data-index="1" fill-rule="evenodd" d="M465,480H1095V320H465Z" style="opacity: 0.1; stroke: rgb(142, 68, 173); stroke-opacity: 1; fill: rgb(142, 68, 173); fill-opacity: 1; stroke-dasharray: 9px, 9px; stroke-width: 1px;"/></g></g></g><g class="infolayer"><g class="g-gtitle"><text class="gtitle" x="600" y="40" text-anchor="middle" dy="0em" style="opacity: 1; font-family: Helvetica, Arial; font-size: 18px; fill: rgb(52, 73, 94); fill-opacity: 1; white-space: pre;"><tspan style="font-weight:bold">Processo Automatizzato GDPR</tspan></text></g><g class="annotation" data-index="0" style="opacity: 0.6;"><g class="annotation-text-g" transform="rotate(0,150,400)"><g class="cursor-pointer" transform="translate(147,391)"><rect class="bg" x="0.5" y="0.5" width="6" height="17" style="stroke-width: 1px; stroke: rgb(0, 0, 0); stroke-opacity: 0; fill: rgb(0, 0, 0); fill-opacity: 0;"/><text class="annotation-text" text-anchor="middle" x="3.671875" y="13" style="font-family: Helvetica, Arial; font-size: 12px; fill: rgb(52, 73, 94); fill-opacity: 1; white-space: pre;"> </text></g></g><g class="annotation-arrow-g" style="opacity: 1;"><path d="M153,400L330,400" style="stroke-width: 2px; stroke: rgb(52, 73, 94); stroke-opacity: 1; stroke-dasharray: 0px, 0px, 174.4px, 177px;"/><path d="M-3.7,-2.5V2.5L1.3,0Z" transform="translate(327.3999938964844,400)scale(2)" style="fill: rgb(52, 73, 94); stroke-width: 0;"/></g></g><g class="annotation" data-index="1" style="opacity: 1;"><g class="annotation-text-g" transform="rotate(0,240,400)"><g class="cursor-pointer" transform="translate(224,393)"><rect class="bg" x="0.5" y="0.5" width="32" height="13" style="stroke-width: 1px; stroke: rgb(0, 0, 0); stroke-opacity: 0; fill: rgb(255, 255, 255); fill-opacity: 1;"/><text class="annotation-text" text-anchor="middle" x="16.0078125" y="10" style="font-family: Helvetica, Arial; font-size: 9px; fill: rgb(52, 73, 94); fill-opacity: 1; white-space: pre;">Submit</text></g></g></g><g class="annotation" data-index="2" style="opacity: 0.6;"><g class="annotation-text-g" transform="rotate(0,330,400)"><g class="cursor-pointer" transform="translate(327,391)"><rect class="bg" x="0.5" y="0.5" width="6" height="17" style="stroke-width: 1px; stroke: rgb(0, 0, 0); stroke-opacity: 0; fill: rgb(0, 0, 0); fill-opacity: 0;"/><text class="annotation-text" text-anchor="middle" x="3.671875" y="13" style="font-family: Helvetica, Arial; font-size: 12px; fill: rgb(52, 73, 94); fill-opacity: 1; white-space: pre;"> </text></g></g><g class="annotation-arrow-g" style="opacity: 1;"><path d="M330,391.5L330,160" style="stroke-width: 2px; stroke: rgb(52, 73, 94); stroke-opacity: 1; stroke-dasharray: 0px, 0px, 228.9px, 231.5px;"/><path d="M-3.7,-2.5V2.5L1.3,0Z" transform="translate(330,162.60000610351562)rotate(-90)scale(2)" style="fill: rgb(52, 73, 94); stroke-width: 0;"/></g></g><g class="annotation" data-index="3" style="opacity: 1;"><g class="annotation-text-g" transform="rotate(0,330,280)"><g class="cursor-pointer" transform="translate(321,273)"><rect class="bg" x="0.5" y="0.5" width="17" height="13" style="stroke-width: 1px; stroke: rgb(0, 0, 0); stroke-opacity: 0; fill: rgb(255, 255, 255); fill-opacity: 1;"/><text class="annotation-text" text-anchor="middle" x="8.75" y="10" style="font-family: Helvetica, Arial; font-size: 9px; fill: rgb(52, 73, 94); fill-opacity: 1; white-space: pre;">NO</text></g></g></g><g class="annotation" data-index="4" style="opacity: 0.6;"><g class="annotation-text-g" transform="rotate(0,330,400)"><g class="cursor-pointer" transform="translate(327,391)"><rect class="bg" x="0.5" y="0.5" width="6" height="17" style="stroke-width: 1px; stroke: rgb(0, 0, 0); stroke-opacity: 0; fill: rgb(0, 0, 0); fill-opacity: 0;"/><text class="annotation-text" text-anchor="middle" x="3.671875" y="13" style="font-family: Helvetica, Arial; font-size: 12px; fill: rgb(52, 73, 94); fill-opacity: 1; white-space: pre;"> </text></g></g><g class="annotation-arrow-g" style="opacity: 1;"><path d="M333,400L510,400" style="stroke-width: 2px; stroke: rgb(52, 73, 94); stroke-opacity: 1; stroke-dasharray: 0px, 0px, 174.4px, 177px;"/><path d="M-3.7,-2.5V2.5L1.3,0Z" transform="translate(507.3999938964844,400)scale(2)" style="fill: rgb(52, 73, 94); stroke-width: 0;"/></g></g><g class="annotation" data-index="5" style="opacity: 1;"><g class="annotation-text-g" transform="rotate(0,420,400)"><g class="cursor-pointer" transform="translate(414,393)"><rect class="bg" x="0.5" y="0.5" width="12" height="13" style="stroke-width: 1px; stroke: rgb(0, 0, 0); stroke-opacity: 0; fill: rgb(255, 255, 255); fill-opacity: 1;"/><text class="annotation-text" text-anchor="middle" x="6.2578125" y="10" style="font-family: Helvetica, Arial; font-size: 9px; fill: rgb(52, 73, 94); fill-opacity: 1; white-space: pre;">SI</text></g></g></g><g class="annotation" data-index="6" style="opacity: 0.6;"><g class="annotation-text-g" transform="rotate(0,510,400)"><g class="cursor-pointer" transform="translate(507,391)"><rect class="bg" x="0.5" y="0.5" width="6" height="17" style="stroke-width: 1px; stroke: rgb(0, 0, 0); stroke-opacity: 0; fill: rgb(0, 0, 0); fill-opacity: 0;"/><text class="annotation-text" text-anchor="middle" x="3.671875" y="13" style="font-family: Helvetica, Arial; font-size: 12px; fill: rgb(52, 73, 94); fill-opacity: 1; white-space: pre;"> </text></g></g><g class="annotation-arrow-g" style="opacity: 1;"><path d="M513,400L690,400" style="stroke-width: 2px; stroke: rgb(52, 73, 94); stroke-opacity: 1; stroke-dasharray: 0px, 0px, 174.4px, 177px;"/><path d="M-3.7,-2.5V2.5L1.3,0Z" transform="translate(687.4000244140625,400)scale(2)" style="fill: rgb(52, 73, 94); stroke-width: 0;"/></g></g><g class="annotation" data-index="7" style="opacity: 0.6;"><g class="annotation-text-g" transform="rotate(0,690,400)"><g class="cursor-pointer" transform="translate(687,391)"><rect class="bg" x="0.5" y="0.5" width="6" height="17" style="stroke-width: 1px; stroke: rgb(0, 0, 0); stroke-opacity: 0; fill: rgb(0, 0, 0); fill-opacity: 0;"/><text class="annotation-text" text-anchor="middle" x="3.671875" y="13" style="font-family: Helvetica, Arial; font-size: 12px; fill: rgb(52, 73, 94); fill-opacity: 1; white-space: pre;"> </text></g></g><g class="annotation-arrow-g" style="opacity: 1;"><path d="M693,400L870,400" style="stroke-width: 2px; stroke: rgb(52, 73, 94); stroke-opacity: 1; stroke-dasharray: 0px, 0px, 174.4px, 177px;"/><path d="M-3.7,-2.5V2.5L1.3,0Z" transform="translate(867.4000244140625,400)scale(2)" style="fill: rgb(52, 73, 94); stroke-width: 0;"/></g></g><g class="annotation" data-index="8" style="opacity: 0.6;"><g class="annotation-text-g" transform="rotate(0,870,400)"><g class="cursor-pointer" transform="translate(867,391)"><rect class="bg" x="0.5" y="0.5" width="6" height="17" style="stroke-width: 1px; stroke: rgb(0, 0, 0); stroke-opacity: 0; fill: rgb(0, 0, 0); fill-opacity: 0;"/><text class="annotation-text" text-anchor="middle" x="3.671875" y="13" style="font-family: Helvetica, Arial; font-size: 12px; fill: rgb(52, 73, 94); fill-opacity: 1; white-space: pre;"> </text></g></g><g class="annotation-arrow-g" style="opacity: 1;"><path d="M873,400L1050,400" style="stroke-width: 2px; stroke: rgb(52, 73, 94); stroke-opacity: 1; stroke-dasharray: 0px, 0px, 174.4px, 177px;"/><path d="M-3.7,-2.5V2.5L1.3,0Z" transform="translate(1047.4000244140625,400)scale(2)" style="fill: rgb(52, 73, 94); stroke-width: 0;"/></g></g><g class="annotation" data-index="9" style="opacity: 1;"><g class="annotation-text-g" transform="rotate(0,240,512)"><g class="cursor-pointer" transform="translate(219,505)"><rect class="bg" x="0.5" y="0.5" width="42" height="14" style="stroke-width: 1px; stroke: rgb(0, 0, 0); stroke-opacity: 0; fill: rgb(0, 0, 0); fill-opacity: 0;"/><text class="annotation-text" text-anchor="middle" x="21.1796875" y="11" style="font-family: Helvetica, Arial; font-size: 10px; fill: rgb(243, 156, 18); fill-opacity: 1; white-space: pre;">Max 72h</text></g></g></g><g class="annotation" data-index="10" style="opacity: 1;"><g class="annotation-text-g" transform="rotate(0,780,512)"><g class="cursor-pointer" transform="translate(748,505)"><rect class="bg" x="0.5" y="0.5" width="63" height="14" style="stroke-width: 1px; stroke: rgb(0, 0, 0); stroke-opacity: 0; fill: rgb(0, 0, 0); fill-opacity: 0;"/><text class="annotation-text" text-anchor="middle" x="32.015625" y="11" style="font-family: Helvetica, Arial; font-size: 10px; fill: rgb(142, 68, 173); fill-opacity: 1; white-space: pre;">Max 30 giorni</text></g></g></g></g></svg>