<?xml version="1.0" encoding="utf-8" standalone="no"?>
<!DOCTYPE svg PUBLIC "-//W3C//DTD SVG 1.1//EN"
  "http://www.w3.org/Graphics/SVG/1.1/DTD/svg11.dtd">
<svg xmlns:xlink="http://www.w3.org/1999/xlink" width="1268.624503pt" height="987.84pt" viewBox="0 0 1268.624503 987.84" xmlns="http://www.w3.org/2000/svg" version="1.1">
 <metadata>
  <rdf:RDF xmlns:dc="http://purl.org/dc/elements/1.1/" xmlns:cc="http://creativecommons.org/ns#" xmlns:rdf="http://www.w3.org/1999/02/22-rdf-syntax-ns#">
   <cc:Work>
    <dc:type rdf:resource="http://purl.org/dc/dcmitype/StillImage"/>
    <dc:date>2025-09-19T01:25:05.208165</dc:date>
    <dc:format>image/svg+xml</dc:format>
    <dc:creator>
     <cc:Agent>
      <dc:title>Matplotlib v3.10.6, https://matplotlib.org/</dc:title>
     </cc:Agent>
    </dc:creator>
   </cc:Work>
  </rdf:RDF>
 </metadata>
 <defs>
  <style type="text/css">*{stroke-linejoin: round; stroke-linecap: butt}</style>
 </defs>
 <g id="figure_1">
  <g id="patch_1">
   <path d="M 0 987.84 
L 1268.624503 987.84 
L 1268.624503 0 
L 0 0 
z
" style="fill: #ffffff"/>
  </g>
  <g id="axes_1">
   <g id="patch_2">
    <path d="M 233.683278 883.296 
L 1090.134298 883.296 
L 1004.489196 737.28 
L 319.32838 737.28 
z
" clip-path="url(#pb381a76faa)" style="fill: #d32f2f; opacity: 0.9; stroke: #212121; stroke-width: 3; stroke-linejoin: miter"/>
   </g>
   <g id="patch_3">
    <path d="M 319.32838 737.28 
L 1004.489196 737.28 
L 918.844094 591.264 
L 404.973482 591.264 
z
" clip-path="url(#pb381a76faa)" style="fill: #f57c00; opacity: 0.9; stroke: #212121; stroke-width: 3; stroke-linejoin: miter"/>
   </g>
   <g id="patch_4">
    <path d="M 404.973482 591.264 
L 918.844094 591.264 
L 833.198992 445.248 
L 490.618584 445.248 
z
" clip-path="url(#pb381a76faa)" style="fill: #0288d1; opacity: 0.9; stroke: #212121; stroke-width: 3; stroke-linejoin: miter"/>
   </g>
   <g id="patch_5">
    <path d="M 490.618584 445.248 
L 833.198992 445.248 
L 747.55389 299.232 
L 576.263686 299.232 
z
" clip-path="url(#pb381a76faa)" style="fill: #2e7d32; opacity: 0.9; stroke: #212121; stroke-width: 3; stroke-linejoin: miter"/>
   </g>
   <g id="patch_6">
    <path d="M 576.263686 299.232 
L 747.55389 299.232 
L 661.908788 153.216 
z
" clip-path="url(#pb381a76faa)" style="fill: #1e3a5f; opacity: 0.9; stroke: #212121; stroke-width: 3; stroke-linejoin: miter"/>
   </g>
   <g id="text_1">
    <!-- LIVELLO 1: -->
    <g style="fill: #ffffff" transform="translate(608.019726 804.909562) scale(0.2 -0.2)">
     <defs>
      <path id="Arial-BoldMT-4c" d="M 491 0 
L 491 4544 
L 1416 4544 
L 1416 772 
L 3716 772 
L 3716 0 
L 491 0 
z
" transform="scale(0.015625)"/>
      <path id="Arial-BoldMT-49" d="M 438 0 
L 438 4581 
L 1363 4581 
L 1363 0 
L 438 0 
z
" transform="scale(0.015625)"/>
      <path id="Arial-BoldMT-56" d="M 1634 0 
L -3 4581 
L 1000 4581 
L 2159 1191 
L 3281 4581 
L 4263 4581 
L 2622 0 
L 1634 0 
z
" transform="scale(0.015625)"/>
      <path id="Arial-BoldMT-45" d="M 466 0 
L 466 4581 
L 3863 4581 
L 3863 3806 
L 1391 3806 
L 1391 2791 
L 3691 2791 
L 3691 2019 
L 1391 2019 
L 1391 772 
L 3950 772 
L 3950 0 
L 466 0 
z
" transform="scale(0.015625)"/>
      <path id="Arial-BoldMT-4f" d="M 278 2263 
Q 278 2963 488 3438 
Q 644 3788 914 4066 
Q 1184 4344 1506 4478 
Q 1934 4659 2494 4659 
Q 3506 4659 4114 4031 
Q 4722 3403 4722 2284 
Q 4722 1175 4119 548 
Q 3516 -78 2506 -78 
Q 1484 -78 881 545 
Q 278 1169 278 2263 
z
M 1231 2294 
Q 1231 1516 1590 1114 
Q 1950 713 2503 713 
Q 3056 713 3411 1111 
Q 3766 1509 3766 2306 
Q 3766 3094 3420 3481 
Q 3075 3869 2503 3869 
Q 1931 3869 1581 3476 
Q 1231 3084 1231 2294 
z
" transform="scale(0.015625)"/>
      <path id="Arial-BoldMT-20" transform="scale(0.015625)"/>
      <path id="Arial-BoldMT-31" d="M 2519 0 
L 1641 0 
L 1641 3309 
Q 1159 2859 506 2644 
L 506 3441 
Q 850 3553 1253 3867 
Q 1656 4181 1806 4600 
L 2519 4600 
L 2519 0 
z
" transform="scale(0.015625)"/>
      <path id="Arial-BoldMT-3a" d="M 628 2441 
L 628 3319 
L 1506 3319 
L 1506 2441 
L 628 2441 
z
M 628 0 
L 628 878 
L 1506 878 
L 1506 0 
L 628 0 
z
" transform="scale(0.015625)"/>
     </defs>
     <use xlink:href="#Arial-BoldMT-4c"/>
     <use xlink:href="#Arial-BoldMT-49" transform="translate(61.083984 0)"/>
     <use xlink:href="#Arial-BoldMT-56" transform="translate(88.867188 0)"/>
     <use xlink:href="#Arial-BoldMT-45" transform="translate(155.566406 0)"/>
     <use xlink:href="#Arial-BoldMT-4c" transform="translate(222.265625 0)"/>
     <use xlink:href="#Arial-BoldMT-4c" transform="translate(283.349609 0)"/>
     <use xlink:href="#Arial-BoldMT-4f" transform="translate(344.433594 0)"/>
     <use xlink:href="#Arial-BoldMT-20" transform="translate(422.216797 0)"/>
     <use xlink:href="#Arial-BoldMT-31" transform="translate(450 0)"/>
     <use xlink:href="#Arial-BoldMT-3a" transform="translate(505.615234 0)"/>
    </g>
    <!-- FRAMMENTATO -->
    <g style="fill: #ffffff" transform="translate(585.240038 826.035187) scale(0.2 -0.2)">
     <defs>
      <path id="Arial-BoldMT-46" d="M 472 0 
L 472 4581 
L 3613 4581 
L 3613 3806 
L 1397 3806 
L 1397 2722 
L 3309 2722 
L 3309 1947 
L 1397 1947 
L 1397 0 
L 472 0 
z
" transform="scale(0.015625)"/>
      <path id="Arial-BoldMT-52" d="M 469 0 
L 469 4581 
L 2416 4581 
Q 3150 4581 3483 4457 
Q 3816 4334 4016 4018 
Q 4216 3703 4216 3297 
Q 4216 2781 3912 2445 
Q 3609 2109 3006 2022 
Q 3306 1847 3501 1637 
Q 3697 1428 4028 894 
L 4588 0 
L 3481 0 
L 2813 997 
Q 2456 1531 2325 1670 
Q 2194 1809 2047 1861 
Q 1900 1913 1581 1913 
L 1394 1913 
L 1394 0 
L 469 0 
z
M 1394 2644 
L 2078 2644 
Q 2744 2644 2909 2700 
Q 3075 2756 3169 2893 
Q 3263 3031 3263 3238 
Q 3263 3469 3139 3611 
Q 3016 3753 2791 3791 
Q 2678 3806 2116 3806 
L 1394 3806 
L 1394 2644 
z
" transform="scale(0.015625)"/>
      <path id="Arial-BoldMT-41" d="M 4597 0 
L 3591 0 
L 3191 1041 
L 1359 1041 
L 981 0 
L 0 0 
L 1784 4581 
L 2763 4581 
L 4597 0 
z
M 2894 1813 
L 2263 3513 
L 1644 1813 
L 2894 1813 
z
" transform="scale(0.015625)"/>
      <path id="Arial-BoldMT-4d" d="M 453 0 
L 453 4581 
L 1838 4581 
L 2669 1456 
L 3491 4581 
L 4878 4581 
L 4878 0 
L 4019 0 
L 4019 3606 
L 3109 0 
L 2219 0 
L 1313 3606 
L 1313 0 
L 453 0 
z
" transform="scale(0.015625)"/>
      <path id="Arial-BoldMT-4e" d="M 475 0 
L 475 4581 
L 1375 4581 
L 3250 1522 
L 3250 4581 
L 4109 4581 
L 4109 0 
L 3181 0 
L 1334 2988 
L 1334 0 
L 475 0 
z
" transform="scale(0.015625)"/>
      <path id="Arial-BoldMT-54" d="M 1497 0 
L 1497 3806 
L 138 3806 
L 138 4581 
L 3778 4581 
L 3778 3806 
L 2422 3806 
L 2422 0 
L 1497 0 
z
" transform="scale(0.015625)"/>
     </defs>
     <use xlink:href="#Arial-BoldMT-46"/>
     <use xlink:href="#Arial-BoldMT-52" transform="translate(61.083984 0)"/>
     <use xlink:href="#Arial-BoldMT-41" transform="translate(133.300781 0)"/>
     <use xlink:href="#Arial-BoldMT-4d" transform="translate(205.517578 0)"/>
     <use xlink:href="#Arial-BoldMT-4d" transform="translate(288.818359 0)"/>
     <use xlink:href="#Arial-BoldMT-45" transform="translate(372.119141 0)"/>
     <use xlink:href="#Arial-BoldMT-4e" transform="translate(438.818359 0)"/>
     <use xlink:href="#Arial-BoldMT-54" transform="translate(511.035156 0)"/>
     <use xlink:href="#Arial-BoldMT-41" transform="translate(564.744141 0)"/>
     <use xlink:href="#Arial-BoldMT-54" transform="translate(629.585938 0)"/>
     <use xlink:href="#Arial-BoldMT-4f" transform="translate(688.919922 0)"/>
    </g>
   </g>
   <g id="text_2">
    <!-- LIVELLO 2: -->
    <g style="fill: #ffffff" transform="translate(608.019726 658.893562) scale(0.2 -0.2)">
     <defs>
      <path id="Arial-BoldMT-32" d="M 3238 816 
L 3238 0 
L 159 0 
Q 209 463 459 877 
Q 709 1291 1447 1975 
Q 2041 2528 2175 2725 
Q 2356 2997 2356 3263 
Q 2356 3556 2198 3714 
Q 2041 3872 1763 3872 
Q 1488 3872 1325 3706 
Q 1163 3541 1138 3156 
L 263 3244 
Q 341 3969 753 4284 
Q 1166 4600 1784 4600 
Q 2463 4600 2850 4234 
Q 3238 3869 3238 3325 
Q 3238 3016 3127 2736 
Q 3016 2456 2775 2150 
Q 2616 1947 2200 1565 
Q 1784 1184 1673 1059 
Q 1563 934 1494 816 
L 3238 816 
z
" transform="scale(0.015625)"/>
     </defs>
     <use xlink:href="#Arial-BoldMT-4c"/>
     <use xlink:href="#Arial-BoldMT-49" transform="translate(61.083984 0)"/>
     <use xlink:href="#Arial-BoldMT-56" transform="translate(88.867188 0)"/>
     <use xlink:href="#Arial-BoldMT-45" transform="translate(155.566406 0)"/>
     <use xlink:href="#Arial-BoldMT-4c" transform="translate(222.265625 0)"/>
     <use xlink:href="#Arial-BoldMT-4c" transform="translate(283.349609 0)"/>
     <use xlink:href="#Arial-BoldMT-4f" transform="translate(344.433594 0)"/>
     <use xlink:href="#Arial-BoldMT-20" transform="translate(422.216797 0)"/>
     <use xlink:href="#Arial-BoldMT-32" transform="translate(450 0)"/>
     <use xlink:href="#Arial-BoldMT-3a" transform="translate(505.615234 0)"/>
    </g>
    <!-- COORDINATO -->
    <g style="fill: #ffffff" transform="translate(594.491601 680.019187) scale(0.2 -0.2)">
     <defs>
      <path id="Arial-BoldMT-43" d="M 3397 1684 
L 4294 1400 
Q 4088 650 3608 286 
Q 3128 -78 2391 -78 
Q 1478 -78 890 545 
Q 303 1169 303 2250 
Q 303 3394 893 4026 
Q 1484 4659 2447 4659 
Q 3288 4659 3813 4163 
Q 4125 3869 4281 3319 
L 3366 3100 
Q 3284 3456 3026 3662 
Q 2769 3869 2400 3869 
Q 1891 3869 1573 3503 
Q 1256 3138 1256 2319 
Q 1256 1450 1568 1081 
Q 1881 713 2381 713 
Q 2750 713 3015 947 
Q 3281 1181 3397 1684 
z
" transform="scale(0.015625)"/>
      <path id="Arial-BoldMT-44" d="M 463 4581 
L 2153 4581 
Q 2725 4581 3025 4494 
Q 3428 4375 3715 4072 
Q 4003 3769 4153 3330 
Q 4303 2891 4303 2247 
Q 4303 1681 4163 1272 
Q 3991 772 3672 463 
Q 3431 228 3022 97 
Q 2716 0 2203 0 
L 463 0 
L 463 4581 
z
M 1388 3806 
L 1388 772 
L 2078 772 
Q 2466 772 2638 816 
Q 2863 872 3011 1006 
Q 3159 1141 3253 1448 
Q 3347 1756 3347 2288 
Q 3347 2819 3253 3103 
Q 3159 3388 2990 3547 
Q 2822 3706 2563 3763 
Q 2369 3806 1803 3806 
L 1388 3806 
z
" transform="scale(0.015625)"/>
     </defs>
     <use xlink:href="#Arial-BoldMT-43"/>
     <use xlink:href="#Arial-BoldMT-4f" transform="translate(72.216797 0)"/>
     <use xlink:href="#Arial-BoldMT-4f" transform="translate(150 0)"/>
     <use xlink:href="#Arial-BoldMT-52" transform="translate(227.783203 0)"/>
     <use xlink:href="#Arial-BoldMT-44" transform="translate(300 0)"/>
     <use xlink:href="#Arial-BoldMT-49" transform="translate(372.216797 0)"/>
     <use xlink:href="#Arial-BoldMT-4e" transform="translate(400 0)"/>
     <use xlink:href="#Arial-BoldMT-41" transform="translate(472.216797 0)"/>
     <use xlink:href="#Arial-BoldMT-54" transform="translate(537.058594 0)"/>
     <use xlink:href="#Arial-BoldMT-4f" transform="translate(596.392578 0)"/>
    </g>
   </g>
   <g id="text_3">
    <!-- LIVELLO 3: -->
    <g style="fill: #ffffff" transform="translate(608.019726 512.877562) scale(0.2 -0.2)">
     <defs>
      <path id="Arial-BoldMT-33" d="M 241 1216 
L 1091 1319 
Q 1131 994 1309 822 
Q 1488 650 1741 650 
Q 2013 650 2198 856 
Q 2384 1063 2384 1413 
Q 2384 1744 2206 1937 
Q 2028 2131 1772 2131 
Q 1603 2131 1369 2066 
L 1466 2781 
Q 1822 2772 2009 2936 
Q 2197 3100 2197 3372 
Q 2197 3603 2059 3740 
Q 1922 3878 1694 3878 
Q 1469 3878 1309 3722 
Q 1150 3566 1116 3266 
L 306 3403 
Q 391 3819 561 4067 
Q 731 4316 1036 4458 
Q 1341 4600 1719 4600 
Q 2366 4600 2756 4188 
Q 3078 3850 3078 3425 
Q 3078 2822 2419 2463 
Q 2813 2378 3048 2084 
Q 3284 1791 3284 1375 
Q 3284 772 2843 347 
Q 2403 -78 1747 -78 
Q 1125 -78 715 280 
Q 306 638 241 1216 
z
" transform="scale(0.015625)"/>
     </defs>
     <use xlink:href="#Arial-BoldMT-4c"/>
     <use xlink:href="#Arial-BoldMT-49" transform="translate(61.083984 0)"/>
     <use xlink:href="#Arial-BoldMT-56" transform="translate(88.867188 0)"/>
     <use xlink:href="#Arial-BoldMT-45" transform="translate(155.566406 0)"/>
     <use xlink:href="#Arial-BoldMT-4c" transform="translate(222.265625 0)"/>
     <use xlink:href="#Arial-BoldMT-4c" transform="translate(283.349609 0)"/>
     <use xlink:href="#Arial-BoldMT-4f" transform="translate(344.433594 0)"/>
     <use xlink:href="#Arial-BoldMT-20" transform="translate(422.216797 0)"/>
     <use xlink:href="#Arial-BoldMT-33" transform="translate(450 0)"/>
     <use xlink:href="#Arial-BoldMT-3a" transform="translate(505.615234 0)"/>
    </g>
    <!-- INTEGRATO -->
    <g style="fill: #ffffff" transform="translate(603.935351 534.003187) scale(0.2 -0.2)">
     <defs>
      <path id="Arial-BoldMT-47" d="M 2597 1684 
L 2597 2456 
L 4591 2456 
L 4591 631 
Q 4300 350 3748 136 
Q 3197 -78 2631 -78 
Q 1913 -78 1378 223 
Q 844 525 575 1086 
Q 306 1647 306 2306 
Q 306 3022 606 3578 
Q 906 4134 1484 4431 
Q 1925 4659 2581 4659 
Q 3434 4659 3914 4301 
Q 4394 3944 4531 3313 
L 3613 3141 
Q 3516 3478 3248 3673 
Q 2981 3869 2581 3869 
Q 1975 3869 1617 3484 
Q 1259 3100 1259 2344 
Q 1259 1528 1621 1120 
Q 1984 713 2572 713 
Q 2863 713 3155 827 
Q 3447 941 3656 1103 
L 3656 1684 
L 2597 1684 
z
" transform="scale(0.015625)"/>
     </defs>
     <use xlink:href="#Arial-BoldMT-49"/>
     <use xlink:href="#Arial-BoldMT-4e" transform="translate(27.783203 0)"/>
     <use xlink:href="#Arial-BoldMT-54" transform="translate(100 0)"/>
     <use xlink:href="#Arial-BoldMT-45" transform="translate(161.083984 0)"/>
     <use xlink:href="#Arial-BoldMT-47" transform="translate(227.783203 0)"/>
     <use xlink:href="#Arial-BoldMT-52" transform="translate(305.566406 0)"/>
     <use xlink:href="#Arial-BoldMT-41" transform="translate(377.783203 0)"/>
     <use xlink:href="#Arial-BoldMT-54" transform="translate(442.625 0)"/>
     <use xlink:href="#Arial-BoldMT-4f" transform="translate(501.958984 0)"/>
    </g>
   </g>
   <g id="text_4">
    <!-- LIVELLO 4: -->
    <g style="fill: #ffffff" transform="translate(608.019726 366.861562) scale(0.2 -0.2)">
     <defs>
      <path id="Arial-BoldMT-34" d="M 1994 0 
L 1994 922 
L 119 922 
L 119 1691 
L 2106 4600 
L 2844 4600 
L 2844 1694 
L 3413 1694 
L 3413 922 
L 2844 922 
L 2844 0 
L 1994 0 
z
M 1994 1694 
L 1994 3259 
L 941 1694 
L 1994 1694 
z
" transform="scale(0.015625)"/>
     </defs>
     <use xlink:href="#Arial-BoldMT-4c"/>
     <use xlink:href="#Arial-BoldMT-49" transform="translate(61.083984 0)"/>
     <use xlink:href="#Arial-BoldMT-56" transform="translate(88.867188 0)"/>
     <use xlink:href="#Arial-BoldMT-45" transform="translate(155.566406 0)"/>
     <use xlink:href="#Arial-BoldMT-4c" transform="translate(222.265625 0)"/>
     <use xlink:href="#Arial-BoldMT-4c" transform="translate(283.349609 0)"/>
     <use xlink:href="#Arial-BoldMT-4f" transform="translate(344.433594 0)"/>
     <use xlink:href="#Arial-BoldMT-20" transform="translate(422.216797 0)"/>
     <use xlink:href="#Arial-BoldMT-34" transform="translate(450 0)"/>
     <use xlink:href="#Arial-BoldMT-3a" transform="translate(505.615234 0)"/>
    </g>
    <!-- OTTIMIZZATO -->
    <g style="fill: #ffffff" transform="translate(595.618163 387.987187) scale(0.2 -0.2)">
     <defs>
      <path id="Arial-BoldMT-5a" d="M 69 0 
L 69 834 
L 2475 3806 
L 341 3806 
L 341 4581 
L 3694 4581 
L 3694 3863 
L 1184 772 
L 3791 772 
L 3791 0 
L 69 0 
z
" transform="scale(0.015625)"/>
     </defs>
     <use xlink:href="#Arial-BoldMT-4f"/>
     <use xlink:href="#Arial-BoldMT-54" transform="translate(77.783203 0)"/>
     <use xlink:href="#Arial-BoldMT-54" transform="translate(138.867188 0)"/>
     <use xlink:href="#Arial-BoldMT-49" transform="translate(199.951172 0)"/>
     <use xlink:href="#Arial-BoldMT-4d" transform="translate(227.734375 0)"/>
     <use xlink:href="#Arial-BoldMT-49" transform="translate(311.035156 0)"/>
     <use xlink:href="#Arial-BoldMT-5a" transform="translate(338.818359 0)"/>
     <use xlink:href="#Arial-BoldMT-5a" transform="translate(399.902344 0)"/>
     <use xlink:href="#Arial-BoldMT-41" transform="translate(460.986328 0)"/>
     <use xlink:href="#Arial-BoldMT-54" transform="translate(525.828125 0)"/>
     <use xlink:href="#Arial-BoldMT-4f" transform="translate(585.162109 0)"/>
    </g>
   </g>
   <g id="text_5">
    <!-- LIVELLO 5: -->
    <g style="fill: #ffffff" transform="translate(608.019726 220.845562) scale(0.2 -0.2)">
     <defs>
      <path id="Arial-BoldMT-35" d="M 284 1178 
L 1159 1269 
Q 1197 972 1381 798 
Q 1566 625 1806 625 
Q 2081 625 2272 848 
Q 2463 1072 2463 1522 
Q 2463 1944 2273 2155 
Q 2084 2366 1781 2366 
Q 1403 2366 1103 2031 
L 391 2134 
L 841 4519 
L 3163 4519 
L 3163 3697 
L 1506 3697 
L 1369 2919 
Q 1663 3066 1969 3066 
Q 2553 3066 2959 2641 
Q 3366 2216 3366 1538 
Q 3366 972 3038 528 
Q 2591 -78 1797 -78 
Q 1163 -78 763 262 
Q 363 603 284 1178 
z
" transform="scale(0.015625)"/>
     </defs>
     <use xlink:href="#Arial-BoldMT-4c"/>
     <use xlink:href="#Arial-BoldMT-49" transform="translate(61.083984 0)"/>
     <use xlink:href="#Arial-BoldMT-56" transform="translate(88.867188 0)"/>
     <use xlink:href="#Arial-BoldMT-45" transform="translate(155.566406 0)"/>
     <use xlink:href="#Arial-BoldMT-4c" transform="translate(222.265625 0)"/>
     <use xlink:href="#Arial-BoldMT-4c" transform="translate(283.349609 0)"/>
     <use xlink:href="#Arial-BoldMT-4f" transform="translate(344.433594 0)"/>
     <use xlink:href="#Arial-BoldMT-20" transform="translate(422.216797 0)"/>
     <use xlink:href="#Arial-BoldMT-35" transform="translate(450 0)"/>
     <use xlink:href="#Arial-BoldMT-3a" transform="translate(505.615234 0)"/>
    </g>
    <!-- ADATTIVO -->
    <g style="fill: #ffffff" transform="translate(611.538476 241.971187) scale(0.2 -0.2)">
     <use xlink:href="#Arial-BoldMT-41"/>
     <use xlink:href="#Arial-BoldMT-44" transform="translate(72.216797 0)"/>
     <use xlink:href="#Arial-BoldMT-41" transform="translate(144.433594 0)"/>
     <use xlink:href="#Arial-BoldMT-54" transform="translate(209.275391 0)"/>
     <use xlink:href="#Arial-BoldMT-54" transform="translate(270.359375 0)"/>
     <use xlink:href="#Arial-BoldMT-49" transform="translate(331.443359 0)"/>
     <use xlink:href="#Arial-BoldMT-56" transform="translate(359.226562 0)"/>
     <use xlink:href="#Arial-BoldMT-4f" transform="translate(425.925781 0)"/>
    </g>
   </g>
   <g id="patch_7">
    <path d="M 150.041563 518.256 
Q 276.50586 518.256 398.498021 518.256 
" style="fill: none; stroke: #7b1fa2; stroke-width: 4; stroke-linecap: round"/>
    <path d="M 392.098021 515.056 
L 398.498021 518.256 
L 392.098021 521.456 
" style="fill: none; stroke: #7b1fa2; stroke-width: 4; stroke-linecap: round"/>
   </g>
   <g id="text_6">
    <!-- POSIZIONE -->
    <g style="fill: #7b1fa2" transform="translate(7.2 513.415406) scale(0.18 -0.18)">
     <defs>
      <path id="Arial-BoldMT-50" d="M 466 0 
L 466 4581 
L 1950 4581 
Q 2794 4581 3050 4513 
Q 3444 4409 3709 4064 
Q 3975 3719 3975 3172 
Q 3975 2750 3822 2462 
Q 3669 2175 3433 2011 
Q 3197 1847 2953 1794 
Q 2622 1728 1994 1728 
L 1391 1728 
L 1391 0 
L 466 0 
z
M 1391 3806 
L 1391 2506 
L 1897 2506 
Q 2444 2506 2628 2578 
Q 2813 2650 2917 2803 
Q 3022 2956 3022 3159 
Q 3022 3409 2875 3571 
Q 2728 3734 2503 3775 
Q 2338 3806 1838 3806 
L 1391 3806 
z
" transform="scale(0.015625)"/>
      <path id="Arial-BoldMT-53" d="M 231 1491 
L 1131 1578 
Q 1213 1125 1461 912 
Q 1709 700 2131 700 
Q 2578 700 2804 889 
Q 3031 1078 3031 1331 
Q 3031 1494 2936 1608 
Q 2841 1722 2603 1806 
Q 2441 1863 1863 2006 
Q 1119 2191 819 2459 
Q 397 2838 397 3381 
Q 397 3731 595 4036 
Q 794 4341 1167 4500 
Q 1541 4659 2069 4659 
Q 2931 4659 3367 4281 
Q 3803 3903 3825 3272 
L 2900 3231 
Q 2841 3584 2645 3739 
Q 2450 3894 2059 3894 
Q 1656 3894 1428 3728 
Q 1281 3622 1281 3444 
Q 1281 3281 1419 3166 
Q 1594 3019 2269 2859 
Q 2944 2700 3267 2529 
Q 3591 2359 3773 2064 
Q 3956 1769 3956 1334 
Q 3956 941 3737 597 
Q 3519 253 3119 86 
Q 2719 -81 2122 -81 
Q 1253 -81 787 320 
Q 322 722 231 1491 
z
" transform="scale(0.015625)"/>
     </defs>
     <use xlink:href="#Arial-BoldMT-50"/>
     <use xlink:href="#Arial-BoldMT-4f" transform="translate(66.699219 0)"/>
     <use xlink:href="#Arial-BoldMT-53" transform="translate(144.482422 0)"/>
     <use xlink:href="#Arial-BoldMT-49" transform="translate(211.181641 0)"/>
     <use xlink:href="#Arial-BoldMT-5a" transform="translate(238.964844 0)"/>
     <use xlink:href="#Arial-BoldMT-49" transform="translate(300.048828 0)"/>
     <use xlink:href="#Arial-BoldMT-4f" transform="translate(327.832031 0)"/>
     <use xlink:href="#Arial-BoldMT-4e" transform="translate(405.615234 0)"/>
     <use xlink:href="#Arial-BoldMT-45" transform="translate(477.832031 0)"/>
    </g>
    <!-- ATTUALE -->
    <g style="fill: #7b1fa2" transform="translate(22.55625 532.428469) scale(0.18 -0.18)">
     <defs>
      <path id="Arial-BoldMT-55" d="M 459 4581 
L 1384 4581 
L 1384 2100 
Q 1384 1509 1419 1334 
Q 1478 1053 1701 883 
Q 1925 713 2313 713 
Q 2706 713 2906 873 
Q 3106 1034 3147 1268 
Q 3188 1503 3188 2047 
L 3188 4581 
L 4113 4581 
L 4113 2175 
Q 4113 1350 4038 1009 
Q 3963 669 3761 434 
Q 3559 200 3221 61 
Q 2884 -78 2341 -78 
Q 1684 -78 1345 73 
Q 1006 225 809 467 
Q 613 709 550 975 
Q 459 1369 459 2138 
L 459 4581 
z
" transform="scale(0.015625)"/>
     </defs>
     <use xlink:href="#Arial-BoldMT-41"/>
     <use xlink:href="#Arial-BoldMT-54" transform="translate(64.841797 0)"/>
     <use xlink:href="#Arial-BoldMT-54" transform="translate(125.925781 0)"/>
     <use xlink:href="#Arial-BoldMT-55" transform="translate(187.009766 0)"/>
     <use xlink:href="#Arial-BoldMT-41" transform="translate(259.226562 0)"/>
     <use xlink:href="#Arial-BoldMT-4c" transform="translate(331.443359 0)"/>
     <use xlink:href="#Arial-BoldMT-45" transform="translate(392.527344 0)"/>
    </g>
   </g>
   <g id="text_7">
    <!-- Modello di Maturità della Conformità -->
    <g style="fill: #212121" transform="translate(437.305351 55.872) scale(0.26 -0.26)">
     <defs>
      <path id="Arial-BoldMT-6f" d="M 256 1706 
Q 256 2144 472 2553 
Q 688 2963 1083 3178 
Q 1478 3394 1966 3394 
Q 2719 3394 3200 2905 
Q 3681 2416 3681 1669 
Q 3681 916 3195 420 
Q 2709 -75 1972 -75 
Q 1516 -75 1102 131 
Q 688 338 472 736 
Q 256 1134 256 1706 
z
M 1156 1659 
Q 1156 1166 1390 903 
Q 1625 641 1969 641 
Q 2313 641 2545 903 
Q 2778 1166 2778 1666 
Q 2778 2153 2545 2415 
Q 2313 2678 1969 2678 
Q 1625 2678 1390 2415 
Q 1156 2153 1156 1659 
z
" transform="scale(0.015625)"/>
      <path id="Arial-BoldMT-64" d="M 3503 0 
L 2688 0 
L 2688 488 
Q 2484 203 2207 64 
Q 1931 -75 1650 -75 
Q 1078 -75 670 386 
Q 263 847 263 1672 
Q 263 2516 659 2955 
Q 1056 3394 1663 3394 
Q 2219 3394 2625 2931 
L 2625 4581 
L 3503 4581 
L 3503 0 
z
M 1159 1731 
Q 1159 1200 1306 963 
Q 1519 619 1900 619 
Q 2203 619 2415 876 
Q 2628 1134 2628 1647 
Q 2628 2219 2422 2470 
Q 2216 2722 1894 2722 
Q 1581 2722 1370 2473 
Q 1159 2225 1159 1731 
z
" transform="scale(0.015625)"/>
      <path id="Arial-BoldMT-65" d="M 2381 1056 
L 3256 909 
Q 3088 428 2723 176 
Q 2359 -75 1813 -75 
Q 947 -75 531 491 
Q 203 944 203 1634 
Q 203 2459 634 2926 
Q 1066 3394 1725 3394 
Q 2466 3394 2894 2905 
Q 3322 2416 3303 1406 
L 1103 1406 
Q 1113 1016 1316 798 
Q 1519 581 1822 581 
Q 2028 581 2168 693 
Q 2309 806 2381 1056 
z
M 2431 1944 
Q 2422 2325 2234 2523 
Q 2047 2722 1778 2722 
Q 1491 2722 1303 2513 
Q 1116 2303 1119 1944 
L 2431 1944 
z
" transform="scale(0.015625)"/>
      <path id="Arial-BoldMT-6c" d="M 459 0 
L 459 4581 
L 1338 4581 
L 1338 0 
L 459 0 
z
" transform="scale(0.015625)"/>
      <path id="Arial-BoldMT-69" d="M 459 3769 
L 459 4581 
L 1338 4581 
L 1338 3769 
L 459 3769 
z
M 459 0 
L 459 3319 
L 1338 3319 
L 1338 0 
L 459 0 
z
" transform="scale(0.015625)"/>
      <path id="Arial-BoldMT-61" d="M 1116 2306 
L 319 2450 
Q 453 2931 781 3162 
Q 1109 3394 1756 3394 
Q 2344 3394 2631 3255 
Q 2919 3116 3036 2902 
Q 3153 2688 3153 2116 
L 3144 1091 
Q 3144 653 3186 445 
Q 3228 238 3344 0 
L 2475 0 
Q 2441 88 2391 259 
Q 2369 338 2359 363 
Q 2134 144 1878 34 
Q 1622 -75 1331 -75 
Q 819 -75 523 203 
Q 228 481 228 906 
Q 228 1188 362 1408 
Q 497 1628 739 1745 
Q 981 1863 1438 1950 
Q 2053 2066 2291 2166 
L 2291 2253 
Q 2291 2506 2166 2614 
Q 2041 2722 1694 2722 
Q 1459 2722 1328 2630 
Q 1197 2538 1116 2306 
z
M 2291 1594 
Q 2122 1538 1756 1459 
Q 1391 1381 1278 1306 
Q 1106 1184 1106 997 
Q 1106 813 1243 678 
Q 1381 544 1594 544 
Q 1831 544 2047 700 
Q 2206 819 2256 991 
Q 2291 1103 2291 1419 
L 2291 1594 
z
" transform="scale(0.015625)"/>
      <path id="Arial-BoldMT-74" d="M 1981 3319 
L 1981 2619 
L 1381 2619 
L 1381 1281 
Q 1381 875 1398 808 
Q 1416 741 1477 697 
Q 1538 653 1625 653 
Q 1747 653 1978 738 
L 2053 56 
Q 1747 -75 1359 -75 
Q 1122 -75 931 4 
Q 741 84 652 211 
Q 563 338 528 553 
Q 500 706 500 1172 
L 500 2619 
L 97 2619 
L 97 3319 
L 500 3319 
L 500 3978 
L 1381 4491 
L 1381 3319 
L 1981 3319 
z
" transform="scale(0.015625)"/>
      <path id="Arial-BoldMT-75" d="M 2644 0 
L 2644 497 
Q 2463 231 2167 78 
Q 1872 -75 1544 -75 
Q 1209 -75 943 72 
Q 678 219 559 484 
Q 441 750 441 1219 
L 441 3319 
L 1319 3319 
L 1319 1794 
Q 1319 1094 1367 936 
Q 1416 778 1544 686 
Q 1672 594 1869 594 
Q 2094 594 2272 717 
Q 2450 841 2515 1023 
Q 2581 1206 2581 1919 
L 2581 3319 
L 3459 3319 
L 3459 0 
L 2644 0 
z
" transform="scale(0.015625)"/>
      <path id="Arial-BoldMT-72" d="M 1300 0 
L 422 0 
L 422 3319 
L 1238 3319 
L 1238 2847 
Q 1447 3181 1614 3287 
Q 1781 3394 1994 3394 
Q 2294 3394 2572 3228 
L 2300 2463 
Q 2078 2606 1888 2606 
Q 1703 2606 1575 2504 
Q 1447 2403 1373 2137 
Q 1300 1872 1300 1025 
L 1300 0 
z
" transform="scale(0.015625)"/>
      <path id="Arial-BoldMT-e0" d="M 1116 2306 
L 319 2450 
Q 453 2931 781 3162 
Q 1109 3394 1756 3394 
Q 2344 3394 2631 3255 
Q 2919 3116 3036 2902 
Q 3153 2688 3153 2116 
L 3144 1091 
Q 3144 653 3186 445 
Q 3228 238 3344 0 
L 2475 0 
Q 2441 88 2391 259 
Q 2369 338 2359 363 
Q 2134 144 1878 34 
Q 1622 -75 1331 -75 
Q 819 -75 523 203 
Q 228 481 228 906 
Q 228 1188 362 1408 
Q 497 1628 739 1745 
Q 981 1863 1438 1950 
Q 2053 2066 2291 2166 
L 2291 2253 
Q 2291 2506 2166 2614 
Q 2041 2722 1694 2722 
Q 1459 2722 1328 2630 
Q 1197 2538 1116 2306 
z
M 2291 1594 
Q 2122 1538 1756 1459 
Q 1391 1381 1278 1306 
Q 1106 1184 1106 997 
Q 1106 813 1243 678 
Q 1381 544 1594 544 
Q 1831 544 2047 700 
Q 2206 819 2256 991 
Q 2291 1103 2291 1419 
L 2291 1594 
z
M 2227 3725 
L 1674 3725 
L 811 4659 
L 1796 4659 
L 2227 3725 
z
" transform="scale(0.015625)"/>
      <path id="Arial-BoldMT-6e" d="M 3478 0 
L 2600 0 
L 2600 1694 
Q 2600 2231 2544 2389 
Q 2488 2547 2361 2634 
Q 2234 2722 2056 2722 
Q 1828 2722 1647 2597 
Q 1466 2472 1398 2265 
Q 1331 2059 1331 1503 
L 1331 0 
L 453 0 
L 453 3319 
L 1269 3319 
L 1269 2831 
Q 1703 3394 2363 3394 
Q 2653 3394 2893 3289 
Q 3134 3184 3257 3021 
Q 3381 2859 3429 2653 
Q 3478 2447 3478 2063 
L 3478 0 
z
" transform="scale(0.015625)"/>
      <path id="Arial-BoldMT-66" d="M 75 3319 
L 563 3319 
L 563 3569 
Q 563 3988 652 4194 
Q 741 4400 980 4529 
Q 1219 4659 1584 4659 
Q 1959 4659 2319 4547 
L 2200 3934 
Q 1991 3984 1797 3984 
Q 1606 3984 1523 3895 
Q 1441 3806 1441 3553 
L 1441 3319 
L 2097 3319 
L 2097 2628 
L 1441 2628 
L 1441 0 
L 563 0 
L 563 2628 
L 75 2628 
L 75 3319 
z
" transform="scale(0.015625)"/>
      <path id="Arial-BoldMT-6d" d="M 394 3319 
L 1203 3319 
L 1203 2866 
Q 1638 3394 2238 3394 
Q 2556 3394 2790 3262 
Q 3025 3131 3175 2866 
Q 3394 3131 3647 3262 
Q 3900 3394 4188 3394 
Q 4553 3394 4806 3245 
Q 5059 3097 5184 2809 
Q 5275 2597 5275 2122 
L 5275 0 
L 4397 0 
L 4397 1897 
Q 4397 2391 4306 2534 
Q 4184 2722 3931 2722 
Q 3747 2722 3584 2609 
Q 3422 2497 3350 2280 
Q 3278 2063 3278 1594 
L 3278 0 
L 2400 0 
L 2400 1819 
Q 2400 2303 2353 2443 
Q 2306 2584 2207 2653 
Q 2109 2722 1941 2722 
Q 1738 2722 1575 2612 
Q 1413 2503 1342 2297 
Q 1272 2091 1272 1613 
L 1272 0 
L 394 0 
L 394 3319 
z
" transform="scale(0.015625)"/>
     </defs>
     <use xlink:href="#Arial-BoldMT-4d"/>
     <use xlink:href="#Arial-BoldMT-6f" transform="translate(83.300781 0)"/>
     <use xlink:href="#Arial-BoldMT-64" transform="translate(144.384766 0)"/>
     <use xlink:href="#Arial-BoldMT-65" transform="translate(205.46875 0)"/>
     <use xlink:href="#Arial-BoldMT-6c" transform="translate(261.083984 0)"/>
     <use xlink:href="#Arial-BoldMT-6c" transform="translate(288.867188 0)"/>
     <use xlink:href="#Arial-BoldMT-6f" transform="translate(316.650391 0)"/>
     <use xlink:href="#Arial-BoldMT-20" transform="translate(377.734375 0)"/>
     <use xlink:href="#Arial-BoldMT-64" transform="translate(405.517578 0)"/>
     <use xlink:href="#Arial-BoldMT-69" transform="translate(466.601562 0)"/>
     <use xlink:href="#Arial-BoldMT-20" transform="translate(494.384766 0)"/>
     <use xlink:href="#Arial-BoldMT-4d" transform="translate(522.167969 0)"/>
     <use xlink:href="#Arial-BoldMT-61" transform="translate(605.46875 0)"/>
     <use xlink:href="#Arial-BoldMT-74" transform="translate(661.083984 0)"/>
     <use xlink:href="#Arial-BoldMT-75" transform="translate(694.384766 0)"/>
     <use xlink:href="#Arial-BoldMT-72" transform="translate(755.46875 0)"/>
     <use xlink:href="#Arial-BoldMT-69" transform="translate(794.384766 0)"/>
     <use xlink:href="#Arial-BoldMT-74" transform="translate(822.167969 0)"/>
     <use xlink:href="#Arial-BoldMT-e0" transform="translate(855.46875 0)"/>
     <use xlink:href="#Arial-BoldMT-20" transform="translate(911.083984 0)"/>
     <use xlink:href="#Arial-BoldMT-64" transform="translate(938.867188 0)"/>
     <use xlink:href="#Arial-BoldMT-65" transform="translate(999.951172 0)"/>
     <use xlink:href="#Arial-BoldMT-6c" transform="translate(1055.566406 0)"/>
     <use xlink:href="#Arial-BoldMT-6c" transform="translate(1083.349609 0)"/>
     <use xlink:href="#Arial-BoldMT-61" transform="translate(1111.132812 0)"/>
     <use xlink:href="#Arial-BoldMT-20" transform="translate(1166.748047 0)"/>
     <use xlink:href="#Arial-BoldMT-43" transform="translate(1194.53125 0)"/>
     <use xlink:href="#Arial-BoldMT-6f" transform="translate(1266.748047 0)"/>
     <use xlink:href="#Arial-BoldMT-6e" transform="translate(1327.832031 0)"/>
     <use xlink:href="#Arial-BoldMT-66" transform="translate(1388.916016 0)"/>
     <use xlink:href="#Arial-BoldMT-6f" transform="translate(1422.216797 0)"/>
     <use xlink:href="#Arial-BoldMT-72" transform="translate(1483.300781 0)"/>
     <use xlink:href="#Arial-BoldMT-6d" transform="translate(1522.216797 0)"/>
     <use xlink:href="#Arial-BoldMT-69" transform="translate(1611.132812 0)"/>
     <use xlink:href="#Arial-BoldMT-74" transform="translate(1638.916016 0)"/>
     <use xlink:href="#Arial-BoldMT-e0" transform="translate(1672.216797 0)"/>
    </g>
   </g>
  </g>
 </g>
 <defs>
  <clipPath id="pb381a76faa">
   <rect x="62.393074" y="7.2" width="1199.031429" height="973.44"/>
  </clipPath>
 </defs>
</svg>
