<?xml version="1.0" encoding="utf-8" standalone="no"?>
<!DOCTYPE svg PUBLIC "-//W3C//DTD SVG 1.1//EN"
  "http://www.w3.org/Graphics/SVG/1.1/DTD/svg11.dtd">
<svg xmlns:xlink="http://www.w3.org/1999/xlink" width="1419.625pt" height="699.822187pt" viewBox="0 0 1419.625 699.822187" xmlns="http://www.w3.org/2000/svg" version="1.1">
 <metadata>
  <rdf:RDF xmlns:dc="http://purl.org/dc/elements/1.1/" xmlns:cc="http://creativecommons.org/ns#" xmlns:rdf="http://www.w3.org/1999/02/22-rdf-syntax-ns#">
   <cc:Work>
    <dc:type rdf:resource="http://purl.org/dc/dcmitype/StillImage"/>
    <dc:date>2025-09-19T01:25:04.755881</dc:date>
    <dc:format>image/svg+xml</dc:format>
    <dc:creator>
     <cc:Agent>
      <dc:title>Matplotlib v3.10.6, https://matplotlib.org/</dc:title>
     </cc:Agent>
    </dc:creator>
   </cc:Work>
  </rdf:RDF>
 </metadata>
 <defs>
  <style type="text/css">*{stroke-linejoin: round; stroke-linecap: butt}</style>
 </defs>
 <g id="figure_1">
  <g id="patch_1">
   <path d="M 0 699.822187 
L 1419.625 699.822187 
L 1419.625 0 
L 0 0 
z
" style="fill: #ffffff"/>
  </g>
  <g id="axes_1">
   <g id="patch_2">
    <path d="M 69.335 648.727187 
L 1412.425 648.727187 
L 1412.425 46.127187 
L 69.335 46.127187 
z
" style="fill: #ffffff"/>
   </g>
   <g id="matplotlib.axis_1">
    <g id="xtick_1">
     <g id="line2d_1">
      <path d="M 69.335 648.727187 
L 69.335 46.127187 
" clip-path="url(#padf586acfa)" style="fill: none; stroke: #b0b0b0; stroke-opacity: 0.3; stroke-linecap: square"/>
     </g>
     <g id="line2d_2">
      <defs>
       <path id="m03f1ad0fed" d="M 0 0 
L 0 3.5 
" style="stroke: #000000; stroke-width: 0.8"/>
      </defs>
      <g>
       <use xlink:href="#m03f1ad0fed" x="69.335" y="648.727187" style="stroke: #000000; stroke-width: 0.8"/>
      </g>
     </g>
     <g id="text_1">
      <!-- 0 -->
      <g transform="translate(64.88625 667.179687) scale(0.16 -0.16)">
       <defs>
        <path id="ArialMT-30" d="M 266 2259 
Q 266 3072 433 3567 
Q 600 4063 929 4331 
Q 1259 4600 1759 4600 
Q 2128 4600 2406 4451 
Q 2684 4303 2865 4023 
Q 3047 3744 3150 3342 
Q 3253 2941 3253 2259 
Q 3253 1453 3087 958 
Q 2922 463 2592 192 
Q 2263 -78 1759 -78 
Q 1097 -78 719 397 
Q 266 969 266 2259 
z
M 844 2259 
Q 844 1131 1108 757 
Q 1372 384 1759 384 
Q 2147 384 2411 759 
Q 2675 1134 2675 2259 
Q 2675 3391 2411 3762 
Q 2147 4134 1753 4134 
Q 1366 4134 1134 3806 
Q 844 3388 844 2259 
z
" transform="scale(0.015625)"/>
       </defs>
       <use xlink:href="#ArialMT-30"/>
      </g>
     </g>
    </g>
    <g id="xtick_2">
     <g id="line2d_3">
      <path d="M 224.306923 648.727187 
L 224.306923 46.127187 
" clip-path="url(#padf586acfa)" style="fill: none; stroke: #b0b0b0; stroke-opacity: 0.3; stroke-linecap: square"/>
     </g>
     <g id="line2d_4">
      <g>
       <use xlink:href="#m03f1ad0fed" x="224.306923" y="648.727187" style="stroke: #000000; stroke-width: 0.8"/>
      </g>
     </g>
     <g id="text_2">
      <!-- 3 -->
      <g transform="translate(219.858173 667.179687) scale(0.16 -0.16)">
       <defs>
        <path id="ArialMT-33" d="M 269 1209 
L 831 1284 
Q 928 806 1161 595 
Q 1394 384 1728 384 
Q 2125 384 2398 659 
Q 2672 934 2672 1341 
Q 2672 1728 2419 1979 
Q 2166 2231 1775 2231 
Q 1616 2231 1378 2169 
L 1441 2663 
Q 1497 2656 1531 2656 
Q 1891 2656 2178 2843 
Q 2466 3031 2466 3422 
Q 2466 3731 2256 3934 
Q 2047 4138 1716 4138 
Q 1388 4138 1169 3931 
Q 950 3725 888 3313 
L 325 3413 
Q 428 3978 793 4289 
Q 1159 4600 1703 4600 
Q 2078 4600 2393 4439 
Q 2709 4278 2876 4000 
Q 3044 3722 3044 3409 
Q 3044 3113 2884 2869 
Q 2725 2625 2413 2481 
Q 2819 2388 3044 2092 
Q 3269 1797 3269 1353 
Q 3269 753 2831 336 
Q 2394 -81 1725 -81 
Q 1122 -81 723 278 
Q 325 638 269 1209 
z
" transform="scale(0.015625)"/>
       </defs>
       <use xlink:href="#ArialMT-33"/>
      </g>
     </g>
    </g>
    <g id="xtick_3">
     <g id="line2d_5">
      <path d="M 379.278846 648.727187 
L 379.278846 46.127187 
" clip-path="url(#padf586acfa)" style="fill: none; stroke: #b0b0b0; stroke-opacity: 0.3; stroke-linecap: square"/>
     </g>
     <g id="line2d_6">
      <g>
       <use xlink:href="#m03f1ad0fed" x="379.278846" y="648.727187" style="stroke: #000000; stroke-width: 0.8"/>
      </g>
     </g>
     <g id="text_3">
      <!-- 6 -->
      <g transform="translate(374.830096 667.179687) scale(0.16 -0.16)">
       <defs>
        <path id="ArialMT-36" d="M 3184 3459 
L 2625 3416 
Q 2550 3747 2413 3897 
Q 2184 4138 1850 4138 
Q 1581 4138 1378 3988 
Q 1113 3794 959 3422 
Q 806 3050 800 2363 
Q 1003 2672 1297 2822 
Q 1591 2972 1913 2972 
Q 2475 2972 2870 2558 
Q 3266 2144 3266 1488 
Q 3266 1056 3080 686 
Q 2894 316 2569 119 
Q 2244 -78 1831 -78 
Q 1128 -78 684 439 
Q 241 956 241 2144 
Q 241 3472 731 4075 
Q 1159 4600 1884 4600 
Q 2425 4600 2770 4297 
Q 3116 3994 3184 3459 
z
M 888 1484 
Q 888 1194 1011 928 
Q 1134 663 1356 523 
Q 1578 384 1822 384 
Q 2178 384 2434 671 
Q 2691 959 2691 1453 
Q 2691 1928 2437 2201 
Q 2184 2475 1800 2475 
Q 1419 2475 1153 2201 
Q 888 1928 888 1484 
z
" transform="scale(0.015625)"/>
       </defs>
       <use xlink:href="#ArialMT-36"/>
      </g>
     </g>
    </g>
    <g id="xtick_4">
     <g id="line2d_7">
      <path d="M 534.250769 648.727187 
L 534.250769 46.127187 
" clip-path="url(#padf586acfa)" style="fill: none; stroke: #b0b0b0; stroke-opacity: 0.3; stroke-linecap: square"/>
     </g>
     <g id="line2d_8">
      <g>
       <use xlink:href="#m03f1ad0fed" x="534.250769" y="648.727187" style="stroke: #000000; stroke-width: 0.8"/>
      </g>
     </g>
     <g id="text_4">
      <!-- 9 -->
      <g transform="translate(529.802019 667.179687) scale(0.16 -0.16)">
       <defs>
        <path id="ArialMT-39" d="M 350 1059 
L 891 1109 
Q 959 728 1153 556 
Q 1347 384 1650 384 
Q 1909 384 2104 503 
Q 2300 622 2425 820 
Q 2550 1019 2634 1356 
Q 2719 1694 2719 2044 
Q 2719 2081 2716 2156 
Q 2547 1888 2255 1720 
Q 1963 1553 1622 1553 
Q 1053 1553 659 1965 
Q 266 2378 266 3053 
Q 266 3750 677 4175 
Q 1088 4600 1706 4600 
Q 2153 4600 2523 4359 
Q 2894 4119 3086 3673 
Q 3278 3228 3278 2384 
Q 3278 1506 3087 986 
Q 2897 466 2520 194 
Q 2144 -78 1638 -78 
Q 1100 -78 759 220 
Q 419 519 350 1059 
z
M 2653 3081 
Q 2653 3566 2395 3850 
Q 2138 4134 1775 4134 
Q 1400 4134 1122 3828 
Q 844 3522 844 3034 
Q 844 2597 1108 2323 
Q 1372 2050 1759 2050 
Q 2150 2050 2401 2323 
Q 2653 2597 2653 3081 
z
" transform="scale(0.015625)"/>
       </defs>
       <use xlink:href="#ArialMT-39"/>
      </g>
     </g>
    </g>
    <g id="xtick_5">
     <g id="line2d_9">
      <path d="M 689.222692 648.727187 
L 689.222692 46.127187 
" clip-path="url(#padf586acfa)" style="fill: none; stroke: #b0b0b0; stroke-opacity: 0.3; stroke-linecap: square"/>
     </g>
     <g id="line2d_10">
      <g>
       <use xlink:href="#m03f1ad0fed" x="689.222692" y="648.727187" style="stroke: #000000; stroke-width: 0.8"/>
      </g>
     </g>
     <g id="text_5">
      <!-- 12 -->
      <g transform="translate(680.325192 667.179687) scale(0.16 -0.16)">
       <defs>
        <path id="ArialMT-31" d="M 2384 0 
L 1822 0 
L 1822 3584 
Q 1619 3391 1289 3197 
Q 959 3003 697 2906 
L 697 3450 
Q 1169 3672 1522 3987 
Q 1875 4303 2022 4600 
L 2384 4600 
L 2384 0 
z
" transform="scale(0.015625)"/>
        <path id="ArialMT-32" d="M 3222 541 
L 3222 0 
L 194 0 
Q 188 203 259 391 
Q 375 700 629 1000 
Q 884 1300 1366 1694 
Q 2113 2306 2375 2664 
Q 2638 3022 2638 3341 
Q 2638 3675 2398 3904 
Q 2159 4134 1775 4134 
Q 1369 4134 1125 3890 
Q 881 3647 878 3216 
L 300 3275 
Q 359 3922 746 4261 
Q 1134 4600 1788 4600 
Q 2447 4600 2831 4234 
Q 3216 3869 3216 3328 
Q 3216 3053 3103 2787 
Q 2991 2522 2730 2228 
Q 2469 1934 1863 1422 
Q 1356 997 1212 845 
Q 1069 694 975 541 
L 3222 541 
z
" transform="scale(0.015625)"/>
       </defs>
       <use xlink:href="#ArialMT-31"/>
       <use xlink:href="#ArialMT-32" transform="translate(55.615234 0)"/>
      </g>
     </g>
    </g>
    <g id="xtick_6">
     <g id="line2d_11">
      <path d="M 844.194615 648.727187 
L 844.194615 46.127187 
" clip-path="url(#padf586acfa)" style="fill: none; stroke: #b0b0b0; stroke-opacity: 0.3; stroke-linecap: square"/>
     </g>
     <g id="line2d_12">
      <g>
       <use xlink:href="#m03f1ad0fed" x="844.194615" y="648.727187" style="stroke: #000000; stroke-width: 0.8"/>
      </g>
     </g>
     <g id="text_6">
      <!-- 15 -->
      <g transform="translate(835.297115 667.179687) scale(0.16 -0.16)">
       <defs>
        <path id="ArialMT-35" d="M 266 1200 
L 856 1250 
Q 922 819 1161 601 
Q 1400 384 1738 384 
Q 2144 384 2425 690 
Q 2706 997 2706 1503 
Q 2706 1984 2436 2262 
Q 2166 2541 1728 2541 
Q 1456 2541 1237 2417 
Q 1019 2294 894 2097 
L 366 2166 
L 809 4519 
L 3088 4519 
L 3088 3981 
L 1259 3981 
L 1013 2750 
Q 1425 3038 1878 3038 
Q 2478 3038 2890 2622 
Q 3303 2206 3303 1553 
Q 3303 931 2941 478 
Q 2500 -78 1738 -78 
Q 1113 -78 717 272 
Q 322 622 266 1200 
z
" transform="scale(0.015625)"/>
       </defs>
       <use xlink:href="#ArialMT-31"/>
       <use xlink:href="#ArialMT-35" transform="translate(55.615234 0)"/>
      </g>
     </g>
    </g>
    <g id="xtick_7">
     <g id="line2d_13">
      <path d="M 999.166538 648.727187 
L 999.166538 46.127187 
" clip-path="url(#padf586acfa)" style="fill: none; stroke: #b0b0b0; stroke-opacity: 0.3; stroke-linecap: square"/>
     </g>
     <g id="line2d_14">
      <g>
       <use xlink:href="#m03f1ad0fed" x="999.166538" y="648.727187" style="stroke: #000000; stroke-width: 0.8"/>
      </g>
     </g>
     <g id="text_7">
      <!-- 18 -->
      <g transform="translate(990.269038 667.179687) scale(0.16 -0.16)">
       <defs>
        <path id="ArialMT-38" d="M 1131 2484 
Q 781 2613 612 2850 
Q 444 3088 444 3419 
Q 444 3919 803 4259 
Q 1163 4600 1759 4600 
Q 2359 4600 2725 4251 
Q 3091 3903 3091 3403 
Q 3091 3084 2923 2848 
Q 2756 2613 2416 2484 
Q 2838 2347 3058 2040 
Q 3278 1734 3278 1309 
Q 3278 722 2862 322 
Q 2447 -78 1769 -78 
Q 1091 -78 675 323 
Q 259 725 259 1325 
Q 259 1772 486 2073 
Q 713 2375 1131 2484 
z
M 1019 3438 
Q 1019 3113 1228 2906 
Q 1438 2700 1772 2700 
Q 2097 2700 2305 2904 
Q 2513 3109 2513 3406 
Q 2513 3716 2298 3927 
Q 2084 4138 1766 4138 
Q 1444 4138 1231 3931 
Q 1019 3725 1019 3438 
z
M 838 1322 
Q 838 1081 952 856 
Q 1066 631 1291 507 
Q 1516 384 1775 384 
Q 2178 384 2440 643 
Q 2703 903 2703 1303 
Q 2703 1709 2433 1975 
Q 2163 2241 1756 2241 
Q 1359 2241 1098 1978 
Q 838 1716 838 1322 
z
" transform="scale(0.015625)"/>
       </defs>
       <use xlink:href="#ArialMT-31"/>
       <use xlink:href="#ArialMT-38" transform="translate(55.615234 0)"/>
      </g>
     </g>
    </g>
    <g id="xtick_8">
     <g id="line2d_15">
      <path d="M 1154.138462 648.727187 
L 1154.138462 46.127187 
" clip-path="url(#padf586acfa)" style="fill: none; stroke: #b0b0b0; stroke-opacity: 0.3; stroke-linecap: square"/>
     </g>
     <g id="line2d_16">
      <g>
       <use xlink:href="#m03f1ad0fed" x="1154.138462" y="648.727187" style="stroke: #000000; stroke-width: 0.8"/>
      </g>
     </g>
     <g id="text_8">
      <!-- 21 -->
      <g transform="translate(1145.240962 667.179687) scale(0.16 -0.16)">
       <use xlink:href="#ArialMT-32"/>
       <use xlink:href="#ArialMT-31" transform="translate(55.615234 0)"/>
      </g>
     </g>
    </g>
    <g id="xtick_9">
     <g id="line2d_17">
      <path d="M 1309.110385 648.727187 
L 1309.110385 46.127187 
" clip-path="url(#padf586acfa)" style="fill: none; stroke: #b0b0b0; stroke-opacity: 0.3; stroke-linecap: square"/>
     </g>
     <g id="line2d_18">
      <g>
       <use xlink:href="#m03f1ad0fed" x="1309.110385" y="648.727187" style="stroke: #000000; stroke-width: 0.8"/>
      </g>
     </g>
     <g id="text_9">
      <!-- 24 -->
      <g transform="translate(1300.212885 667.179687) scale(0.16 -0.16)">
       <defs>
        <path id="ArialMT-34" d="M 2069 0 
L 2069 1097 
L 81 1097 
L 81 1613 
L 2172 4581 
L 2631 4581 
L 2631 1613 
L 3250 1613 
L 3250 1097 
L 2631 1097 
L 2631 0 
L 2069 0 
z
M 2069 1613 
L 2069 3678 
L 634 1613 
L 2069 1613 
z
" transform="scale(0.015625)"/>
       </defs>
       <use xlink:href="#ArialMT-32"/>
       <use xlink:href="#ArialMT-34" transform="translate(55.615234 0)"/>
      </g>
     </g>
    </g>
    <g id="text_10">
     <!-- MESI -->
     <g transform="translate(716.431562 688.675312) scale(0.2 -0.2)">
      <defs>
       <path id="Arial-BoldMT-4d" d="M 453 0 
L 453 4581 
L 1838 4581 
L 2669 1456 
L 3491 4581 
L 4878 4581 
L 4878 0 
L 4019 0 
L 4019 3606 
L 3109 0 
L 2219 0 
L 1313 3606 
L 1313 0 
L 453 0 
z
" transform="scale(0.015625)"/>
       <path id="Arial-BoldMT-45" d="M 466 0 
L 466 4581 
L 3863 4581 
L 3863 3806 
L 1391 3806 
L 1391 2791 
L 3691 2791 
L 3691 2019 
L 1391 2019 
L 1391 772 
L 3950 772 
L 3950 0 
L 466 0 
z
" transform="scale(0.015625)"/>
       <path id="Arial-BoldMT-53" d="M 231 1491 
L 1131 1578 
Q 1213 1125 1461 912 
Q 1709 700 2131 700 
Q 2578 700 2804 889 
Q 3031 1078 3031 1331 
Q 3031 1494 2936 1608 
Q 2841 1722 2603 1806 
Q 2441 1863 1863 2006 
Q 1119 2191 819 2459 
Q 397 2838 397 3381 
Q 397 3731 595 4036 
Q 794 4341 1167 4500 
Q 1541 4659 2069 4659 
Q 2931 4659 3367 4281 
Q 3803 3903 3825 3272 
L 2900 3231 
Q 2841 3584 2645 3739 
Q 2450 3894 2059 3894 
Q 1656 3894 1428 3728 
Q 1281 3622 1281 3444 
Q 1281 3281 1419 3166 
Q 1594 3019 2269 2859 
Q 2944 2700 3267 2529 
Q 3591 2359 3773 2064 
Q 3956 1769 3956 1334 
Q 3956 941 3737 597 
Q 3519 253 3119 86 
Q 2719 -81 2122 -81 
Q 1253 -81 787 320 
Q 322 722 231 1491 
z
" transform="scale(0.015625)"/>
       <path id="Arial-BoldMT-49" d="M 438 0 
L 438 4581 
L 1363 4581 
L 1363 0 
L 438 0 
z
" transform="scale(0.015625)"/>
      </defs>
      <use xlink:href="#Arial-BoldMT-4d"/>
      <use xlink:href="#Arial-BoldMT-45" transform="translate(83.300781 0)"/>
      <use xlink:href="#Arial-BoldMT-53" transform="translate(150 0)"/>
      <use xlink:href="#Arial-BoldMT-49" transform="translate(216.699219 0)"/>
     </g>
    </g>
   </g>
   <g id="matplotlib.axis_2">
    <g id="ytick_1">
     <g id="line2d_19">
      <defs>
       <path id="mb4da31e590" d="M 0 0 
L -3.5 0 
" style="stroke: #000000; stroke-width: 0.8"/>
      </defs>
      <g>
       <use xlink:href="#mb4da31e590" x="69.335" y="593.945369" style="stroke: #000000; stroke-width: 0.8"/>
      </g>
     </g>
     <g id="text_11">
      <!-- FASE 1 -->
      <g transform="translate(7.2 599.671619) scale(0.16 -0.16)">
       <defs>
        <path id="Arial-BoldMT-46" d="M 472 0 
L 472 4581 
L 3613 4581 
L 3613 3806 
L 1397 3806 
L 1397 2722 
L 3309 2722 
L 3309 1947 
L 1397 1947 
L 1397 0 
L 472 0 
z
" transform="scale(0.015625)"/>
        <path id="Arial-BoldMT-41" d="M 4597 0 
L 3591 0 
L 3191 1041 
L 1359 1041 
L 981 0 
L 0 0 
L 1784 4581 
L 2763 4581 
L 4597 0 
z
M 2894 1813 
L 2263 3513 
L 1644 1813 
L 2894 1813 
z
" transform="scale(0.015625)"/>
        <path id="Arial-BoldMT-20" transform="scale(0.015625)"/>
        <path id="Arial-BoldMT-31" d="M 2519 0 
L 1641 0 
L 1641 3309 
Q 1159 2859 506 2644 
L 506 3441 
Q 850 3553 1253 3867 
Q 1656 4181 1806 4600 
L 2519 4600 
L 2519 0 
z
" transform="scale(0.015625)"/>
       </defs>
       <use xlink:href="#Arial-BoldMT-46"/>
       <use xlink:href="#Arial-BoldMT-41" transform="translate(55.583984 0)"/>
       <use xlink:href="#Arial-BoldMT-53" transform="translate(127.800781 0)"/>
       <use xlink:href="#Arial-BoldMT-45" transform="translate(194.5 0)"/>
       <use xlink:href="#Arial-BoldMT-20" transform="translate(261.199219 0)"/>
       <use xlink:href="#Arial-BoldMT-31" transform="translate(288.982422 0)"/>
      </g>
     </g>
    </g>
    <g id="ytick_2">
     <g id="line2d_20">
      <g>
       <use xlink:href="#mb4da31e590" x="69.335" y="484.381733" style="stroke: #000000; stroke-width: 0.8"/>
      </g>
     </g>
     <g id="text_12">
      <!-- FASE 2 -->
      <g transform="translate(7.2 490.107983) scale(0.16 -0.16)">
       <defs>
        <path id="Arial-BoldMT-32" d="M 3238 816 
L 3238 0 
L 159 0 
Q 209 463 459 877 
Q 709 1291 1447 1975 
Q 2041 2528 2175 2725 
Q 2356 2997 2356 3263 
Q 2356 3556 2198 3714 
Q 2041 3872 1763 3872 
Q 1488 3872 1325 3706 
Q 1163 3541 1138 3156 
L 263 3244 
Q 341 3969 753 4284 
Q 1166 4600 1784 4600 
Q 2463 4600 2850 4234 
Q 3238 3869 3238 3325 
Q 3238 3016 3127 2736 
Q 3016 2456 2775 2150 
Q 2616 1947 2200 1565 
Q 1784 1184 1673 1059 
Q 1563 934 1494 816 
L 3238 816 
z
" transform="scale(0.015625)"/>
       </defs>
       <use xlink:href="#Arial-BoldMT-46"/>
       <use xlink:href="#Arial-BoldMT-41" transform="translate(55.583984 0)"/>
       <use xlink:href="#Arial-BoldMT-53" transform="translate(127.800781 0)"/>
       <use xlink:href="#Arial-BoldMT-45" transform="translate(194.5 0)"/>
       <use xlink:href="#Arial-BoldMT-20" transform="translate(261.199219 0)"/>
       <use xlink:href="#Arial-BoldMT-32" transform="translate(288.982422 0)"/>
      </g>
     </g>
    </g>
    <g id="ytick_3">
     <g id="line2d_21">
      <g>
       <use xlink:href="#mb4da31e590" x="69.335" y="374.818097" style="stroke: #000000; stroke-width: 0.8"/>
      </g>
     </g>
     <g id="text_13">
      <!-- FASE 3 -->
      <g transform="translate(7.2 380.544347) scale(0.16 -0.16)">
       <defs>
        <path id="Arial-BoldMT-33" d="M 241 1216 
L 1091 1319 
Q 1131 994 1309 822 
Q 1488 650 1741 650 
Q 2013 650 2198 856 
Q 2384 1063 2384 1413 
Q 2384 1744 2206 1937 
Q 2028 2131 1772 2131 
Q 1603 2131 1369 2066 
L 1466 2781 
Q 1822 2772 2009 2936 
Q 2197 3100 2197 3372 
Q 2197 3603 2059 3740 
Q 1922 3878 1694 3878 
Q 1469 3878 1309 3722 
Q 1150 3566 1116 3266 
L 306 3403 
Q 391 3819 561 4067 
Q 731 4316 1036 4458 
Q 1341 4600 1719 4600 
Q 2366 4600 2756 4188 
Q 3078 3850 3078 3425 
Q 3078 2822 2419 2463 
Q 2813 2378 3048 2084 
Q 3284 1791 3284 1375 
Q 3284 772 2843 347 
Q 2403 -78 1747 -78 
Q 1125 -78 715 280 
Q 306 638 241 1216 
z
" transform="scale(0.015625)"/>
       </defs>
       <use xlink:href="#Arial-BoldMT-46"/>
       <use xlink:href="#Arial-BoldMT-41" transform="translate(55.583984 0)"/>
       <use xlink:href="#Arial-BoldMT-53" transform="translate(127.800781 0)"/>
       <use xlink:href="#Arial-BoldMT-45" transform="translate(194.5 0)"/>
       <use xlink:href="#Arial-BoldMT-20" transform="translate(261.199219 0)"/>
       <use xlink:href="#Arial-BoldMT-33" transform="translate(288.982422 0)"/>
      </g>
     </g>
    </g>
    <g id="ytick_4">
     <g id="line2d_22">
      <g>
       <use xlink:href="#mb4da31e590" x="69.335" y="265.25446" style="stroke: #000000; stroke-width: 0.8"/>
      </g>
     </g>
     <g id="text_14">
      <!-- FASE 4 -->
      <g transform="translate(7.2 270.98071) scale(0.16 -0.16)">
       <defs>
        <path id="Arial-BoldMT-34" d="M 1994 0 
L 1994 922 
L 119 922 
L 119 1691 
L 2106 4600 
L 2844 4600 
L 2844 1694 
L 3413 1694 
L 3413 922 
L 2844 922 
L 2844 0 
L 1994 0 
z
M 1994 1694 
L 1994 3259 
L 941 1694 
L 1994 1694 
z
" transform="scale(0.015625)"/>
       </defs>
       <use xlink:href="#Arial-BoldMT-46"/>
       <use xlink:href="#Arial-BoldMT-41" transform="translate(55.583984 0)"/>
       <use xlink:href="#Arial-BoldMT-53" transform="translate(127.800781 0)"/>
       <use xlink:href="#Arial-BoldMT-45" transform="translate(194.5 0)"/>
       <use xlink:href="#Arial-BoldMT-20" transform="translate(261.199219 0)"/>
       <use xlink:href="#Arial-BoldMT-34" transform="translate(288.982422 0)"/>
      </g>
     </g>
    </g>
   </g>
   <g id="patch_3">
    <path d="M 69.335 626.81446 
L 224.306923 626.81446 
L 224.306923 561.076278 
L 69.335 561.076278 
z
" clip-path="url(#padf586acfa)" style="fill: #0288d1; opacity: 0.9; stroke: #212121; stroke-width: 3; stroke-linejoin: miter"/>
   </g>
   <g id="patch_4">
    <path d="M 224.306923 517.250824 
L 379.278846 517.250824 
L 379.278846 451.512642 
L 224.306923 451.512642 
z
" clip-path="url(#padf586acfa)" style="fill: #2e7d32; opacity: 0.9; stroke: #212121; stroke-width: 3; stroke-linejoin: miter"/>
   </g>
   <g id="patch_5">
    <path d="M 379.278846 407.687187 
L 689.222692 407.687187 
L 689.222692 341.949006 
L 379.278846 341.949006 
z
" clip-path="url(#padf586acfa)" style="fill: #f57c00; opacity: 0.9; stroke: #212121; stroke-width: 3; stroke-linejoin: miter"/>
   </g>
   <g id="patch_6">
    <path d="M 689.222692 298.123551 
L 1309.110385 298.123551 
L 1309.110385 232.385369 
L 689.222692 232.385369 
z
" clip-path="url(#padf586acfa)" style="fill: #1e3a5f; opacity: 0.9; stroke: #212121; stroke-width: 3; stroke-linejoin: miter"/>
   </g>
   <g id="line2d_23">
    <path d="M 224.306923 648.727187 
L 224.306923 46.127187 
" clip-path="url(#padf586acfa)" style="fill: none; stroke-dasharray: 11.1,4.8; stroke-dashoffset: 0; stroke: #d32f2f; stroke-opacity: 0.7; stroke-width: 3"/>
   </g>
   <g id="line2d_24">
    <path d="M 379.278846 648.727187 
L 379.278846 46.127187 
" clip-path="url(#padf586acfa)" style="fill: none; stroke-dasharray: 11.1,4.8; stroke-dashoffset: 0; stroke: #d32f2f; stroke-opacity: 0.7; stroke-width: 3"/>
   </g>
   <g id="line2d_25">
    <path d="M 689.222692 648.727187 
L 689.222692 46.127187 
" clip-path="url(#padf586acfa)" style="fill: none; stroke-dasharray: 11.1,4.8; stroke-dashoffset: 0; stroke: #d32f2f; stroke-opacity: 0.7; stroke-width: 3"/>
   </g>
   <g id="line2d_26">
    <path d="M 1309.110385 648.727187 
L 1309.110385 46.127187 
" clip-path="url(#padf586acfa)" style="fill: none; stroke-dasharray: 11.1,4.8; stroke-dashoffset: 0; stroke: #d32f2f; stroke-opacity: 0.7; stroke-width: 3"/>
   </g>
   <g id="patch_7">
    <path d="M 69.335 648.727187 
L 69.335 46.127187 
" style="fill: none; stroke: #000000; stroke-width: 2.5; stroke-linejoin: miter; stroke-linecap: square"/>
   </g>
   <g id="patch_8">
    <path d="M 1412.425 648.727187 
L 1412.425 46.127187 
" style="fill: none; stroke: #000000; stroke-width: 2.5; stroke-linejoin: miter; stroke-linecap: square"/>
   </g>
   <g id="patch_9">
    <path d="M 69.335 648.727187 
L 1412.425 648.727187 
" style="fill: none; stroke: #000000; stroke-width: 2.5; stroke-linejoin: miter; stroke-linecap: square"/>
   </g>
   <g id="patch_10">
    <path d="M 69.335 46.127187 
L 1412.425 46.127187 
" style="fill: none; stroke: #000000; stroke-width: 2.5; stroke-linejoin: miter; stroke-linecap: square"/>
   </g>
   <g id="text_15">
    <!-- Assessment e -->
    <g style="fill: #ffffff" transform="translate(93.015962 589.642619) scale(0.16 -0.16)">
     <defs>
      <path id="Arial-BoldMT-73" d="M 150 947 
L 1031 1081 
Q 1088 825 1259 692 
Q 1431 559 1741 559 
Q 2081 559 2253 684 
Q 2369 772 2369 919 
Q 2369 1019 2306 1084 
Q 2241 1147 2013 1200 
Q 950 1434 666 1628 
Q 272 1897 272 2375 
Q 272 2806 612 3100 
Q 953 3394 1669 3394 
Q 2350 3394 2681 3172 
Q 3013 2950 3138 2516 
L 2309 2363 
Q 2256 2556 2107 2659 
Q 1959 2763 1684 2763 
Q 1338 2763 1188 2666 
Q 1088 2597 1088 2488 
Q 1088 2394 1175 2328 
Q 1294 2241 1995 2081 
Q 2697 1922 2975 1691 
Q 3250 1456 3250 1038 
Q 3250 581 2869 253 
Q 2488 -75 1741 -75 
Q 1063 -75 667 200 
Q 272 475 150 947 
z
" transform="scale(0.015625)"/>
      <path id="Arial-BoldMT-65" d="M 2381 1056 
L 3256 909 
Q 3088 428 2723 176 
Q 2359 -75 1813 -75 
Q 947 -75 531 491 
Q 203 944 203 1634 
Q 203 2459 634 2926 
Q 1066 3394 1725 3394 
Q 2466 3394 2894 2905 
Q 3322 2416 3303 1406 
L 1103 1406 
Q 1113 1016 1316 798 
Q 1519 581 1822 581 
Q 2028 581 2168 693 
Q 2309 806 2381 1056 
z
M 2431 1944 
Q 2422 2325 2234 2523 
Q 2047 2722 1778 2722 
Q 1491 2722 1303 2513 
Q 1116 2303 1119 1944 
L 2431 1944 
z
" transform="scale(0.015625)"/>
      <path id="Arial-BoldMT-6d" d="M 394 3319 
L 1203 3319 
L 1203 2866 
Q 1638 3394 2238 3394 
Q 2556 3394 2790 3262 
Q 3025 3131 3175 2866 
Q 3394 3131 3647 3262 
Q 3900 3394 4188 3394 
Q 4553 3394 4806 3245 
Q 5059 3097 5184 2809 
Q 5275 2597 5275 2122 
L 5275 0 
L 4397 0 
L 4397 1897 
Q 4397 2391 4306 2534 
Q 4184 2722 3931 2722 
Q 3747 2722 3584 2609 
Q 3422 2497 3350 2280 
Q 3278 2063 3278 1594 
L 3278 0 
L 2400 0 
L 2400 1819 
Q 2400 2303 2353 2443 
Q 2306 2584 2207 2653 
Q 2109 2722 1941 2722 
Q 1738 2722 1575 2612 
Q 1413 2503 1342 2297 
Q 1272 2091 1272 1613 
L 1272 0 
L 394 0 
L 394 3319 
z
" transform="scale(0.015625)"/>
      <path id="Arial-BoldMT-6e" d="M 3478 0 
L 2600 0 
L 2600 1694 
Q 2600 2231 2544 2389 
Q 2488 2547 2361 2634 
Q 2234 2722 2056 2722 
Q 1828 2722 1647 2597 
Q 1466 2472 1398 2265 
Q 1331 2059 1331 1503 
L 1331 0 
L 453 0 
L 453 3319 
L 1269 3319 
L 1269 2831 
Q 1703 3394 2363 3394 
Q 2653 3394 2893 3289 
Q 3134 3184 3257 3021 
Q 3381 2859 3429 2653 
Q 3478 2447 3478 2063 
L 3478 0 
z
" transform="scale(0.015625)"/>
      <path id="Arial-BoldMT-74" d="M 1981 3319 
L 1981 2619 
L 1381 2619 
L 1381 1281 
Q 1381 875 1398 808 
Q 1416 741 1477 697 
Q 1538 653 1625 653 
Q 1747 653 1978 738 
L 2053 56 
Q 1747 -75 1359 -75 
Q 1122 -75 931 4 
Q 741 84 652 211 
Q 563 338 528 553 
Q 500 706 500 1172 
L 500 2619 
L 97 2619 
L 97 3319 
L 500 3319 
L 500 3978 
L 1381 4491 
L 1381 3319 
L 1981 3319 
z
" transform="scale(0.015625)"/>
     </defs>
     <use xlink:href="#Arial-BoldMT-41"/>
     <use xlink:href="#Arial-BoldMT-73" transform="translate(72.216797 0)"/>
     <use xlink:href="#Arial-BoldMT-73" transform="translate(127.832031 0)"/>
     <use xlink:href="#Arial-BoldMT-65" transform="translate(183.447266 0)"/>
     <use xlink:href="#Arial-BoldMT-73" transform="translate(239.0625 0)"/>
     <use xlink:href="#Arial-BoldMT-73" transform="translate(294.677734 0)"/>
     <use xlink:href="#Arial-BoldMT-6d" transform="translate(350.292969 0)"/>
     <use xlink:href="#Arial-BoldMT-65" transform="translate(439.208984 0)"/>
     <use xlink:href="#Arial-BoldMT-6e" transform="translate(494.824219 0)"/>
     <use xlink:href="#Arial-BoldMT-74" transform="translate(555.908203 0)"/>
     <use xlink:href="#Arial-BoldMT-20" transform="translate(589.208984 0)"/>
     <use xlink:href="#Arial-BoldMT-65" transform="translate(616.992188 0)"/>
    </g>
    <!-- Pianificazione -->
    <g style="fill: #ffffff" transform="translate(93.477212 606.543119) scale(0.16 -0.16)">
     <defs>
      <path id="Arial-BoldMT-50" d="M 466 0 
L 466 4581 
L 1950 4581 
Q 2794 4581 3050 4513 
Q 3444 4409 3709 4064 
Q 3975 3719 3975 3172 
Q 3975 2750 3822 2462 
Q 3669 2175 3433 2011 
Q 3197 1847 2953 1794 
Q 2622 1728 1994 1728 
L 1391 1728 
L 1391 0 
L 466 0 
z
M 1391 3806 
L 1391 2506 
L 1897 2506 
Q 2444 2506 2628 2578 
Q 2813 2650 2917 2803 
Q 3022 2956 3022 3159 
Q 3022 3409 2875 3571 
Q 2728 3734 2503 3775 
Q 2338 3806 1838 3806 
L 1391 3806 
z
" transform="scale(0.015625)"/>
      <path id="Arial-BoldMT-69" d="M 459 3769 
L 459 4581 
L 1338 4581 
L 1338 3769 
L 459 3769 
z
M 459 0 
L 459 3319 
L 1338 3319 
L 1338 0 
L 459 0 
z
" transform="scale(0.015625)"/>
      <path id="Arial-BoldMT-61" d="M 1116 2306 
L 319 2450 
Q 453 2931 781 3162 
Q 1109 3394 1756 3394 
Q 2344 3394 2631 3255 
Q 2919 3116 3036 2902 
Q 3153 2688 3153 2116 
L 3144 1091 
Q 3144 653 3186 445 
Q 3228 238 3344 0 
L 2475 0 
Q 2441 88 2391 259 
Q 2369 338 2359 363 
Q 2134 144 1878 34 
Q 1622 -75 1331 -75 
Q 819 -75 523 203 
Q 228 481 228 906 
Q 228 1188 362 1408 
Q 497 1628 739 1745 
Q 981 1863 1438 1950 
Q 2053 2066 2291 2166 
L 2291 2253 
Q 2291 2506 2166 2614 
Q 2041 2722 1694 2722 
Q 1459 2722 1328 2630 
Q 1197 2538 1116 2306 
z
M 2291 1594 
Q 2122 1538 1756 1459 
Q 1391 1381 1278 1306 
Q 1106 1184 1106 997 
Q 1106 813 1243 678 
Q 1381 544 1594 544 
Q 1831 544 2047 700 
Q 2206 819 2256 991 
Q 2291 1103 2291 1419 
L 2291 1594 
z
" transform="scale(0.015625)"/>
      <path id="Arial-BoldMT-66" d="M 75 3319 
L 563 3319 
L 563 3569 
Q 563 3988 652 4194 
Q 741 4400 980 4529 
Q 1219 4659 1584 4659 
Q 1959 4659 2319 4547 
L 2200 3934 
Q 1991 3984 1797 3984 
Q 1606 3984 1523 3895 
Q 1441 3806 1441 3553 
L 1441 3319 
L 2097 3319 
L 2097 2628 
L 1441 2628 
L 1441 0 
L 563 0 
L 563 2628 
L 75 2628 
L 75 3319 
z
" transform="scale(0.015625)"/>
      <path id="Arial-BoldMT-63" d="M 3353 2338 
L 2488 2181 
Q 2444 2441 2289 2572 
Q 2134 2703 1888 2703 
Q 1559 2703 1364 2476 
Q 1169 2250 1169 1719 
Q 1169 1128 1367 884 
Q 1566 641 1900 641 
Q 2150 641 2309 783 
Q 2469 925 2534 1272 
L 3397 1125 
Q 3263 531 2881 228 
Q 2500 -75 1859 -75 
Q 1131 -75 698 384 
Q 266 844 266 1656 
Q 266 2478 700 2936 
Q 1134 3394 1875 3394 
Q 2481 3394 2839 3133 
Q 3197 2872 3353 2338 
z
" transform="scale(0.015625)"/>
      <path id="Arial-BoldMT-7a" d="M 106 0 
L 106 684 
L 1350 2113 
Q 1656 2463 1803 2609 
Q 1650 2600 1400 2597 
L 228 2591 
L 228 3319 
L 2972 3319 
L 2972 2697 
L 1703 1234 
L 1256 750 
Q 1622 772 1709 772 
L 3069 772 
L 3069 0 
L 106 0 
z
" transform="scale(0.015625)"/>
      <path id="Arial-BoldMT-6f" d="M 256 1706 
Q 256 2144 472 2553 
Q 688 2963 1083 3178 
Q 1478 3394 1966 3394 
Q 2719 3394 3200 2905 
Q 3681 2416 3681 1669 
Q 3681 916 3195 420 
Q 2709 -75 1972 -75 
Q 1516 -75 1102 131 
Q 688 338 472 736 
Q 256 1134 256 1706 
z
M 1156 1659 
Q 1156 1166 1390 903 
Q 1625 641 1969 641 
Q 2313 641 2545 903 
Q 2778 1166 2778 1666 
Q 2778 2153 2545 2415 
Q 2313 2678 1969 2678 
Q 1625 2678 1390 2415 
Q 1156 2153 1156 1659 
z
" transform="scale(0.015625)"/>
     </defs>
     <use xlink:href="#Arial-BoldMT-50"/>
     <use xlink:href="#Arial-BoldMT-69" transform="translate(66.699219 0)"/>
     <use xlink:href="#Arial-BoldMT-61" transform="translate(94.482422 0)"/>
     <use xlink:href="#Arial-BoldMT-6e" transform="translate(150.097656 0)"/>
     <use xlink:href="#Arial-BoldMT-69" transform="translate(211.181641 0)"/>
     <use xlink:href="#Arial-BoldMT-66" transform="translate(238.964844 0)"/>
     <use xlink:href="#Arial-BoldMT-69" transform="translate(272.265625 0)"/>
     <use xlink:href="#Arial-BoldMT-63" transform="translate(300.048828 0)"/>
     <use xlink:href="#Arial-BoldMT-61" transform="translate(355.664062 0)"/>
     <use xlink:href="#Arial-BoldMT-7a" transform="translate(411.279297 0)"/>
     <use xlink:href="#Arial-BoldMT-69" transform="translate(461.279297 0)"/>
     <use xlink:href="#Arial-BoldMT-6f" transform="translate(489.0625 0)"/>
     <use xlink:href="#Arial-BoldMT-6e" transform="translate(550.146484 0)"/>
     <use xlink:href="#Arial-BoldMT-65" transform="translate(611.230469 0)"/>
    </g>
   </g>
   <g id="text_16">
    <!-- Progettazione e -->
    <g style="fill: #ffffff" transform="translate(242.230385 479.973983) scale(0.16 -0.16)">
     <defs>
      <path id="Arial-BoldMT-72" d="M 1300 0 
L 422 0 
L 422 3319 
L 1238 3319 
L 1238 2847 
Q 1447 3181 1614 3287 
Q 1781 3394 1994 3394 
Q 2294 3394 2572 3228 
L 2300 2463 
Q 2078 2606 1888 2606 
Q 1703 2606 1575 2504 
Q 1447 2403 1373 2137 
Q 1300 1872 1300 1025 
L 1300 0 
z
" transform="scale(0.015625)"/>
      <path id="Arial-BoldMT-67" d="M 378 -219 
L 1381 -341 
Q 1406 -516 1497 -581 
Q 1622 -675 1891 -675 
Q 2234 -675 2406 -572 
Q 2522 -503 2581 -350 
Q 2622 -241 2622 53 
L 2622 538 
Q 2228 0 1628 0 
Q 959 0 569 566 
Q 263 1013 263 1678 
Q 263 2513 664 2953 
Q 1066 3394 1663 3394 
Q 2278 3394 2678 2853 
L 2678 3319 
L 3500 3319 
L 3500 341 
Q 3500 -247 3403 -537 
Q 3306 -828 3131 -993 
Q 2956 -1159 2664 -1253 
Q 2372 -1347 1925 -1347 
Q 1081 -1347 728 -1058 
Q 375 -769 375 -325 
Q 375 -281 378 -219 
z
M 1163 1728 
Q 1163 1200 1367 954 
Q 1572 709 1872 709 
Q 2194 709 2416 961 
Q 2638 1213 2638 1706 
Q 2638 2222 2425 2472 
Q 2213 2722 1888 2722 
Q 1572 2722 1367 2476 
Q 1163 2231 1163 1728 
z
" transform="scale(0.015625)"/>
     </defs>
     <use xlink:href="#Arial-BoldMT-50"/>
     <use xlink:href="#Arial-BoldMT-72" transform="translate(66.699219 0)"/>
     <use xlink:href="#Arial-BoldMT-6f" transform="translate(105.615234 0)"/>
     <use xlink:href="#Arial-BoldMT-67" transform="translate(166.699219 0)"/>
     <use xlink:href="#Arial-BoldMT-65" transform="translate(227.783203 0)"/>
     <use xlink:href="#Arial-BoldMT-74" transform="translate(283.398438 0)"/>
     <use xlink:href="#Arial-BoldMT-74" transform="translate(316.699219 0)"/>
     <use xlink:href="#Arial-BoldMT-61" transform="translate(350 0)"/>
     <use xlink:href="#Arial-BoldMT-7a" transform="translate(405.615234 0)"/>
     <use xlink:href="#Arial-BoldMT-69" transform="translate(455.615234 0)"/>
     <use xlink:href="#Arial-BoldMT-6f" transform="translate(483.398438 0)"/>
     <use xlink:href="#Arial-BoldMT-6e" transform="translate(544.482422 0)"/>
     <use xlink:href="#Arial-BoldMT-65" transform="translate(605.566406 0)"/>
     <use xlink:href="#Arial-BoldMT-20" transform="translate(661.181641 0)"/>
     <use xlink:href="#Arial-BoldMT-65" transform="translate(688.964844 0)"/>
    </g>
    <!-- Armonizzazione -->
    <g style="fill: #ffffff" transform="translate(240.900385 497.084483) scale(0.16 -0.16)">
     <use xlink:href="#Arial-BoldMT-41"/>
     <use xlink:href="#Arial-BoldMT-72" transform="translate(72.216797 0)"/>
     <use xlink:href="#Arial-BoldMT-6d" transform="translate(111.132812 0)"/>
     <use xlink:href="#Arial-BoldMT-6f" transform="translate(200.048828 0)"/>
     <use xlink:href="#Arial-BoldMT-6e" transform="translate(261.132812 0)"/>
     <use xlink:href="#Arial-BoldMT-69" transform="translate(322.216797 0)"/>
     <use xlink:href="#Arial-BoldMT-7a" transform="translate(350 0)"/>
     <use xlink:href="#Arial-BoldMT-7a" transform="translate(400 0)"/>
     <use xlink:href="#Arial-BoldMT-61" transform="translate(450 0)"/>
     <use xlink:href="#Arial-BoldMT-7a" transform="translate(505.615234 0)"/>
     <use xlink:href="#Arial-BoldMT-69" transform="translate(555.615234 0)"/>
     <use xlink:href="#Arial-BoldMT-6f" transform="translate(583.398438 0)"/>
     <use xlink:href="#Arial-BoldMT-6e" transform="translate(644.482422 0)"/>
     <use xlink:href="#Arial-BoldMT-65" transform="translate(705.566406 0)"/>
    </g>
   </g>
   <g id="text_17">
    <!-- Implementazione -->
    <g style="fill: #ffffff" transform="translate(469.352019 370.515347) scale(0.16 -0.16)">
     <defs>
      <path id="Arial-BoldMT-70" d="M 434 3319 
L 1253 3319 
L 1253 2831 
Q 1413 3081 1684 3237 
Q 1956 3394 2288 3394 
Q 2866 3394 3269 2941 
Q 3672 2488 3672 1678 
Q 3672 847 3265 386 
Q 2859 -75 2281 -75 
Q 2006 -75 1782 34 
Q 1559 144 1313 409 
L 1313 -1263 
L 434 -1263 
L 434 3319 
z
M 1303 1716 
Q 1303 1156 1525 889 
Q 1747 622 2066 622 
Q 2372 622 2575 867 
Q 2778 1113 2778 1672 
Q 2778 2194 2568 2447 
Q 2359 2700 2050 2700 
Q 1728 2700 1515 2451 
Q 1303 2203 1303 1716 
z
" transform="scale(0.015625)"/>
      <path id="Arial-BoldMT-6c" d="M 459 0 
L 459 4581 
L 1338 4581 
L 1338 0 
L 459 0 
z
" transform="scale(0.015625)"/>
     </defs>
     <use xlink:href="#Arial-BoldMT-49"/>
     <use xlink:href="#Arial-BoldMT-6d" transform="translate(27.783203 0)"/>
     <use xlink:href="#Arial-BoldMT-70" transform="translate(116.699219 0)"/>
     <use xlink:href="#Arial-BoldMT-6c" transform="translate(177.783203 0)"/>
     <use xlink:href="#Arial-BoldMT-65" transform="translate(205.566406 0)"/>
     <use xlink:href="#Arial-BoldMT-6d" transform="translate(261.181641 0)"/>
     <use xlink:href="#Arial-BoldMT-65" transform="translate(350.097656 0)"/>
     <use xlink:href="#Arial-BoldMT-6e" transform="translate(405.712891 0)"/>
     <use xlink:href="#Arial-BoldMT-74" transform="translate(466.796875 0)"/>
     <use xlink:href="#Arial-BoldMT-61" transform="translate(500.097656 0)"/>
     <use xlink:href="#Arial-BoldMT-7a" transform="translate(555.712891 0)"/>
     <use xlink:href="#Arial-BoldMT-69" transform="translate(605.712891 0)"/>
     <use xlink:href="#Arial-BoldMT-6f" transform="translate(633.496094 0)"/>
     <use xlink:href="#Arial-BoldMT-6e" transform="translate(694.580078 0)"/>
     <use xlink:href="#Arial-BoldMT-65" transform="translate(755.664062 0)"/>
    </g>
    <!-- Pilota -->
    <g style="fill: #ffffff" transform="translate(512.470769 387.415847) scale(0.16 -0.16)">
     <use xlink:href="#Arial-BoldMT-50"/>
     <use xlink:href="#Arial-BoldMT-69" transform="translate(66.699219 0)"/>
     <use xlink:href="#Arial-BoldMT-6c" transform="translate(94.482422 0)"/>
     <use xlink:href="#Arial-BoldMT-6f" transform="translate(122.265625 0)"/>
     <use xlink:href="#Arial-BoldMT-74" transform="translate(183.349609 0)"/>
     <use xlink:href="#Arial-BoldMT-61" transform="translate(216.650391 0)"/>
    </g>
   </g>
   <g id="text_18">
    <!-- Rollout e -->
    <g style="fill: #ffffff" transform="translate(964.950288 260.95171) scale(0.16 -0.16)">
     <defs>
      <path id="Arial-BoldMT-52" d="M 469 0 
L 469 4581 
L 2416 4581 
Q 3150 4581 3483 4457 
Q 3816 4334 4016 4018 
Q 4216 3703 4216 3297 
Q 4216 2781 3912 2445 
Q 3609 2109 3006 2022 
Q 3306 1847 3501 1637 
Q 3697 1428 4028 894 
L 4588 0 
L 3481 0 
L 2813 997 
Q 2456 1531 2325 1670 
Q 2194 1809 2047 1861 
Q 1900 1913 1581 1913 
L 1394 1913 
L 1394 0 
L 469 0 
z
M 1394 2644 
L 2078 2644 
Q 2744 2644 2909 2700 
Q 3075 2756 3169 2893 
Q 3263 3031 3263 3238 
Q 3263 3469 3139 3611 
Q 3016 3753 2791 3791 
Q 2678 3806 2116 3806 
L 1394 3806 
L 1394 2644 
z
" transform="scale(0.015625)"/>
      <path id="Arial-BoldMT-75" d="M 2644 0 
L 2644 497 
Q 2463 231 2167 78 
Q 1872 -75 1544 -75 
Q 1209 -75 943 72 
Q 678 219 559 484 
Q 441 750 441 1219 
L 441 3319 
L 1319 3319 
L 1319 1794 
Q 1319 1094 1367 936 
Q 1416 778 1544 686 
Q 1672 594 1869 594 
Q 2094 594 2272 717 
Q 2450 841 2515 1023 
Q 2581 1206 2581 1919 
L 2581 3319 
L 3459 3319 
L 3459 0 
L 2644 0 
z
" transform="scale(0.015625)"/>
     </defs>
     <use xlink:href="#Arial-BoldMT-52"/>
     <use xlink:href="#Arial-BoldMT-6f" transform="translate(72.216797 0)"/>
     <use xlink:href="#Arial-BoldMT-6c" transform="translate(133.300781 0)"/>
     <use xlink:href="#Arial-BoldMT-6c" transform="translate(161.083984 0)"/>
     <use xlink:href="#Arial-BoldMT-6f" transform="translate(188.867188 0)"/>
     <use xlink:href="#Arial-BoldMT-75" transform="translate(249.951172 0)"/>
     <use xlink:href="#Arial-BoldMT-74" transform="translate(311.035156 0)"/>
     <use xlink:href="#Arial-BoldMT-20" transform="translate(344.335938 0)"/>
     <use xlink:href="#Arial-BoldMT-65" transform="translate(372.119141 0)"/>
    </g>
    <!-- Ottimizzazione -->
    <g style="fill: #ffffff" transform="translate(943.165288 277.85221) scale(0.16 -0.16)">
     <defs>
      <path id="Arial-BoldMT-4f" d="M 278 2263 
Q 278 2963 488 3438 
Q 644 3788 914 4066 
Q 1184 4344 1506 4478 
Q 1934 4659 2494 4659 
Q 3506 4659 4114 4031 
Q 4722 3403 4722 2284 
Q 4722 1175 4119 548 
Q 3516 -78 2506 -78 
Q 1484 -78 881 545 
Q 278 1169 278 2263 
z
M 1231 2294 
Q 1231 1516 1590 1114 
Q 1950 713 2503 713 
Q 3056 713 3411 1111 
Q 3766 1509 3766 2306 
Q 3766 3094 3420 3481 
Q 3075 3869 2503 3869 
Q 1931 3869 1581 3476 
Q 1231 3084 1231 2294 
z
" transform="scale(0.015625)"/>
     </defs>
     <use xlink:href="#Arial-BoldMT-4f"/>
     <use xlink:href="#Arial-BoldMT-74" transform="translate(77.783203 0)"/>
     <use xlink:href="#Arial-BoldMT-74" transform="translate(111.083984 0)"/>
     <use xlink:href="#Arial-BoldMT-69" transform="translate(144.384766 0)"/>
     <use xlink:href="#Arial-BoldMT-6d" transform="translate(172.167969 0)"/>
     <use xlink:href="#Arial-BoldMT-69" transform="translate(261.083984 0)"/>
     <use xlink:href="#Arial-BoldMT-7a" transform="translate(288.867188 0)"/>
     <use xlink:href="#Arial-BoldMT-7a" transform="translate(338.867188 0)"/>
     <use xlink:href="#Arial-BoldMT-61" transform="translate(388.867188 0)"/>
     <use xlink:href="#Arial-BoldMT-7a" transform="translate(444.482422 0)"/>
     <use xlink:href="#Arial-BoldMT-69" transform="translate(494.482422 0)"/>
     <use xlink:href="#Arial-BoldMT-6f" transform="translate(522.265625 0)"/>
     <use xlink:href="#Arial-BoldMT-6e" transform="translate(583.349609 0)"/>
     <use xlink:href="#Arial-BoldMT-65" transform="translate(644.433594 0)"/>
    </g>
   </g>
   <g id="text_19">
    <!-- M1: -->
    <g style="fill: #d32f2f" transform="translate(212.252704 123.352136) scale(0.14 -0.14)">
     <defs>
      <path id="Arial-BoldMT-3a" d="M 628 2441 
L 628 3319 
L 1506 3319 
L 1506 2441 
L 628 2441 
z
M 628 0 
L 628 878 
L 1506 878 
L 1506 0 
L 628 0 
z
" transform="scale(0.015625)"/>
     </defs>
     <use xlink:href="#Arial-BoldMT-4d"/>
     <use xlink:href="#Arial-BoldMT-31" transform="translate(83.300781 0)"/>
     <use xlink:href="#Arial-BoldMT-3a" transform="translate(138.916016 0)"/>
    </g>
    <!-- Business -->
    <g style="fill: #d32f2f" transform="translate(193.185361 138.140074) scale(0.14 -0.14)">
     <defs>
      <path id="Arial-BoldMT-42" d="M 469 4581 
L 2300 4581 
Q 2844 4581 3111 4536 
Q 3378 4491 3589 4347 
Q 3800 4203 3940 3964 
Q 4081 3725 4081 3428 
Q 4081 3106 3907 2837 
Q 3734 2569 3438 2434 
Q 3856 2313 4081 2019 
Q 4306 1725 4306 1328 
Q 4306 1016 4161 720 
Q 4016 425 3764 248 
Q 3513 72 3144 31 
Q 2913 6 2028 0 
L 469 0 
L 469 4581 
z
M 1394 3819 
L 1394 2759 
L 2000 2759 
Q 2541 2759 2672 2775 
Q 2909 2803 3045 2939 
Q 3181 3075 3181 3297 
Q 3181 3509 3064 3642 
Q 2947 3775 2716 3803 
Q 2578 3819 1925 3819 
L 1394 3819 
z
M 1394 1997 
L 1394 772 
L 2250 772 
Q 2750 772 2884 800 
Q 3091 838 3220 983 
Q 3350 1128 3350 1372 
Q 3350 1578 3250 1722 
Q 3150 1866 2961 1931 
Q 2772 1997 2141 1997 
L 1394 1997 
z
" transform="scale(0.015625)"/>
     </defs>
     <use xlink:href="#Arial-BoldMT-42"/>
     <use xlink:href="#Arial-BoldMT-75" transform="translate(72.216797 0)"/>
     <use xlink:href="#Arial-BoldMT-73" transform="translate(133.300781 0)"/>
     <use xlink:href="#Arial-BoldMT-69" transform="translate(188.916016 0)"/>
     <use xlink:href="#Arial-BoldMT-6e" transform="translate(216.699219 0)"/>
     <use xlink:href="#Arial-BoldMT-65" transform="translate(277.783203 0)"/>
     <use xlink:href="#Arial-BoldMT-73" transform="translate(333.398438 0)"/>
     <use xlink:href="#Arial-BoldMT-73" transform="translate(389.013672 0)"/>
    </g>
    <!-- Case -->
    <g style="fill: #d32f2f" transform="translate(207.573642 152.928011) scale(0.14 -0.14)">
     <defs>
      <path id="Arial-BoldMT-43" d="M 3397 1684 
L 4294 1400 
Q 4088 650 3608 286 
Q 3128 -78 2391 -78 
Q 1478 -78 890 545 
Q 303 1169 303 2250 
Q 303 3394 893 4026 
Q 1484 4659 2447 4659 
Q 3288 4659 3813 4163 
Q 4125 3869 4281 3319 
L 3366 3100 
Q 3284 3456 3026 3662 
Q 2769 3869 2400 3869 
Q 1891 3869 1573 3503 
Q 1256 3138 1256 2319 
Q 1256 1450 1568 1081 
Q 1881 713 2381 713 
Q 2750 713 3015 947 
Q 3281 1181 3397 1684 
z
" transform="scale(0.015625)"/>
     </defs>
     <use xlink:href="#Arial-BoldMT-43"/>
     <use xlink:href="#Arial-BoldMT-61" transform="translate(72.216797 0)"/>
     <use xlink:href="#Arial-BoldMT-73" transform="translate(127.832031 0)"/>
     <use xlink:href="#Arial-BoldMT-65" transform="translate(183.447266 0)"/>
    </g>
   </g>
   <g id="text_20">
    <!-- M2: -->
    <g style="fill: #d32f2f" transform="translate(367.224627 138.140074) scale(0.14 -0.14)">
     <use xlink:href="#Arial-BoldMT-4d"/>
     <use xlink:href="#Arial-BoldMT-32" transform="translate(83.300781 0)"/>
     <use xlink:href="#Arial-BoldMT-3a" transform="translate(138.916016 0)"/>
    </g>
    <!-- Framework -->
    <g style="fill: #d32f2f" transform="translate(341.931659 152.928011) scale(0.14 -0.14)">
     <defs>
      <path id="Arial-BoldMT-77" d="M 1078 0 
L 28 3319 
L 881 3319 
L 1503 1144 
L 2075 3319 
L 2922 3319 
L 3475 1144 
L 4109 3319 
L 4975 3319 
L 3909 0 
L 3066 0 
L 2494 2134 
L 1931 0 
L 1078 0 
z
" transform="scale(0.015625)"/>
      <path id="Arial-BoldMT-6b" d="M 428 0 
L 428 4581 
L 1306 4581 
L 1306 2150 
L 2334 3319 
L 3416 3319 
L 2281 2106 
L 3497 0 
L 2550 0 
L 1716 1491 
L 1306 1063 
L 1306 0 
L 428 0 
z
" transform="scale(0.015625)"/>
     </defs>
     <use xlink:href="#Arial-BoldMT-46"/>
     <use xlink:href="#Arial-BoldMT-72" transform="translate(61.083984 0)"/>
     <use xlink:href="#Arial-BoldMT-61" transform="translate(100 0)"/>
     <use xlink:href="#Arial-BoldMT-6d" transform="translate(155.615234 0)"/>
     <use xlink:href="#Arial-BoldMT-65" transform="translate(244.53125 0)"/>
     <use xlink:href="#Arial-BoldMT-77" transform="translate(300.146484 0)"/>
     <use xlink:href="#Arial-BoldMT-6f" transform="translate(377.929688 0)"/>
     <use xlink:href="#Arial-BoldMT-72" transform="translate(439.013672 0)"/>
     <use xlink:href="#Arial-BoldMT-6b" transform="translate(477.929688 0)"/>
    </g>
   </g>
   <g id="text_21">
    <!-- M3: -->
    <g style="fill: #d32f2f" transform="translate(677.168474 123.147386) scale(0.14 -0.14)">
     <use xlink:href="#Arial-BoldMT-4d"/>
     <use xlink:href="#Arial-BoldMT-33" transform="translate(83.300781 0)"/>
     <use xlink:href="#Arial-BoldMT-3a" transform="translate(138.916016 0)"/>
    </g>
    <!-- Pilota -->
    <g style="fill: #d32f2f" transform="translate(670.165192 137.935324) scale(0.14 -0.14)">
     <use xlink:href="#Arial-BoldMT-50"/>
     <use xlink:href="#Arial-BoldMT-69" transform="translate(66.699219 0)"/>
     <use xlink:href="#Arial-BoldMT-6c" transform="translate(94.482422 0)"/>
     <use xlink:href="#Arial-BoldMT-6f" transform="translate(122.265625 0)"/>
     <use xlink:href="#Arial-BoldMT-74" transform="translate(183.349609 0)"/>
     <use xlink:href="#Arial-BoldMT-61" transform="translate(216.650391 0)"/>
    </g>
    <!-- Completato -->
    <g style="fill: #d32f2f" transform="translate(650.72488 152.928011) scale(0.14 -0.14)">
     <use xlink:href="#Arial-BoldMT-43"/>
     <use xlink:href="#Arial-BoldMT-6f" transform="translate(72.216797 0)"/>
     <use xlink:href="#Arial-BoldMT-6d" transform="translate(133.300781 0)"/>
     <use xlink:href="#Arial-BoldMT-70" transform="translate(222.216797 0)"/>
     <use xlink:href="#Arial-BoldMT-6c" transform="translate(283.300781 0)"/>
     <use xlink:href="#Arial-BoldMT-65" transform="translate(311.083984 0)"/>
     <use xlink:href="#Arial-BoldMT-74" transform="translate(366.699219 0)"/>
     <use xlink:href="#Arial-BoldMT-61" transform="translate(400 0)"/>
     <use xlink:href="#Arial-BoldMT-74" transform="translate(455.615234 0)"/>
     <use xlink:href="#Arial-BoldMT-6f" transform="translate(488.916016 0)"/>
    </g>
   </g>
   <g id="text_22">
    <!-- M4: -->
    <g style="fill: #d32f2f" transform="translate(1297.056166 123.147386) scale(0.14 -0.14)">
     <use xlink:href="#Arial-BoldMT-4d"/>
     <use xlink:href="#Arial-BoldMT-34" transform="translate(83.300781 0)"/>
     <use xlink:href="#Arial-BoldMT-3a" transform="translate(138.916016 0)"/>
    </g>
    <!-- Rollout -->
    <g style="fill: #d32f2f" transform="translate(1285.00851 137.935324) scale(0.14 -0.14)">
     <use xlink:href="#Arial-BoldMT-52"/>
     <use xlink:href="#Arial-BoldMT-6f" transform="translate(72.216797 0)"/>
     <use xlink:href="#Arial-BoldMT-6c" transform="translate(133.300781 0)"/>
     <use xlink:href="#Arial-BoldMT-6c" transform="translate(161.083984 0)"/>
     <use xlink:href="#Arial-BoldMT-6f" transform="translate(188.867188 0)"/>
     <use xlink:href="#Arial-BoldMT-75" transform="translate(249.951172 0)"/>
     <use xlink:href="#Arial-BoldMT-74" transform="translate(311.035156 0)"/>
    </g>
    <!-- Completo -->
    <g style="fill: #d32f2f" transform="translate(1276.83601 152.928011) scale(0.14 -0.14)">
     <use xlink:href="#Arial-BoldMT-43"/>
     <use xlink:href="#Arial-BoldMT-6f" transform="translate(72.216797 0)"/>
     <use xlink:href="#Arial-BoldMT-6d" transform="translate(133.300781 0)"/>
     <use xlink:href="#Arial-BoldMT-70" transform="translate(222.216797 0)"/>
     <use xlink:href="#Arial-BoldMT-6c" transform="translate(283.300781 0)"/>
     <use xlink:href="#Arial-BoldMT-65" transform="translate(311.083984 0)"/>
     <use xlink:href="#Arial-BoldMT-74" transform="translate(366.699219 0)"/>
     <use xlink:href="#Arial-BoldMT-6f" transform="translate(400 0)"/>
    </g>
   </g>
   <g id="text_23">
    <!-- Roadmap Implementazione Conformità Integrata -->
    <g transform="translate(441.134531 26.127187) scale(0.26 -0.26)">
     <defs>
      <path id="Arial-BoldMT-64" d="M 3503 0 
L 2688 0 
L 2688 488 
Q 2484 203 2207 64 
Q 1931 -75 1650 -75 
Q 1078 -75 670 386 
Q 263 847 263 1672 
Q 263 2516 659 2955 
Q 1056 3394 1663 3394 
Q 2219 3394 2625 2931 
L 2625 4581 
L 3503 4581 
L 3503 0 
z
M 1159 1731 
Q 1159 1200 1306 963 
Q 1519 619 1900 619 
Q 2203 619 2415 876 
Q 2628 1134 2628 1647 
Q 2628 2219 2422 2470 
Q 2216 2722 1894 2722 
Q 1581 2722 1370 2473 
Q 1159 2225 1159 1731 
z
" transform="scale(0.015625)"/>
      <path id="Arial-BoldMT-e0" d="M 1116 2306 
L 319 2450 
Q 453 2931 781 3162 
Q 1109 3394 1756 3394 
Q 2344 3394 2631 3255 
Q 2919 3116 3036 2902 
Q 3153 2688 3153 2116 
L 3144 1091 
Q 3144 653 3186 445 
Q 3228 238 3344 0 
L 2475 0 
Q 2441 88 2391 259 
Q 2369 338 2359 363 
Q 2134 144 1878 34 
Q 1622 -75 1331 -75 
Q 819 -75 523 203 
Q 228 481 228 906 
Q 228 1188 362 1408 
Q 497 1628 739 1745 
Q 981 1863 1438 1950 
Q 2053 2066 2291 2166 
L 2291 2253 
Q 2291 2506 2166 2614 
Q 2041 2722 1694 2722 
Q 1459 2722 1328 2630 
Q 1197 2538 1116 2306 
z
M 2291 1594 
Q 2122 1538 1756 1459 
Q 1391 1381 1278 1306 
Q 1106 1184 1106 997 
Q 1106 813 1243 678 
Q 1381 544 1594 544 
Q 1831 544 2047 700 
Q 2206 819 2256 991 
Q 2291 1103 2291 1419 
L 2291 1594 
z
M 2227 3725 
L 1674 3725 
L 811 4659 
L 1796 4659 
L 2227 3725 
z
" transform="scale(0.015625)"/>
     </defs>
     <use xlink:href="#Arial-BoldMT-52"/>
     <use xlink:href="#Arial-BoldMT-6f" transform="translate(72.216797 0)"/>
     <use xlink:href="#Arial-BoldMT-61" transform="translate(133.300781 0)"/>
     <use xlink:href="#Arial-BoldMT-64" transform="translate(188.916016 0)"/>
     <use xlink:href="#Arial-BoldMT-6d" transform="translate(250 0)"/>
     <use xlink:href="#Arial-BoldMT-61" transform="translate(338.916016 0)"/>
     <use xlink:href="#Arial-BoldMT-70" transform="translate(394.53125 0)"/>
     <use xlink:href="#Arial-BoldMT-20" transform="translate(455.615234 0)"/>
     <use xlink:href="#Arial-BoldMT-49" transform="translate(483.398438 0)"/>
     <use xlink:href="#Arial-BoldMT-6d" transform="translate(511.181641 0)"/>
     <use xlink:href="#Arial-BoldMT-70" transform="translate(600.097656 0)"/>
     <use xlink:href="#Arial-BoldMT-6c" transform="translate(661.181641 0)"/>
     <use xlink:href="#Arial-BoldMT-65" transform="translate(688.964844 0)"/>
     <use xlink:href="#Arial-BoldMT-6d" transform="translate(744.580078 0)"/>
     <use xlink:href="#Arial-BoldMT-65" transform="translate(833.496094 0)"/>
     <use xlink:href="#Arial-BoldMT-6e" transform="translate(889.111328 0)"/>
     <use xlink:href="#Arial-BoldMT-74" transform="translate(950.195312 0)"/>
     <use xlink:href="#Arial-BoldMT-61" transform="translate(983.496094 0)"/>
     <use xlink:href="#Arial-BoldMT-7a" transform="translate(1039.111328 0)"/>
     <use xlink:href="#Arial-BoldMT-69" transform="translate(1089.111328 0)"/>
     <use xlink:href="#Arial-BoldMT-6f" transform="translate(1116.894531 0)"/>
     <use xlink:href="#Arial-BoldMT-6e" transform="translate(1177.978516 0)"/>
     <use xlink:href="#Arial-BoldMT-65" transform="translate(1239.0625 0)"/>
     <use xlink:href="#Arial-BoldMT-20" transform="translate(1294.677734 0)"/>
     <use xlink:href="#Arial-BoldMT-43" transform="translate(1322.460938 0)"/>
     <use xlink:href="#Arial-BoldMT-6f" transform="translate(1394.677734 0)"/>
     <use xlink:href="#Arial-BoldMT-6e" transform="translate(1455.761719 0)"/>
     <use xlink:href="#Arial-BoldMT-66" transform="translate(1516.845703 0)"/>
     <use xlink:href="#Arial-BoldMT-6f" transform="translate(1550.146484 0)"/>
     <use xlink:href="#Arial-BoldMT-72" transform="translate(1611.230469 0)"/>
     <use xlink:href="#Arial-BoldMT-6d" transform="translate(1650.146484 0)"/>
     <use xlink:href="#Arial-BoldMT-69" transform="translate(1739.0625 0)"/>
     <use xlink:href="#Arial-BoldMT-74" transform="translate(1766.845703 0)"/>
     <use xlink:href="#Arial-BoldMT-e0" transform="translate(1800.146484 0)"/>
     <use xlink:href="#Arial-BoldMT-20" transform="translate(1855.761719 0)"/>
     <use xlink:href="#Arial-BoldMT-49" transform="translate(1883.544922 0)"/>
     <use xlink:href="#Arial-BoldMT-6e" transform="translate(1911.328125 0)"/>
     <use xlink:href="#Arial-BoldMT-74" transform="translate(1972.412109 0)"/>
     <use xlink:href="#Arial-BoldMT-65" transform="translate(2005.712891 0)"/>
     <use xlink:href="#Arial-BoldMT-67" transform="translate(2061.328125 0)"/>
     <use xlink:href="#Arial-BoldMT-72" transform="translate(2122.412109 0)"/>
     <use xlink:href="#Arial-BoldMT-61" transform="translate(2161.328125 0)"/>
     <use xlink:href="#Arial-BoldMT-74" transform="translate(2216.943359 0)"/>
     <use xlink:href="#Arial-BoldMT-61" transform="translate(2250.244141 0)"/>
    </g>
   </g>
  </g>
 </g>
 <defs>
  <clipPath id="padf586acfa">
   <rect x="69.335" y="46.127187" width="1343.09" height="602.6"/>
  </clipPath>
 </defs>
</svg>
