<svg class="main-svg" xmlns="http://www.w3.org/2000/svg" xmlns:xlink="http://www.w3.org/1999/xlink" width="1200" height="700" style="" viewBox="0 0 1200 700"><rect x="0" y="0" width="1200" height="700" style="fill: rgb(255, 255, 255); fill-opacity: 1;"/><defs id="defs-375284"><g class="clips"><clipPath id="clip375284xyplot" class="plotclip"><rect width="1080" height="560"/></clipPath><clipPath class="axesclip" id="clip375284x"><rect x="60" y="0" width="1080" height="700"/></clipPath><clipPath class="axesclip" id="clip375284y"><rect x="0" y="80" width="1200" height="560"/></clipPath><clipPath class="axesclip" id="clip375284xy"><rect x="60" y="80" width="1080" height="560"/></clipPath></g><g class="gradients"/><g class="patterns"/></defs><g class="bglayer"/><g class="layer-below"><g class="imagelayer"/><g class="shapelayer"/></g><g class="cartesianlayer"><g class="subplot xy"><g class="layer-subplot"><g class="shapelayer"/><g class="imagelayer"/></g><g class="minor-gridlayer"><g class="x"/><g class="y"/></g><g class="gridlayer"><g class="x"><path class="xgrid crisp" transform="translate(117.75,0)" d="M0,80v560" style="stroke: rgb(211, 211, 211); stroke-opacity: 1; stroke-width: 1px;"/><path class="xgrid crisp" transform="translate(237.98,0)" d="M0,80v560" style="stroke: rgb(211, 211, 211); stroke-opacity: 1; stroke-width: 1px;"/><path class="xgrid crisp" transform="translate(358.21,0)" d="M0,80v560" style="stroke: rgb(211, 211, 211); stroke-opacity: 1; stroke-width: 1px;"/><path class="xgrid crisp" transform="translate(479.77,0)" d="M0,80v560" style="stroke: rgb(211, 211, 211); stroke-opacity: 1; stroke-width: 1px;"/><path class="xgrid crisp" transform="translate(601.32,0)" d="M0,80v560" style="stroke: rgb(211, 211, 211); stroke-opacity: 1; stroke-width: 1px;"/><path class="xgrid crisp" transform="translate(720.23,0)" d="M0,80v560" style="stroke: rgb(211, 211, 211); stroke-opacity: 1; stroke-width: 1px;"/><path class="xgrid crisp" transform="translate(840.46,0)" d="M0,80v560" style="stroke: rgb(211, 211, 211); stroke-opacity: 1; stroke-width: 1px;"/><path class="xgrid crisp" transform="translate(962.02,0)" d="M0,80v560" style="stroke: rgb(211, 211, 211); stroke-opacity: 1; stroke-width: 1px;"/><path class="xgrid crisp" transform="translate(1083.5700000000002,0)" d="M0,80v560" style="stroke: rgb(211, 211, 211); stroke-opacity: 1; stroke-width: 1px;"/></g><g class="y"><path class="ygrid crisp" transform="translate(0,269.03)" d="M60,0h1080" style="stroke: rgb(238, 238, 238); stroke-opacity: 1; stroke-width: 1px;"/><path class="ygrid crisp" transform="translate(0,381.37)" d="M60,0h1080" style="stroke: rgb(238, 238, 238); stroke-opacity: 1; stroke-width: 1px;"/><path class="ygrid crisp" transform="translate(0,493.72)" d="M60,0h1080" style="stroke: rgb(238, 238, 238); stroke-opacity: 1; stroke-width: 1px;"/></g></g><g class="zerolinelayer"><path class="yzl zl crisp" transform="translate(0,156.69)" d="M60,0h1080" style="stroke: rgb(68, 68, 68); stroke-opacity: 1; stroke-width: 1px;"/></g><g class="layer-between"><g class="shapelayer"/><g class="imagelayer"/></g><path class="xlines-below"/><path class="ylines-below"/><g class="overlines-below"/><g class="xaxislayer-below"/><g class="yaxislayer-below"/><g class="overaxes-below"/><g class="overplot"><g class="xy" transform="translate(60,80)" clip-path="url(#clip375284xyplot)"><g class="scatterlayer mlayer"><g class="trace scatter trace4d22e2" style="stroke-miterlimit: 2; opacity: 0.6;"><g class="fills"><g><path class="js-fill" d="M57.75,31.75L176.66,31.75L176.66,121.62L57.75,121.62L57.75,31.75Z" style="fill: rgb(142, 68, 173); fill-opacity: 1; stroke-width: 0;"/></g></g><g class="errorbars"/><g class="lines"><path class="js-line" d="M57.75,31.75L176.66,31.75L176.66,121.62L57.75,121.62L57.75,31.75" style="vector-effect: none; fill: none; stroke: rgb(142, 68, 173); stroke-opacity: 1; stroke-width: 2px; opacity: 1;"/></g><g class="points"><path class="point" transform="translate(57.75,31.75)" d="M3,0A3,3 0 1,1 0,-3A3,3 0 0,1 3,0Z" style="opacity: 1; stroke-width: 0px; fill: rgb(142, 68, 173); fill-opacity: 1;"/><path class="point" transform="translate(176.66,31.75)" d="M3,0A3,3 0 1,1 0,-3A3,3 0 0,1 3,0Z" style="opacity: 1; stroke-width: 0px; fill: rgb(142, 68, 173); fill-opacity: 1;"/><path class="point" transform="translate(176.66,121.62)" d="M3,0A3,3 0 1,1 0,-3A3,3 0 0,1 3,0Z" style="opacity: 1; stroke-width: 0px; fill: rgb(142, 68, 173); fill-opacity: 1;"/><path class="point" transform="translate(57.75,121.62)" d="M3,0A3,3 0 1,1 0,-3A3,3 0 0,1 3,0Z" style="opacity: 1; stroke-width: 0px; fill: rgb(142, 68, 173); fill-opacity: 1;"/><path class="point" transform="translate(57.75,31.75)" d="M3,0A3,3 0 1,1 0,-3A3,3 0 0,1 3,0Z" style="opacity: 1; stroke-width: 0px; fill: rgb(142, 68, 173); fill-opacity: 1;"/></g><g class="text"/></g><g class="trace scatter tracedab4cc" style="stroke-miterlimit: 2; opacity: 0.6;"><g class="fills"><g><path class="js-fill" d="M177.98,144.09L296.89,144.09L296.89,233.97L177.98,233.97L177.98,144.09Z" style="fill: rgb(39, 174, 96); fill-opacity: 1; stroke-width: 0;"/></g></g><g class="errorbars"/><g class="lines"><path class="js-line" d="M177.98,144.09L296.89,144.09L296.89,233.97L177.98,233.97L177.98,144.09" style="vector-effect: none; fill: none; stroke: rgb(39, 174, 96); stroke-opacity: 1; stroke-width: 2px; opacity: 1;"/></g><g class="points"><path class="point" transform="translate(177.98,144.09)" d="M3,0A3,3 0 1,1 0,-3A3,3 0 0,1 3,0Z" style="opacity: 1; stroke-width: 0px; fill: rgb(39, 174, 96); fill-opacity: 1;"/><path class="point" transform="translate(296.89,144.09)" d="M3,0A3,3 0 1,1 0,-3A3,3 0 0,1 3,0Z" style="opacity: 1; stroke-width: 0px; fill: rgb(39, 174, 96); fill-opacity: 1;"/><path class="point" transform="translate(296.89,233.97)" d="M3,0A3,3 0 1,1 0,-3A3,3 0 0,1 3,0Z" style="opacity: 1; stroke-width: 0px; fill: rgb(39, 174, 96); fill-opacity: 1;"/><path class="point" transform="translate(177.98,233.97)" d="M3,0A3,3 0 1,1 0,-3A3,3 0 0,1 3,0Z" style="opacity: 1; stroke-width: 0px; fill: rgb(39, 174, 96); fill-opacity: 1;"/><path class="point" transform="translate(177.98,144.09)" d="M3,0A3,3 0 1,1 0,-3A3,3 0 0,1 3,0Z" style="opacity: 1; stroke-width: 0px; fill: rgb(39, 174, 96); fill-opacity: 1;"/></g><g class="text"/></g><g class="trace scatter trace2ae6a8" style="stroke-miterlimit: 2; opacity: 0.6;"><g class="fills"><g><path class="js-fill" d="M298.21,256.44L540,256.44L540,346.31L298.21,346.31L298.21,256.44Z" style="fill: rgb(243, 156, 18); fill-opacity: 1; stroke-width: 0;"/></g></g><g class="errorbars"/><g class="lines"><path class="js-line" d="M298.21,256.44L540,256.44L540,346.31L298.21,346.31L298.21,256.44" style="vector-effect: none; fill: none; stroke: rgb(243, 156, 18); stroke-opacity: 1; stroke-width: 2px; opacity: 1;"/></g><g class="points"><path class="point" transform="translate(298.21,256.44)" d="M3,0A3,3 0 1,1 0,-3A3,3 0 0,1 3,0Z" style="opacity: 1; stroke-width: 0px; fill: rgb(243, 156, 18); fill-opacity: 1;"/><path class="point" transform="translate(540,256.44)" d="M3,0A3,3 0 1,1 0,-3A3,3 0 0,1 3,0Z" style="opacity: 1; stroke-width: 0px; fill: rgb(243, 156, 18); fill-opacity: 1;"/><path class="point" transform="translate(540,346.31)" d="M3,0A3,3 0 1,1 0,-3A3,3 0 0,1 3,0Z" style="opacity: 1; stroke-width: 0px; fill: rgb(243, 156, 18); fill-opacity: 1;"/><path class="point" transform="translate(298.21,346.31)" d="M3,0A3,3 0 1,1 0,-3A3,3 0 0,1 3,0Z" style="opacity: 1; stroke-width: 0px; fill: rgb(243, 156, 18); fill-opacity: 1;"/><path class="point" transform="translate(298.21,256.44)" d="M3,0A3,3 0 1,1 0,-3A3,3 0 0,1 3,0Z" style="opacity: 1; stroke-width: 0px; fill: rgb(243, 156, 18); fill-opacity: 1;"/></g><g class="text"/></g><g class="trace scatter trace8eec29" style="stroke-miterlimit: 2; opacity: 1;"><g class="fills"><g><path class="js-fill" d="M298.21,267.67L479.22,267.67L479.22,335.08L298.21,335.08L298.21,267.67Z" style="fill: rgb(243, 156, 18); fill-opacity: 1; stroke-width: 0;"/></g></g><g class="errorbars"/><g class="lines"><path class="js-line" d="M298.21,267.67L479.22,267.67L479.22,335.08L298.21,335.08L298.21,267.67" style="vector-effect: none; fill: none; stroke: rgb(243, 156, 18); stroke-opacity: 1; stroke-width: 0px; opacity: 1;"/></g><g class="points"><path class="point" transform="translate(298.21,267.67)" d="M3,0A3,3 0 1,1 0,-3A3,3 0 0,1 3,0Z" style="opacity: 1; stroke-width: 0px; fill: rgb(243, 156, 18); fill-opacity: 1;"/><path class="point" transform="translate(479.22,267.67)" d="M3,0A3,3 0 1,1 0,-3A3,3 0 0,1 3,0Z" style="opacity: 1; stroke-width: 0px; fill: rgb(243, 156, 18); fill-opacity: 1;"/><path class="point" transform="translate(479.22,335.08)" d="M3,0A3,3 0 1,1 0,-3A3,3 0 0,1 3,0Z" style="opacity: 1; stroke-width: 0px; fill: rgb(243, 156, 18); fill-opacity: 1;"/><path class="point" transform="translate(298.21,335.08)" d="M3,0A3,3 0 1,1 0,-3A3,3 0 0,1 3,0Z" style="opacity: 1; stroke-width: 0px; fill: rgb(243, 156, 18); fill-opacity: 1;"/><path class="point" transform="translate(298.21,267.67)" d="M3,0A3,3 0 1,1 0,-3A3,3 0 0,1 3,0Z" style="opacity: 1; stroke-width: 0px; fill: rgb(243, 156, 18); fill-opacity: 1;"/></g><g class="text"/></g><g class="trace scatter trace436fd0" style="stroke-miterlimit: 2; opacity: 0.6;"><g class="fills"><g><path class="js-fill" d="M541.32,368.78L1022.25,368.78L1022.25,458.65L541.32,458.65L541.32,368.78Z" style="fill: rgb(44, 62, 80); fill-opacity: 1; stroke-width: 0;"/></g></g><g class="errorbars"/><g class="lines"><path class="js-line" d="M541.32,368.78L1022.25,368.78L1022.25,458.65L541.32,458.65L541.32,368.78" style="vector-effect: none; fill: none; stroke: rgb(44, 62, 80); stroke-opacity: 1; stroke-width: 2px; opacity: 1;"/></g><g class="points"><path class="point" transform="translate(541.32,368.78)" d="M3,0A3,3 0 1,1 0,-3A3,3 0 0,1 3,0Z" style="opacity: 1; stroke-width: 0px; fill: rgb(44, 62, 80); fill-opacity: 1;"/><path class="point" transform="translate(1022.25,368.78)" d="M3,0A3,3 0 1,1 0,-3A3,3 0 0,1 3,0Z" style="opacity: 1; stroke-width: 0px; fill: rgb(44, 62, 80); fill-opacity: 1;"/><path class="point" transform="translate(1022.25,458.65)" d="M3,0A3,3 0 1,1 0,-3A3,3 0 0,1 3,0Z" style="opacity: 1; stroke-width: 0px; fill: rgb(44, 62, 80); fill-opacity: 1;"/><path class="point" transform="translate(541.32,458.65)" d="M3,0A3,3 0 1,1 0,-3A3,3 0 0,1 3,0Z" style="opacity: 1; stroke-width: 0px; fill: rgb(44, 62, 80); fill-opacity: 1;"/><path class="point" transform="translate(541.32,368.78)" d="M3,0A3,3 0 1,1 0,-3A3,3 0 0,1 3,0Z" style="opacity: 1; stroke-width: 0px; fill: rgb(44, 62, 80); fill-opacity: 1;"/></g><g class="text"/></g><g class="trace scatter trace76f311" style="stroke-miterlimit: 2; opacity: 1;"><g class="fills"><g><path class="js-fill" d="M541.32,380.01L661.55,380.01L661.55,447.42L541.32,447.42L541.32,380.01Z" style="fill: rgb(44, 62, 80); fill-opacity: 1; stroke-width: 0;"/></g></g><g class="errorbars"/><g class="lines"><path class="js-line" d="M541.32,380.01L661.55,380.01L661.55,447.42L541.32,447.42L541.32,380.01" style="vector-effect: none; fill: none; stroke: rgb(44, 62, 80); stroke-opacity: 1; stroke-width: 0px; opacity: 1;"/></g><g class="points"><path class="point" transform="translate(541.32,380.01)" d="M3,0A3,3 0 1,1 0,-3A3,3 0 0,1 3,0Z" style="opacity: 1; stroke-width: 0px; fill: rgb(44, 62, 80); fill-opacity: 1;"/><path class="point" transform="translate(661.55,380.01)" d="M3,0A3,3 0 1,1 0,-3A3,3 0 0,1 3,0Z" style="opacity: 1; stroke-width: 0px; fill: rgb(44, 62, 80); fill-opacity: 1;"/><path class="point" transform="translate(661.55,447.42)" d="M3,0A3,3 0 1,1 0,-3A3,3 0 0,1 3,0Z" style="opacity: 1; stroke-width: 0px; fill: rgb(44, 62, 80); fill-opacity: 1;"/><path class="point" transform="translate(541.32,447.42)" d="M3,0A3,3 0 1,1 0,-3A3,3 0 0,1 3,0Z" style="opacity: 1; stroke-width: 0px; fill: rgb(44, 62, 80); fill-opacity: 1;"/><path class="point" transform="translate(541.32,380.01)" d="M3,0A3,3 0 1,1 0,-3A3,3 0 0,1 3,0Z" style="opacity: 1; stroke-width: 0px; fill: rgb(44, 62, 80); fill-opacity: 1;"/></g><g class="text"/></g></g></g></g><g class="zerolinelayer-above"/><path class="xlines-above crisp" d="M0,0" style="fill: none;"/><path class="ylines-above crisp" d="M0,0" style="fill: none;"/><g class="overlines-above"/><g class="xaxislayer-above"><g class="xtick"><text text-anchor="middle" x="0" y="653" transform="translate(117.75,0)" style="font-family: Helvetica, Arial; font-size: 12px; fill: rgb(52, 73, 94); fill-opacity: 1; white-space: pre;">Jan 2024</text></g><g class="xtick"><text text-anchor="middle" x="0" y="653" style="font-family: Helvetica, Arial; font-size: 12px; fill: rgb(52, 73, 94); fill-opacity: 1; white-space: pre;" transform="translate(237.98,0)">Apr 2024</text></g><g class="xtick"><text text-anchor="middle" x="0" y="653" style="font-family: Helvetica, Arial; font-size: 12px; fill: rgb(52, 73, 94); fill-opacity: 1; white-space: pre;" transform="translate(358.21,0)">Jul 2024</text></g><g class="xtick"><text text-anchor="middle" x="0" y="653" style="font-family: Helvetica, Arial; font-size: 12px; fill: rgb(52, 73, 94); fill-opacity: 1; white-space: pre;" transform="translate(479.77,0)">Oct 2024</text></g><g class="xtick"><text text-anchor="middle" x="0" y="653" style="font-family: Helvetica, Arial; font-size: 12px; fill: rgb(52, 73, 94); fill-opacity: 1; white-space: pre;" transform="translate(601.32,0)">Jan 2025</text></g><g class="xtick"><text text-anchor="middle" x="0" y="653" style="font-family: Helvetica, Arial; font-size: 12px; fill: rgb(52, 73, 94); fill-opacity: 1; white-space: pre;" transform="translate(720.23,0)">Apr 2025</text></g><g class="xtick"><text text-anchor="middle" x="0" y="653" style="font-family: Helvetica, Arial; font-size: 12px; fill: rgb(52, 73, 94); fill-opacity: 1; white-space: pre;" transform="translate(840.46,0)">Jul 2025</text></g><g class="xtick"><text text-anchor="middle" x="0" y="653" style="font-family: Helvetica, Arial; font-size: 12px; fill: rgb(52, 73, 94); fill-opacity: 1; white-space: pre;" transform="translate(962.02,0)">Oct 2025</text></g><g class="xtick"><text text-anchor="middle" x="0" y="653" style="font-family: Helvetica, Arial; font-size: 12px; fill: rgb(52, 73, 94); fill-opacity: 1; white-space: pre;" transform="translate(1083.5700000000002,0)">Jan 2026</text></g></g><g class="yaxislayer-above"><g class="ytick"><text text-anchor="end" x="59" y="4.199999999999999" transform="translate(0,156.69)" style="font-family: Helvetica, Arial; font-size: 12px; fill: rgb(52, 73, 94); fill-opacity: 1; white-space: pre;">Assessment</text></g><g class="ytick"><text text-anchor="end" x="59" y="4.199999999999999" style="font-family: Helvetica, Arial; font-size: 12px; fill: rgb(52, 73, 94); fill-opacity: 1; white-space: pre;" transform="translate(0,269.03)">Progettazione</text></g><g class="ytick"><text text-anchor="end" x="59" y="4.199999999999999" style="font-family: Helvetica, Arial; font-size: 12px; fill: rgb(52, 73, 94); fill-opacity: 1; white-space: pre;" transform="translate(0,381.37)">Pilota</text></g><g class="ytick"><text text-anchor="end" x="59" y="4.199999999999999" style="font-family: Helvetica, Arial; font-size: 12px; fill: rgb(52, 73, 94); fill-opacity: 1; white-space: pre;" transform="translate(0,493.72)">Rollout</text></g></g><g class="overaxes-above"/></g></g><g class="polarlayer"/><g class="smithlayer"/><g class="ternarylayer"/><g class="geolayer"/><g class="funnelarealayer"/><g class="pielayer"/><g class="iciclelayer"/><g class="treemaplayer"/><g class="sunburstlayer"/><g class="glimages"/><defs id="topdefs-375284"><g class="clips"/></defs><g class="layer-above"><g class="imagelayer"/><g class="shapelayer"><g class="shape-group" data-index="0" clip-path="url(#clip375284xy)"><path data-index="0" fill-rule="evenodd" d="M236.66,100.52L236.66,549.89" style="opacity: 1; stroke: rgb(192, 57, 43); stroke-opacity: 1; fill: rgb(0, 0, 0); fill-opacity: 0; stroke-dasharray: 9px, 9px; stroke-width: 2px;"/></g><g class="shape-group" data-index="1" clip-path="url(#clip375284xy)"><path data-index="1" fill-rule="evenodd" d="M356.89,100.52L356.89,549.89" style="opacity: 1; stroke: rgb(192, 57, 43); stroke-opacity: 1; fill: rgb(0, 0, 0); fill-opacity: 0; stroke-dasharray: 9px, 9px; stroke-width: 2px;"/></g><g class="shape-group" data-index="2" clip-path="url(#clip375284xy)"><path data-index="2" fill-rule="evenodd" d="M600,100.52L600,549.89" style="opacity: 1; stroke: rgb(192, 57, 43); stroke-opacity: 1; fill: rgb(0, 0, 0); fill-opacity: 0; stroke-dasharray: 9px, 9px; stroke-width: 2px;"/></g><g class="shape-group" data-index="3" clip-path="url(#clip375284xy)"><path data-index="3" fill-rule="evenodd" d="M1082.25,100.52L1082.25,549.89" style="opacity: 1; stroke: rgb(192, 57, 43); stroke-opacity: 1; fill: rgb(0, 0, 0); fill-opacity: 0; stroke-dasharray: 9px, 9px; stroke-width: 2px;"/></g></g></g><g class="infolayer"><g class="g-gtitle"><text class="gtitle" x="600" y="40" text-anchor="middle" dy="0em" style="opacity: 1; font-family: Helvetica, Arial; font-size: 18px; fill: rgb(52, 73, 94); fill-opacity: 1; white-space: pre;"><tspan style="font-weight:bold">Roadmap Implementazione Conformità</tspan></text></g><g class="g-xtitle"><text class="xtitle" x="600" y="692" text-anchor="middle" style="opacity: 1; font-family: Helvetica, Arial; font-size: 14px; fill: rgb(52, 73, 94); fill-opacity: 1; white-space: pre;">Timeline 2024-2025</text></g><g class="g-ytitle"/><g class="annotation" data-index="0" style="opacity: 1;"><g class="annotation-text-g" transform="rotate(0,182.25,156.69)"><g class="cursor-pointer" transform="translate(128,149)"><rect class="bg" x="0.5" y="0.5" width="108" height="15" style="stroke-width: 1px; stroke: rgb(0, 0, 0); stroke-opacity: 0; fill: rgb(0, 0, 0); fill-opacity: 0;"/><text class="annotation-text" text-anchor="middle" x="54.6796875" y="12" style="font-family: Helvetica, Arial; font-size: 11px; fill: rgb(255, 255, 255); fill-opacity: 1; white-space: pre;"><tspan style="font-weight:bold">Assessment</tspan> (100%)</text></g></g></g><g class="annotation" data-index="1" style="opacity: 1;"><g class="annotation-text-g" transform="rotate(0,305.98,269.03)"><g class="cursor-pointer" transform="translate(248,261)"><rect class="bg" x="0.5" y="0.5" width="115" height="15" style="stroke-width: 1px; stroke: rgb(0, 0, 0); stroke-opacity: 0; fill: rgb(0, 0, 0); fill-opacity: 0;"/><text class="annotation-text" text-anchor="middle" x="57.6328125" y="12" style="font-family: Helvetica, Arial; font-size: 11px; fill: rgb(255, 255, 255); fill-opacity: 1; white-space: pre;"><tspan style="font-weight:bold">Progettazione</tspan> (100%)</text></g></g></g><g class="annotation" data-index="2" style="opacity: 1;"><g class="annotation-text-g" transform="rotate(0,401.71,381.37)"><g class="cursor-pointer" transform="translate(368,373)"><rect class="bg" x="0.5" y="0.5" width="66" height="15" style="stroke-width: 1px; stroke: rgb(0, 0, 0); stroke-opacity: 0; fill: rgb(0, 0, 0); fill-opacity: 0;"/><text class="annotation-text" text-anchor="middle" x="33.1796875" y="12" style="font-family: Helvetica, Arial; font-size: 11px; fill: rgb(255, 255, 255); fill-opacity: 1; white-space: pre;"><tspan style="font-weight:bold">Pilota</tspan> (75%)</text></g></g></g><g class="annotation" data-index="3" style="opacity: 1;"><g class="annotation-text-g" transform="rotate(0,648.82,493.72)"><g class="cursor-pointer" transform="translate(611,486)"><rect class="bg" x="0.5" y="0.5" width="74" height="15" style="stroke-width: 1px; stroke: rgb(0, 0, 0); stroke-opacity: 0; fill: rgb(0, 0, 0); fill-opacity: 0;"/><text class="annotation-text" text-anchor="middle" x="37.1484375" y="12" style="font-family: Helvetica, Arial; font-size: 11px; fill: rgb(255, 255, 255); fill-opacity: 1; white-space: pre;"><tspan style="font-weight:bold">Rollout</tspan> (25%)</text></g></g></g><g class="annotation" data-index="4" style="opacity: 1;"><g class="annotation-text-g" transform="rotate(-45,236.66,606.06)"><g class="cursor-pointer" transform="translate(196,599)"><rect class="bg" x="0.5" y="0.5" width="81" height="13" style="stroke-width: 1px; stroke: rgb(0, 0, 0); stroke-opacity: 0; fill: rgb(0, 0, 0); fill-opacity: 0;"/><text class="annotation-text" text-anchor="middle" x="40.7734375" y="10" style="font-family: Helvetica, Arial; font-size: 9px; fill: rgb(192, 57, 43); fill-opacity: 1; white-space: pre;">M1: Business Case</text></g></g></g><g class="annotation" data-index="5" style="opacity: 1;"><g class="annotation-text-g" transform="rotate(-45,356.89,606.06)"><g class="cursor-pointer" transform="translate(323,599)"><rect class="bg" x="0.5" y="0.5" width="66" height="13" style="stroke-width: 1px; stroke: rgb(0, 0, 0); stroke-opacity: 0; fill: rgb(0, 0, 0); fill-opacity: 0;"/><text class="annotation-text" text-anchor="middle" x="33.2578125" y="10" style="font-family: Helvetica, Arial; font-size: 9px; fill: rgb(192, 57, 43); fill-opacity: 1; white-space: pre;">M2: Framework</text></g></g></g><g class="annotation" data-index="6" style="opacity: 1;"><g class="annotation-text-g" transform="rotate(-45,600,606.06)"><g class="cursor-pointer" transform="translate(578,599)"><rect class="bg" x="0.5" y="0.5" width="43" height="13" style="stroke-width: 1px; stroke: rgb(0, 0, 0); stroke-opacity: 0; fill: rgb(0, 0, 0); fill-opacity: 0;"/><text class="annotation-text" text-anchor="middle" x="22.015625" y="10" style="font-family: Helvetica, Arial; font-size: 9px; fill: rgb(192, 57, 43); fill-opacity: 1; white-space: pre;">M3: Pilota</text></g></g></g><g class="annotation" data-index="7" style="opacity: 1;"><g class="annotation-text-g" transform="rotate(-45,1082.25,606.06)"><g class="cursor-pointer" transform="translate(1052,599)"><rect class="bg" x="0.5" y="0.5" width="59" height="13" style="stroke-width: 1px; stroke: rgb(0, 0, 0); stroke-opacity: 0; fill: rgb(0, 0, 0); fill-opacity: 0;"/><text class="annotation-text" text-anchor="middle" x="30.015625" y="10" style="font-family: Helvetica, Arial; font-size: 9px; fill: rgb(192, 57, 43); fill-opacity: 1; white-space: pre;">M4: Completo</text></g></g></g></g></svg>