<svg class="main-svg" xmlns="http://www.w3.org/2000/svg" xmlns:xlink="http://www.w3.org/1999/xlink" width="1200" height="700" style="" viewBox="0 0 1200 700"><rect x="0" y="0" width="1200" height="700" style="fill: rgb(255, 255, 255); fill-opacity: 1;"/><defs id="defs-fc5045"><g class="clips"><clipPath id="clipfc5045xyplot" class="plotclip"><rect width="936" height="560"/></clipPath><clipPath class="axesclip" id="clipfc5045x"><rect x="60" y="0" width="936" height="700"/></clipPath><clipPath class="axesclip" id="clipfc5045y"><rect x="0" y="80" width="1200" height="560"/></clipPath><clipPath class="axesclip" id="clipfc5045xy"><rect x="60" y="80" width="936" height="560"/></clipPath></g><g class="gradients"/><g class="patterns"/></defs><g class="bglayer"/><g class="layer-below"><g class="imagelayer"/><g class="shapelayer"/></g><g class="cartesianlayer"><g class="subplot xy"><g class="layer-subplot"><g class="shapelayer"/><g class="imagelayer"/></g><g class="minor-gridlayer"><g class="x"/><g class="y"/></g><g class="gridlayer"><g class="x"/><g class="y"/></g><g class="zerolinelayer"/><g class="layer-between"><g class="shapelayer"/><g class="imagelayer"/></g><path class="xlines-below"/><path class="ylines-below"/><g class="overlines-below"/><g class="xaxislayer-below"/><g class="yaxislayer-below"/><g class="overaxes-below"/><g class="overplot"><g class="xy" transform="translate(60,80)" clip-path="url(#clipfc5045xyplot)"><g class="scatterlayer mlayer"><g class="trace scatter trace265bb4" style="stroke-miterlimit: 2; opacity: 1;"><g class="fills"/><g class="errorbars"/><g class="lines"/><g class="points"><path class="point" transform="translate(156,475.15)" d="M25,0A25,25 0 1,1 0,-25A25,25 0 0,1 25,0Z" style="opacity: 1; stroke-width: 2px; fill: rgb(39, 174, 96); fill-opacity: 1; stroke: rgb(255, 255, 255); stroke-opacity: 1;"/><path class="point" transform="translate(312,475.15)" d="M25,0A25,25 0 1,1 0,-25A25,25 0 0,1 25,0Z" style="opacity: 1; stroke-width: 2px; fill: rgb(39, 174, 96); fill-opacity: 1; stroke: rgb(255, 255, 255); stroke-opacity: 1;"/><path class="point" transform="translate(468,475.15)" d="M25,0A25,25 0 1,1 0,-25A25,25 0 0,1 25,0Z" style="opacity: 1; stroke-width: 2px; fill: rgb(39, 174, 96); fill-opacity: 1; stroke: rgb(255, 255, 255); stroke-opacity: 1;"/><path class="point" transform="translate(624,475.15)" d="M25,0A25,25 0 1,1 0,-25A25,25 0 0,1 25,0Z" style="opacity: 1; stroke-width: 2px; fill: rgb(39, 174, 96); fill-opacity: 1; stroke: rgb(255, 255, 255); stroke-opacity: 1;"/><path class="point" transform="translate(780,475.15)" d="M25,0A25,25 0 1,1 0,-25A25,25 0 0,1 25,0Z" style="opacity: 1; stroke-width: 2px; fill: rgb(39, 174, 96); fill-opacity: 1; stroke: rgb(255, 255, 255); stroke-opacity: 1;"/></g><g class="text"><g class="textpoint" transform="translate(0,39.75)"><text x="156" y="475.15" text-anchor="middle" style="font-family: Helvetica, Arial; font-size: 10px; fill: rgb(52, 73, 94); fill-opacity: 1; white-space: pre;">Config Mgmt</text></g><g class="textpoint" transform="translate(0,39.75)"><text x="312" y="475.15" text-anchor="middle" style="font-family: Helvetica, Arial; font-size: 10px; fill: rgb(52, 73, 94); fill-opacity: 1; white-space: pre;">SIEM Logs</text></g><g class="textpoint" transform="translate(0,39.75)"><text x="468" y="475.15" text-anchor="middle" style="font-family: Helvetica, Arial; font-size: 10px; fill: rgb(52, 73, 94); fill-opacity: 1; white-space: pre;">Metriche KPI</text></g><g class="textpoint" transform="translate(0,39.75)"><text x="624" y="475.15" text-anchor="middle" style="font-family: Helvetica, Arial; font-size: 10px; fill: rgb(52, 73, 94); fill-opacity: 1; white-space: pre;">Threat Intel</text></g><g class="textpoint" transform="translate(0,39.75)"><text x="780" y="475.15" text-anchor="middle" style="font-family: Helvetica, Arial; font-size: 10px; fill: rgb(52, 73, 94); fill-opacity: 1; white-space: pre;">Audit Trail</text></g></g></g><g class="trace scatter trace390922" style="stroke-miterlimit: 2; opacity: 1;"><g class="fills"/><g class="errorbars"/><g class="lines"/><g class="points"><path class="point" transform="translate(234,305.45)" d="M25,0A25,25 0 1,1 0,-25A25,25 0 0,1 25,0Z" style="opacity: 1; stroke-width: 2px; fill: rgb(142, 68, 173); fill-opacity: 1; stroke: rgb(255, 255, 255); stroke-opacity: 1;"/><path class="point" transform="translate(468,305.45)" d="M25,0A25,25 0 1,1 0,-25A25,25 0 0,1 25,0Z" style="opacity: 1; stroke-width: 2px; fill: rgb(142, 68, 173); fill-opacity: 1; stroke: rgb(255, 255, 255); stroke-opacity: 1;"/><path class="point" transform="translate(702,305.45)" d="M25,0A25,25 0 1,1 0,-25A25,25 0 0,1 25,0Z" style="opacity: 1; stroke-width: 2px; fill: rgb(142, 68, 173); fill-opacity: 1; stroke: rgb(255, 255, 255); stroke-opacity: 1;"/></g><g class="text"><g class="textpoint" transform="translate(0,39.75)"><text x="234" y="305.45" text-anchor="middle" style="font-family: Helvetica, Arial; font-size: 10px; fill: rgb(52, 73, 94); fill-opacity: 1; white-space: pre;">Correlazione</text></g><g class="textpoint" transform="translate(0,39.75)"><text x="468" y="305.45" text-anchor="middle" style="font-family: Helvetica, Arial; font-size: 10px; fill: rgb(52, 73, 94); fill-opacity: 1; white-space: pre;">Analisi Rischio</text></g><g class="textpoint" transform="translate(0,39.75)"><text x="702" y="305.45" text-anchor="middle" style="font-family: Helvetica, Arial; font-size: 10px; fill: rgb(52, 73, 94); fill-opacity: 1; white-space: pre;">Valutazione Conformità</text></g></g></g><g class="trace scatter trace129c48" style="stroke-miterlimit: 2; opacity: 1;"><g class="fills"/><g class="errorbars"/><g class="lines"/><g class="points"><path class="point" transform="translate(187.2,135.76)" d="M25,0A25,25 0 1,1 0,-25A25,25 0 0,1 25,0Z" style="opacity: 1; stroke-width: 2px; fill: rgb(243, 156, 18); fill-opacity: 1; stroke: rgb(255, 255, 255); stroke-opacity: 1;"/><path class="point" transform="translate(374.4,135.76)" d="M25,0A25,25 0 1,1 0,-25A25,25 0 0,1 25,0Z" style="opacity: 1; stroke-width: 2px; fill: rgb(243, 156, 18); fill-opacity: 1; stroke: rgb(255, 255, 255); stroke-opacity: 1;"/><path class="point" transform="translate(561.6,135.76)" d="M25,0A25,25 0 1,1 0,-25A25,25 0 0,1 25,0Z" style="opacity: 1; stroke-width: 2px; fill: rgb(243, 156, 18); fill-opacity: 1; stroke: rgb(255, 255, 255); stroke-opacity: 1;"/><path class="point" transform="translate(748.8,135.76)" d="M25,0A25,25 0 1,1 0,-25A25,25 0 0,1 25,0Z" style="opacity: 1; stroke-width: 2px; fill: rgb(243, 156, 18); fill-opacity: 1; stroke: rgb(255, 255, 255); stroke-opacity: 1;"/></g><g class="text"><g class="textpoint" transform="translate(0,39.75)"><text x="187.2" y="135.76" text-anchor="middle" style="font-family: Helvetica, Arial; font-size: 10px; fill: rgb(52, 73, 94); fill-opacity: 1; white-space: pre;">Dashboard</text></g><g class="textpoint" transform="translate(0,39.75)"><text x="374.4" y="135.76" text-anchor="middle" style="font-family: Helvetica, Arial; font-size: 10px; fill: rgb(52, 73, 94); fill-opacity: 1; white-space: pre;">Console Op.</text></g><g class="textpoint" transform="translate(0,39.75)"><text x="561.6" y="135.76" text-anchor="middle" style="font-family: Helvetica, Arial; font-size: 10px; fill: rgb(52, 73, 94); fill-opacity: 1; white-space: pre;">Reporting</text></g><g class="textpoint" transform="translate(0,39.75)"><text x="748.8" y="135.76" text-anchor="middle" style="font-family: Helvetica, Arial; font-size: 10px; fill: rgb(52, 73, 94); fill-opacity: 1; white-space: pre;">API REST</text></g></g></g></g></g></g><g class="zerolinelayer-above"/><path class="xlines-above crisp" d="M0,0" style="fill: none;"/><path class="ylines-above crisp" d="M0,0" style="fill: none;"/><g class="overlines-above"/><g class="xaxislayer-above"/><g class="yaxislayer-above"/><g class="overaxes-above"/></g></g><g class="polarlayer"/><g class="smithlayer"/><g class="ternarylayer"/><g class="geolayer"/><g class="funnelarealayer"/><g class="pielayer"/><g class="iciclelayer"/><g class="treemaplayer"/><g class="sunburstlayer"/><g class="glimages"/><defs id="topdefs-fc5045"><g class="clips"/><clipPath id="legendfc5045"><rect width="173" height="67" x="0" y="0"/></clipPath></defs><g class="layer-above"><g class="imagelayer"/><g class="shapelayer"><g class="shape-group" data-index="0" clip-path="url(#clipfc5045xy)"><path data-index="0" fill-rule="evenodd" d="M216,546.6700000000001L294,393.94" style="opacity: 1; stroke: rgb(211, 211, 211); stroke-opacity: 1; fill: rgb(0, 0, 0); fill-opacity: 0; stroke-width: 1px;"/></g><g class="shape-group" data-index="1" clip-path="url(#clipfc5045xy)"><path data-index="1" fill-rule="evenodd" d="M216,546.6700000000001L528,393.94" style="opacity: 1; stroke: rgb(211, 211, 211); stroke-opacity: 1; fill: rgb(0, 0, 0); fill-opacity: 0; stroke-width: 1px;"/></g><g class="shape-group" data-index="2" clip-path="url(#clipfc5045xy)"><path data-index="2" fill-rule="evenodd" d="M216,546.6700000000001L762,393.94" style="opacity: 1; stroke: rgb(211, 211, 211); stroke-opacity: 1; fill: rgb(0, 0, 0); fill-opacity: 0; stroke-width: 1px;"/></g><g class="shape-group" data-index="3" clip-path="url(#clipfc5045xy)"><path data-index="3" fill-rule="evenodd" d="M372,546.6700000000001L294,393.94" style="opacity: 1; stroke: rgb(211, 211, 211); stroke-opacity: 1; fill: rgb(0, 0, 0); fill-opacity: 0; stroke-width: 1px;"/></g><g class="shape-group" data-index="4" clip-path="url(#clipfc5045xy)"><path data-index="4" fill-rule="evenodd" d="M372,546.6700000000001L528,393.94" style="opacity: 1; stroke: rgb(211, 211, 211); stroke-opacity: 1; fill: rgb(0, 0, 0); fill-opacity: 0; stroke-width: 1px;"/></g><g class="shape-group" data-index="5" clip-path="url(#clipfc5045xy)"><path data-index="5" fill-rule="evenodd" d="M372,546.6700000000001L762,393.94" style="opacity: 1; stroke: rgb(211, 211, 211); stroke-opacity: 1; fill: rgb(0, 0, 0); fill-opacity: 0; stroke-width: 1px;"/></g><g class="shape-group" data-index="6" clip-path="url(#clipfc5045xy)"><path data-index="6" fill-rule="evenodd" d="M528,546.6700000000001L294,393.94" style="opacity: 1; stroke: rgb(211, 211, 211); stroke-opacity: 1; fill: rgb(0, 0, 0); fill-opacity: 0; stroke-width: 1px;"/></g><g class="shape-group" data-index="7" clip-path="url(#clipfc5045xy)"><path data-index="7" fill-rule="evenodd" d="M528,546.6700000000001L528,393.94" style="opacity: 1; stroke: rgb(211, 211, 211); stroke-opacity: 1; fill: rgb(0, 0, 0); fill-opacity: 0; stroke-width: 1px;"/></g><g class="shape-group" data-index="8" clip-path="url(#clipfc5045xy)"><path data-index="8" fill-rule="evenodd" d="M528,546.6700000000001L762,393.94" style="opacity: 1; stroke: rgb(211, 211, 211); stroke-opacity: 1; fill: rgb(0, 0, 0); fill-opacity: 0; stroke-width: 1px;"/></g><g class="shape-group" data-index="9" clip-path="url(#clipfc5045xy)"><path data-index="9" fill-rule="evenodd" d="M684,546.6700000000001L294,393.94" style="opacity: 1; stroke: rgb(211, 211, 211); stroke-opacity: 1; fill: rgb(0, 0, 0); fill-opacity: 0; stroke-width: 1px;"/></g><g class="shape-group" data-index="10" clip-path="url(#clipfc5045xy)"><path data-index="10" fill-rule="evenodd" d="M684,546.6700000000001L528,393.94" style="opacity: 1; stroke: rgb(211, 211, 211); stroke-opacity: 1; fill: rgb(0, 0, 0); fill-opacity: 0; stroke-width: 1px;"/></g><g class="shape-group" data-index="11" clip-path="url(#clipfc5045xy)"><path data-index="11" fill-rule="evenodd" d="M684,546.6700000000001L762,393.94" style="opacity: 1; stroke: rgb(211, 211, 211); stroke-opacity: 1; fill: rgb(0, 0, 0); fill-opacity: 0; stroke-width: 1px;"/></g><g class="shape-group" data-index="12" clip-path="url(#clipfc5045xy)"><path data-index="12" fill-rule="evenodd" d="M840,546.6700000000001L294,393.94" style="opacity: 1; stroke: rgb(211, 211, 211); stroke-opacity: 1; fill: rgb(0, 0, 0); fill-opacity: 0; stroke-width: 1px;"/></g><g class="shape-group" data-index="13" clip-path="url(#clipfc5045xy)"><path data-index="13" fill-rule="evenodd" d="M840,546.6700000000001L528,393.94" style="opacity: 1; stroke: rgb(211, 211, 211); stroke-opacity: 1; fill: rgb(0, 0, 0); fill-opacity: 0; stroke-width: 1px;"/></g><g class="shape-group" data-index="14" clip-path="url(#clipfc5045xy)"><path data-index="14" fill-rule="evenodd" d="M840,546.6700000000001L762,393.94" style="opacity: 1; stroke: rgb(211, 211, 211); stroke-opacity: 1; fill: rgb(0, 0, 0); fill-opacity: 0; stroke-width: 1px;"/></g><g class="shape-group" data-index="15" clip-path="url(#clipfc5045xy)"><path data-index="15" fill-rule="evenodd" d="M294,376.97L247.2,224.24" style="opacity: 1; stroke: rgb(211, 211, 211); stroke-opacity: 1; fill: rgb(0, 0, 0); fill-opacity: 0; stroke-width: 1px;"/></g><g class="shape-group" data-index="16" clip-path="url(#clipfc5045xy)"><path data-index="16" fill-rule="evenodd" d="M294,376.97L434.4,224.24" style="opacity: 1; stroke: rgb(211, 211, 211); stroke-opacity: 1; fill: rgb(0, 0, 0); fill-opacity: 0; stroke-width: 1px;"/></g><g class="shape-group" data-index="17" clip-path="url(#clipfc5045xy)"><path data-index="17" fill-rule="evenodd" d="M294,376.97L621.6,224.24" style="opacity: 1; stroke: rgb(211, 211, 211); stroke-opacity: 1; fill: rgb(0, 0, 0); fill-opacity: 0; stroke-width: 1px;"/></g><g class="shape-group" data-index="18" clip-path="url(#clipfc5045xy)"><path data-index="18" fill-rule="evenodd" d="M294,376.97L808.8,224.24" style="opacity: 1; stroke: rgb(211, 211, 211); stroke-opacity: 1; fill: rgb(0, 0, 0); fill-opacity: 0; stroke-width: 1px;"/></g><g class="shape-group" data-index="19" clip-path="url(#clipfc5045xy)"><path data-index="19" fill-rule="evenodd" d="M528,376.97L247.2,224.24" style="opacity: 1; stroke: rgb(211, 211, 211); stroke-opacity: 1; fill: rgb(0, 0, 0); fill-opacity: 0; stroke-width: 1px;"/></g><g class="shape-group" data-index="20" clip-path="url(#clipfc5045xy)"><path data-index="20" fill-rule="evenodd" d="M528,376.97L434.4,224.24" style="opacity: 1; stroke: rgb(211, 211, 211); stroke-opacity: 1; fill: rgb(0, 0, 0); fill-opacity: 0; stroke-width: 1px;"/></g><g class="shape-group" data-index="21" clip-path="url(#clipfc5045xy)"><path data-index="21" fill-rule="evenodd" d="M528,376.97L621.6,224.24" style="opacity: 1; stroke: rgb(211, 211, 211); stroke-opacity: 1; fill: rgb(0, 0, 0); fill-opacity: 0; stroke-width: 1px;"/></g><g class="shape-group" data-index="22" clip-path="url(#clipfc5045xy)"><path data-index="22" fill-rule="evenodd" d="M528,376.97L808.8,224.24" style="opacity: 1; stroke: rgb(211, 211, 211); stroke-opacity: 1; fill: rgb(0, 0, 0); fill-opacity: 0; stroke-width: 1px;"/></g><g class="shape-group" data-index="23" clip-path="url(#clipfc5045xy)"><path data-index="23" fill-rule="evenodd" d="M762,376.97L247.2,224.24" style="opacity: 1; stroke: rgb(211, 211, 211); stroke-opacity: 1; fill: rgb(0, 0, 0); fill-opacity: 0; stroke-width: 1px;"/></g><g class="shape-group" data-index="24" clip-path="url(#clipfc5045xy)"><path data-index="24" fill-rule="evenodd" d="M762,376.97L434.4,224.24" style="opacity: 1; stroke: rgb(211, 211, 211); stroke-opacity: 1; fill: rgb(0, 0, 0); fill-opacity: 0; stroke-width: 1px;"/></g><g class="shape-group" data-index="25" clip-path="url(#clipfc5045xy)"><path data-index="25" fill-rule="evenodd" d="M762,376.97L621.6,224.24" style="opacity: 1; stroke: rgb(211, 211, 211); stroke-opacity: 1; fill: rgb(0, 0, 0); fill-opacity: 0; stroke-width: 1px;"/></g><g class="shape-group" data-index="26" clip-path="url(#clipfc5045xy)"><path data-index="26" fill-rule="evenodd" d="M762,376.97L808.8,224.24" style="opacity: 1; stroke: rgb(211, 211, 211); stroke-opacity: 1; fill: rgb(0, 0, 0); fill-opacity: 0; stroke-width: 1px;"/></g><g class="shape-group" data-index="27" clip-path="url(#clipfc5045xy)"><path data-index="27" fill-rule="evenodd" d="M216,436.36H840V334.55H216Z" style="opacity: 0.1; stroke: rgb(52, 152, 219); stroke-opacity: 1; fill: rgb(52, 152, 219); fill-opacity: 1; stroke-dasharray: 9px, 9px; stroke-width: 2px;"/></g></g></g><g class="infolayer"><g class="legend" pointer-events="all" transform="translate(1014.72,80)"><rect class="bg" shape-rendering="crispEdges" style="stroke: rgb(68, 68, 68); stroke-opacity: 1; fill: rgb(255, 255, 255); fill-opacity: 1; stroke-width: 0px;" width="173" height="67" x="0" y="0"/><g class="scrollbox" transform="" clip-path="url(#legendfc5045)"><g class="groups"><g class="traces" transform="translate(0,14.5)" style="opacity: 1;"><text class="legendtext" text-anchor="start" x="40" y="4.680000000000001" style="font-family: Helvetica, Arial; font-size: 12px; fill: rgb(52, 73, 94); fill-opacity: 1; white-space: pre;">Livello 1: Raccolta</text><g class="layers" style="opacity: 1;"><g class="legendfill"/><g class="legendlines"/><g class="legendsymbols"><g class="legendpoints"><path class="scatterpts" transform="translate(20,0)" d="M8,0A8,8 0 1,1 0,-8A8,8 0 0,1 8,0Z" style="opacity: 1; stroke-width: 2px; fill: rgb(39, 174, 96); fill-opacity: 1; stroke: rgb(255, 255, 255); stroke-opacity: 1;"/></g></g></g><rect class="legendtoggle" x="0" y="-9.5" width="167.73828125" height="19" style="fill: rgb(0, 0, 0); fill-opacity: 0;"/></g><g class="traces" transform="translate(0,33.5)" style="opacity: 1;"><text class="legendtext" text-anchor="start" x="40" y="4.680000000000001" style="font-family: Helvetica, Arial; font-size: 12px; fill: rgb(52, 73, 94); fill-opacity: 1; white-space: pre;">Livello 2: Elaborazione</text><g class="layers" style="opacity: 1;"><g class="legendfill"/><g class="legendlines"/><g class="legendsymbols"><g class="legendpoints"><path class="scatterpts" transform="translate(20,0)" d="M8,0A8,8 0 1,1 0,-8A8,8 0 0,1 8,0Z" style="opacity: 1; stroke-width: 2px; fill: rgb(142, 68, 173); fill-opacity: 1; stroke: rgb(255, 255, 255); stroke-opacity: 1;"/></g></g></g><rect class="legendtoggle" x="0" y="-9.5" width="167.73828125" height="19" style="fill: rgb(0, 0, 0); fill-opacity: 0;"/></g><g class="traces" transform="translate(0,52.5)" style="opacity: 1;"><text class="legendtext" text-anchor="start" x="40" y="4.680000000000001" style="font-family: Helvetica, Arial; font-size: 12px; fill: rgb(52, 73, 94); fill-opacity: 1; white-space: pre;">Livello 3: Presentazione</text><g class="layers" style="opacity: 1;"><g class="legendfill"/><g class="legendlines"/><g class="legendsymbols"><g class="legendpoints"><path class="scatterpts" transform="translate(20,0)" d="M8,0A8,8 0 1,1 0,-8A8,8 0 0,1 8,0Z" style="opacity: 1; stroke-width: 2px; fill: rgb(243, 156, 18); fill-opacity: 1; stroke: rgb(255, 255, 255); stroke-opacity: 1;"/></g></g></g><rect class="legendtoggle" x="0" y="-9.5" width="167.73828125" height="19" style="fill: rgb(0, 0, 0); fill-opacity: 0;"/></g></g></g><rect class="scrollbar" rx="20" ry="3" width="0" height="0" style="fill: rgb(128, 139, 164); fill-opacity: 1;" x="0" y="0"/></g><g class="g-gtitle"><text class="gtitle" x="600" y="40" text-anchor="middle" dy="0em" style="opacity: 1; font-family: Helvetica, Arial; font-size: 18px; fill: rgb(52, 73, 94); fill-opacity: 1; white-space: pre;"><tspan style="font-weight:bold">Architettura del Sistema di Conformità</tspan></text></g><g class="annotation" data-index="0" style="opacity: 1;"><g class="annotation-text-g" transform="rotate(0,528,385.45)"><g class="cursor-pointer" transform="translate(416,377)"><rect class="bg" x="0.5" y="0.5" width="223" height="15" style="stroke-width: 1px; stroke: rgb(0, 0, 0); stroke-opacity: 0; fill: rgb(255, 255, 255); fill-opacity: 1;"/><text class="annotation-text" text-anchor="middle" x="111.7109375" y="12" style="font-family: Helvetica, Arial; font-size: 11px; fill: rgb(52, 152, 219); fill-opacity: 1; white-space: pre;"><tspan style="font-weight:bold">Framework di Integrazione Multi-Standard</tspan></text></g></g></g></g></svg>