<svg class="main-svg" xmlns="http://www.w3.org/2000/svg" xmlns:xlink="http://www.w3.org/1999/xlink" width="1200" height="700" style="" viewBox="0 0 1200 700"><rect x="0" y="0" width="1200" height="700" style="fill: rgb(255, 255, 255); fill-opacity: 1;"/><defs id="defs-89be2b"><g class="clips"><clipPath id="clip89be2bxyplot" class="plotclip"><rect width="993" height="560"/></clipPath><clipPath class="axesclip" id="clip89be2bx"><rect x="60" y="0" width="993" height="700"/></clipPath><clipPath class="axesclip" id="clip89be2by"><rect x="0" y="80" width="1200" height="560"/></clipPath><clipPath class="axesclip" id="clip89be2bxy"><rect x="60" y="80" width="993" height="560"/></clipPath></g><g class="gradients"/><g class="patterns"/></defs><g class="bglayer"/><g class="layer-below"><g class="imagelayer"/><g class="shapelayer"/></g><g class="cartesianlayer"><g class="subplot xy"><g class="layer-subplot"><g class="shapelayer"/><g class="imagelayer"/></g><g class="minor-gridlayer"><g class="x"/><g class="y"/></g><g class="gridlayer"><g class="x"/><g class="y"/></g><g class="zerolinelayer"/><g class="layer-between"><g class="shapelayer"/><g class="imagelayer"/></g><path class="xlines-below"/><path class="ylines-below"/><g class="overlines-below"/><g class="xaxislayer-below"/><g class="yaxislayer-below"/><g class="overaxes-below"/><g class="overplot"><g class="xy" transform="translate(60,80)" clip-path="url(#clip89be2bxyplot)"><g class="scatterlayer mlayer"><g class="trace scatter trace1fbf0a" style="stroke-miterlimit: 2; opacity: 0.4;"><g class="fills"><g><path class="js-fill" d="M552.5,224L551.37,206.28L549.97,197.5L545.51,180.32L542.47,171.97L534.84,155.93L530.28,148.31L519.75,134.01L513.82,127.39L500.78,115.34L493.71,109.96L478.62,100.6L470.66,96.65L454.07,90.31L445.51,87.95L428.02,84.86L419.16,84.16L401.41,84.44L392.58,85.42L375.19,89.06L366.71,91.7L350.33,98.56L342.5,102.76L327.71,112.59L320.82,118.2L308.16,130.65L302.45,137.46L292.38,152.09L288.06,159.85L280.94,176.12L278.17,184.56L274.26,201.88L273.13,210.69L272.57,228.44L273.13,237.31L275.94,254.84L278.17,263.44L284.24,280.13L288.06,288.15L297.19,303.39L302.45,310.54L314.29,323.78L320.82,329.8L334.95,340.56L342.5,345.24L358.41,353.13L366.71,356.3L383.83,361.03L392.58,362.58L410.28,363.98L419.16,363.84L436.81,361.87L445.51,360.05L462.46,354.78L470.66,351.35L486.31,342.96L493.71,338.04L507.49,326.84L513.82,320.61L525.24,307.01L530.28,299.69L538.91,284.17L542.47,276.03L548.01,259.16L549.97,250.5L552.22,232.88L552.5,224Z" style="fill: rgb(44, 62, 80); fill-opacity: 1; stroke-width: 0;"/></g></g><g class="errorbars"/><g class="lines"><path class="js-line" d="M552.5,224L551.37,206.28L549.97,197.5L545.51,180.32L542.47,171.97L534.84,155.93L530.28,148.31L519.75,134.01L513.82,127.39L500.78,115.34L493.71,109.96L478.62,100.6L470.66,96.65L454.07,90.31L445.51,87.95L428.02,84.86L419.16,84.16L401.41,84.44L392.58,85.42L375.19,89.06L366.71,91.7L350.33,98.56L342.5,102.76L327.71,112.59L320.82,118.2L308.16,130.65L302.45,137.46L292.38,152.09L288.06,159.85L280.94,176.12L278.17,184.56L274.26,201.88L273.13,210.69L272.57,228.44L273.13,237.31L275.94,254.84L278.17,263.44L284.24,280.13L288.06,288.15L297.19,303.39L302.45,310.54L314.29,323.78L320.82,329.8L334.95,340.56L342.5,345.24L358.41,353.13L366.71,356.3L383.83,361.03L392.58,362.58L410.28,363.98L419.16,363.84L436.81,361.87L445.51,360.05L462.46,354.78L470.66,351.35L486.31,342.96L493.71,338.04L507.49,326.84L513.82,320.61L525.24,307.01L530.28,299.69L538.91,284.17L542.47,276.03L548.01,259.16L549.97,250.5L552.22,232.88L552.5,224" style="vector-effect: none; fill: none; stroke: rgb(44, 62, 80); stroke-opacity: 1; stroke-width: 3px; opacity: 1;"/></g><g class="points"/><g class="text"/></g><g class="trace scatter trace7b2401" style="stroke-miterlimit: 2; opacity: 0.4;"><g class="fills"><g><path class="js-fill" d="M675.7,224L674.57,206.28L673.17,197.5L668.71,180.32L665.67,171.97L658.04,155.93L653.48,148.31L642.95,134.01L637.02,127.39L623.98,115.34L616.91,109.96L601.82,100.6L593.86,96.65L577.27,90.31L568.71,87.95L551.22,84.86L542.36,84.16L524.61,84.44L515.78,85.42L498.39,89.06L489.91,91.7L473.53,98.56L465.7,102.76L450.91,112.59L444.02,118.2L431.36,130.65L425.65,137.46L415.58,152.09L411.26,159.85L404.14,176.12L401.37,184.56L397.46,201.88L396.33,210.69L395.77,228.44L396.33,237.31L399.14,254.84L401.37,263.44L407.44,280.13L411.26,288.15L420.39,303.39L425.65,310.54L437.49,323.78L444.02,329.8L458.15,340.56L465.7,345.24L481.61,353.13L489.91,356.3L507.03,361.03L515.78,362.58L533.48,363.98L542.36,363.84L560.01,361.87L568.71,360.05L585.66,354.78L593.86,351.35L609.51,342.96L616.91,338.04L630.69,326.84L637.02,320.61L648.44,307.01L653.48,299.69L662.11,284.17L665.67,276.03L671.21,259.16L673.17,250.5L675.42,232.88L675.7,224Z" style="fill: rgb(231, 76, 60); fill-opacity: 1; stroke-width: 0;"/></g></g><g class="errorbars"/><g class="lines"><path class="js-line" d="M675.7,224L674.57,206.28L673.17,197.5L668.71,180.32L665.67,171.97L658.04,155.93L653.48,148.31L642.95,134.01L637.02,127.39L623.98,115.34L616.91,109.96L601.82,100.6L593.86,96.65L577.27,90.31L568.71,87.95L551.22,84.86L542.36,84.16L524.61,84.44L515.78,85.42L498.39,89.06L489.91,91.7L473.53,98.56L465.7,102.76L450.91,112.59L444.02,118.2L431.36,130.65L425.65,137.46L415.58,152.09L411.26,159.85L404.14,176.12L401.37,184.56L397.46,201.88L396.33,210.69L395.77,228.44L396.33,237.31L399.14,254.84L401.37,263.44L407.44,280.13L411.26,288.15L420.39,303.39L425.65,310.54L437.49,323.78L444.02,329.8L458.15,340.56L465.7,345.24L481.61,353.13L489.91,356.3L507.03,361.03L515.78,362.58L533.48,363.98L542.36,363.84L560.01,361.87L568.71,360.05L585.66,354.78L593.86,351.35L609.51,342.96L616.91,338.04L630.69,326.84L637.02,320.61L648.44,307.01L653.48,299.69L662.11,284.17L665.67,276.03L671.21,259.16L673.17,250.5L675.42,232.88L675.7,224" style="vector-effect: none; fill: none; stroke: rgb(231, 76, 60); stroke-opacity: 1; stroke-width: 3px; opacity: 1;"/></g><g class="points"/><g class="text"/></g><g class="trace scatter trace1ac412" style="stroke-miterlimit: 2; opacity: 0.4;"><g class="fills"><g><path class="js-fill" d="M614.1,330.4L612.97,312.68L611.57,303.9L607.11,286.72L604.07,278.37L596.44,262.33L591.88,254.71L581.35,240.41L575.42,233.79L562.38,221.74L555.31,216.36L540.22,207L532.26,203.05L515.67,196.71L507.11,194.35L489.62,191.26L480.76,190.56L463.01,190.84L454.18,191.82L436.79,195.46L428.31,198.1L411.93,204.96L404.1,209.16L389.31,218.99L382.42,224.6L369.76,237.05L364.05,243.86L353.98,258.49L349.66,266.25L342.54,282.52L339.77,290.96L335.86,308.28L334.73,317.09L334.17,334.84L334.73,343.71L337.54,361.24L339.77,369.84L345.84,386.53L349.66,394.55L358.79,409.79L364.05,416.94L375.89,430.18L382.42,436.2L396.55,446.96L404.1,451.64L420.01,459.53L428.31,462.7L445.43,467.43L454.18,468.98L471.88,470.38L480.76,470.24L498.41,468.27L507.11,466.45L524.06,461.18L532.26,457.75L547.91,449.36L555.31,444.44L569.09,433.24L575.42,427.01L586.84,413.41L591.88,406.09L600.51,390.57L604.07,382.43L609.61,365.56L611.57,356.9L613.82,339.28L614.1,330.4Z" style="fill: rgb(39, 174, 96); fill-opacity: 1; stroke-width: 0;"/></g></g><g class="errorbars"/><g class="lines"><path class="js-line" d="M614.1,330.4L612.97,312.68L611.57,303.9L607.11,286.72L604.07,278.37L596.44,262.33L591.88,254.71L581.35,240.41L575.42,233.79L562.38,221.74L555.31,216.36L540.22,207L532.26,203.05L515.67,196.71L507.11,194.35L489.62,191.26L480.76,190.56L463.01,190.84L454.18,191.82L436.79,195.46L428.31,198.1L411.93,204.96L404.1,209.16L389.31,218.99L382.42,224.6L369.76,237.05L364.05,243.86L353.98,258.49L349.66,266.25L342.54,282.52L339.77,290.96L335.86,308.28L334.73,317.09L334.17,334.84L334.73,343.71L337.54,361.24L339.77,369.84L345.84,386.53L349.66,394.55L358.79,409.79L364.05,416.94L375.89,430.18L382.42,436.2L396.55,446.96L404.1,451.64L420.01,459.53L428.31,462.7L445.43,467.43L454.18,468.98L471.88,470.38L480.76,470.24L498.41,468.27L507.11,466.45L524.06,461.18L532.26,457.75L547.91,449.36L555.31,444.44L569.09,433.24L575.42,427.01L586.84,413.41L591.88,406.09L600.51,390.57L604.07,382.43L609.61,365.56L611.57,356.9L613.82,339.28L614.1,330.4" style="vector-effect: none; fill: none; stroke: rgb(39, 174, 96); stroke-opacity: 1; stroke-width: 3px; opacity: 1;"/></g><g class="points"/><g class="text"/></g></g></g></g><g class="zerolinelayer-above"/><path class="xlines-above crisp" d="M0,0" style="fill: none;"/><path class="ylines-above crisp" d="M0,0" style="fill: none;"/><g class="overlines-above"/><g class="xaxislayer-above"/><g class="yaxislayer-above"/><g class="overaxes-above"/></g></g><g class="polarlayer"/><g class="smithlayer"/><g class="ternarylayer"/><g class="geolayer"/><g class="funnelarealayer"/><g class="pielayer"/><g class="iciclelayer"/><g class="treemaplayer"/><g class="sunburstlayer"/><g class="glimages"/><defs id="topdefs-89be2b"><g class="clips"/><clipPath id="legend89be2b"><rect width="115" height="67" x="0" y="0"/></clipPath></defs><g class="layer-above"><g class="imagelayer"/><g class="shapelayer"/></g><g class="infolayer"><g class="legend" pointer-events="all" transform="translate(1072.8600000000001,80)"><rect class="bg" shape-rendering="crispEdges" style="stroke: rgb(68, 68, 68); stroke-opacity: 1; fill: rgb(255, 255, 255); fill-opacity: 1; stroke-width: 0px;" width="115" height="67" x="0" y="0"/><g class="scrollbox" transform="" clip-path="url(#legend89be2b)"><g class="groups"><g class="traces" transform="translate(0,14.5)" style="opacity: 1;"><text class="legendtext" text-anchor="start" x="40" y="4.680000000000001" style="font-family: Helvetica, Arial; font-size: 12px; fill: rgb(52, 73, 94); fill-opacity: 1; white-space: pre;">PCI-DSS 4.0</text><g class="layers" style="opacity: 0.4;"><g class="legendfill"><path class="js-fill" d="M5,-2h30v6h-30z" style="stroke-width: 0; fill: rgb(44, 62, 80); fill-opacity: 1;"/></g><g class="legendlines"><path class="js-line" d="M5,-2h30" style="fill: none; stroke: rgb(44, 62, 80); stroke-opacity: 1; stroke-width: 3px;"/></g><g class="legendsymbols"><g class="legendpoints"/></g></g><rect class="legendtoggle" x="0" y="-9.5" width="109.015625" height="19" style="fill: rgb(0, 0, 0); fill-opacity: 0;"/></g><g class="traces" transform="translate(0,33.5)" style="opacity: 1;"><text class="legendtext" text-anchor="start" x="40" y="4.680000000000001" style="font-family: Helvetica, Arial; font-size: 12px; fill: rgb(52, 73, 94); fill-opacity: 1; white-space: pre;">GDPR</text><g class="layers" style="opacity: 0.4;"><g class="legendfill"><path class="js-fill" d="M5,-2h30v6h-30z" style="stroke-width: 0; fill: rgb(231, 76, 60); fill-opacity: 1;"/></g><g class="legendlines"><path class="js-line" d="M5,-2h30" style="fill: none; stroke: rgb(231, 76, 60); stroke-opacity: 1; stroke-width: 3px;"/></g><g class="legendsymbols"><g class="legendpoints"/></g></g><rect class="legendtoggle" x="0" y="-9.5" width="109.015625" height="19" style="fill: rgb(0, 0, 0); fill-opacity: 0;"/></g><g class="traces" transform="translate(0,52.5)" style="opacity: 1;"><text class="legendtext" text-anchor="start" x="40" y="4.680000000000001" style="font-family: Helvetica, Arial; font-size: 12px; fill: rgb(52, 73, 94); fill-opacity: 1; white-space: pre;">NIS2</text><g class="layers" style="opacity: 0.4;"><g class="legendfill"><path class="js-fill" d="M5,-2h30v6h-30z" style="stroke-width: 0; fill: rgb(39, 174, 96); fill-opacity: 1;"/></g><g class="legendlines"><path class="js-line" d="M5,-2h30" style="fill: none; stroke: rgb(39, 174, 96); stroke-opacity: 1; stroke-width: 3px;"/></g><g class="legendsymbols"><g class="legendpoints"/></g></g><rect class="legendtoggle" x="0" y="-9.5" width="109.015625" height="19" style="fill: rgb(0, 0, 0); fill-opacity: 0;"/></g></g></g><rect class="scrollbar" rx="20" ry="3" width="0" height="0" style="fill: rgb(128, 139, 164); fill-opacity: 1;" x="0" y="0"/></g><g class="g-gtitle"><text class="gtitle" x="600" y="40" text-anchor="middle" dy="0em" style="opacity: 1; font-family: Helvetica, Arial; font-size: 18px; fill: rgb(52, 73, 94); fill-opacity: 1; white-space: pre;"><tspan style="font-weight:bold">Sovrapposizioni Standard Normativi nel Retail</tspan></text></g><g class="annotation" data-index="0" style="opacity: 1;"><g class="annotation-text-g" transform="rotate(0,534.1,304)"><g class="cursor-pointer" transform="translate(518,288)"><rect class="bg" x="0.5" y="0.5" width="31" height="31" style="stroke-width: 1px; stroke: rgb(0, 0, 0); stroke-opacity: 0; fill: rgb(142, 68, 173); fill-opacity: 1;"/><text class="annotation-text" text-anchor="middle" x="16.125" y="23" style="font-family: Helvetica, Arial; font-size: 20px; fill: rgb(255, 255, 255); fill-opacity: 1; white-space: pre;"><tspan style="font-weight:bold">47</tspan></text></g></g></g><g class="annotation" data-index="1" style="opacity: 1;"><g class="annotation-text-g" transform="rotate(0,455.7,348.8)"><g class="cursor-pointer" transform="translate(442,335)"><rect class="bg" x="0.5" y="0.5" width="27" height="26" style="stroke-width: 1px; stroke: rgb(0, 0, 0); stroke-opacity: 0; fill: rgb(142, 68, 173); fill-opacity: 1;"/><text class="annotation-text" text-anchor="middle" x="13.8984375" y="19" style="font-family: Helvetica, Arial; font-size: 16px; fill: rgb(255, 255, 255); fill-opacity: 1; white-space: pre;"><tspan style="font-weight:bold">23</tspan></text></g></g></g><g class="annotation" data-index="2" style="opacity: 1;"><g class="annotation-text-g" transform="rotate(0,612.5,348.8)"><g class="cursor-pointer" transform="translate(599,335)"><rect class="bg" x="0.5" y="0.5" width="27" height="26" style="stroke-width: 1px; stroke: rgb(0, 0, 0); stroke-opacity: 0; fill: rgb(142, 68, 173); fill-opacity: 1;"/><text class="annotation-text" text-anchor="middle" x="13.8984375" y="19" style="font-family: Helvetica, Arial; font-size: 16px; fill: rgb(255, 255, 255); fill-opacity: 1; white-space: pre;"><tspan style="font-weight:bold">31</tspan></text></g></g></g><g class="annotation" data-index="3" style="opacity: 1;"><g class="annotation-text-g" transform="rotate(0,534.1,343.2)"><g class="cursor-pointer" transform="translate(516,325)"><rect class="bg" x="0.5" y="0.5" width="36" height="36" style="stroke-width: 1px; stroke: rgb(0, 0, 0); stroke-opacity: 0; fill: rgb(243, 156, 18); fill-opacity: 1;"/><text class="annotation-text" text-anchor="middle" x="18.3515625" y="27" style="font-family: Helvetica, Arial; font-size: 24px; fill: rgb(255, 255, 255); fill-opacity: 1; white-space: pre;"><tspan style="font-weight:bold">55</tspan></text></g></g></g><g class="annotation" data-index="4" style="opacity: 1;"><g class="annotation-text-g" transform="rotate(0,405.3,164)"><g class="cursor-pointer" transform="translate(366,146)"><rect class="bg" x="0.5" y="0.5" width="77" height="35" style="stroke-width: 1px; stroke: rgb(0, 0, 0); stroke-opacity: 0; fill: rgb(0, 0, 0); fill-opacity: 0;"/><text class="annotation-text" text-anchor="middle" x="39.2109375" y="14" style="font-family: Helvetica, Arial; font-size: 13px; fill: rgb(44, 62, 80); fill-opacity: 1; white-space: pre;"><tspan class="line" dy="0em" x="39.2109375" y="14"><tspan style="font-weight:bold">PCI-DSS 4.0</tspan></tspan><tspan class="line" dy="1.3em" x="39.2109375" y="14">264 controlli</tspan></text></g></g></g><g class="annotation" data-index="5" style="opacity: 1;"><g class="annotation-text-g" transform="rotate(0,662.9,164)"><g class="cursor-pointer" transform="translate(633,146)"><rect class="bg" x="0.5" y="0.5" width="59" height="35" style="stroke-width: 1px; stroke: rgb(0, 0, 0); stroke-opacity: 0; fill: rgb(0, 0, 0); fill-opacity: 0;"/><text class="annotation-text" text-anchor="middle" x="29.8203125" y="14" style="font-family: Helvetica, Arial; font-size: 13px; fill: rgb(231, 76, 60); fill-opacity: 1; white-space: pre;"><tspan class="line" dy="0em" x="29.8203125" y="14"><tspan style="font-weight:bold">GDPR</tspan></tspan><tspan class="line" dy="1.3em" x="29.8203125" y="14">99 articoli</tspan></text></g></g></g><g class="annotation" data-index="6" style="opacity: 1;"><g class="annotation-text-g" transform="rotate(0,534.1,556)"><g class="cursor-pointer" transform="translate(504,538)"><rect class="bg" x="0.5" y="0.5" width="60" height="35" style="stroke-width: 1px; stroke: rgb(0, 0, 0); stroke-opacity: 0; fill: rgb(0, 0, 0); fill-opacity: 0;"/><text class="annotation-text" text-anchor="middle" x="30.5390625" y="14" style="font-family: Helvetica, Arial; font-size: 13px; fill: rgb(39, 174, 96); fill-opacity: 1; white-space: pre;"><tspan class="line" dy="0em" x="30.5390625" y="14"><tspan style="font-weight:bold">NIS2</tspan></tspan><tspan class="line" dy="1.3em" x="30.5390625" y="14">31 misure</tspan></text></g></g></g><g class="annotation" data-index="7" style="opacity: 1;"><g class="annotation-text-g" transform="rotate(0,752.5,388)"><g class="cursor-pointer" transform="translate(696,360)"><rect class="bg" x="1" y="1" width="111" height="55" style="stroke-width: 2px; stroke: rgb(44, 62, 80); stroke-opacity: 1; fill: rgb(255, 255, 255); fill-opacity: 0.9;"/><text class="annotation-text" text-anchor="middle" x="56.6953125" y="19" style="font-family: Helvetica, Arial; font-size: 10px; fill: rgb(52, 73, 94); fill-opacity: 1; white-space: pre;"><tspan class="line" dy="0em" x="56.6953125" y="19"><tspan style="font-weight:bold">Controlli Comuni</tspan></tspan><tspan class="line" dy="1.3em" x="56.6953125" y="19">156 totali (39.6%)</tspan><tspan class="line" dy="2.6em" x="56.6953125" y="19">55 core - 101 parziali</tspan></text></g></g></g></g></svg>